<svg id="レイヤー_1" data-name="レイヤー 1" xmlns="http://www.w3.org/2000/svg" viewBox="0 0 488 500"><defs><style>.cls-1,.cls-2,.cls-4{fill:#fff;}.cls-1,.cls-3,.cls-4{stroke:#19448e;}.cls-1,.cls-3{stroke-miterlimit:10;}.cls-1{stroke-width:8.66px;}.cls-3{fill:none;}.cls-3,.cls-4{stroke-width:10px;}.cls-4{stroke-linecap:round;stroke-linejoin:round;}.cls-5{fill:#19448e;}</style></defs><title>i_tokkuri_img01</title><g id="おちょこ"><ellipse class="cls-1" cx="244" cy="421" rx="113.03" ry="55"/><path class="cls-2" d="M448.5,348.5H42.5v-190C40,128,176.78,218,244,218c118,0,205-110,204.5-59.5Z"/><line class="cls-3" x1="449" y1="146" x2="449" y2="343.5"/><line class="cls-3" x1="40" y1="151.39" x2="40" y2="343.5"/><path class="cls-4" d="M40,151.39c7.3,40.29,95.84,72.11,204,72.11,112.94,0,204.5-34.7,204.5-77.5S356.94,68.5,244,68.5,39.5,103.2,39.5,146a30.45,30.45,0,0,0,.5,5.39"/><path class="cls-4" d="M449,343.5c0,42.8-91.56,77.5-204.5,77.5S40,386.3,40,343.5"/><path class="cls-5" d="M65,181c29.11,31.75,112,40,178.5,39.5,98.63-.74,154.37-4.55,180-40,21.9-30.29-81.32-77.13-180-77.13S65,133.67,65,171.05a26.43,26.43,0,0,0,.44,4.7"/><path class="cls-2" d="M96.59,178.72A134.64,134.64,0,0,1,114.17,156c6.76-6.94,14.2-13.79,22.71-18.81,2.11-1.28,4.24-2.57,6.41-3.79s4.36-2.4,6.59-3.53a52.51,52.51,0,0,1,14.21-4.49,64.93,64.93,0,0,1,15-.77c1.27.11,2.53.24,3.79.41s2.53.43,3.79.72a34,34,0,0,1,3.74,1.11c.62.24,1.23.44,1.84.72s1.2.58,1.77.91a.56.56,0,0,1,.2.76.52.52,0,0,1-.26.23h0l-6.79,2.89c-1.1.46-2.19,1-3.27,1.38s-2.16.92-3.23,1.34c-4.28,1.76-8.49,3.45-12.69,5a118.45,118.45,0,0,1-12.77,4.07c-2.17.59-4.38,1.09-6.54,1.75-1.08.33-2.19.61-3.26,1l-3.2,1.14c-8.46,3.23-17.2,6.41-24.8,11.75-1.9,1.32-3.74,2.73-5.56,4.18s-3.56,3-5.21,4.67a79.08,79.08,0,0,0-9.23,10.6.5.5,0,0,1-.82-.56Z"/><path class="cls-2" d="M267,128.5a68.13,68.13,0,0,1,18.26-3.32,117.37,117.37,0,0,1,18.47.44,115.18,115.18,0,0,1,18.11,3.19,157.72,157.72,0,0,1,17.38,5.86,116.93,116.93,0,0,1,16.66,8.19A151.78,151.78,0,0,1,371,153.49a143.18,143.18,0,0,1,13.63,12.25,117.13,117.13,0,0,1,11.7,13.9.5.5,0,0,1-.11.71.51.51,0,0,1-.57,0c-5.09-3.21-10.1-6.32-15.22-9.19s-10.25-5.57-15.47-8-10.53-4.6-15.84-6.62-10.59-3.93-15.92-5.8-10.86-3.56-16.28-5.36-10.8-3.73-16.25-5.57-10.94-3.66-16.51-5.39S273,131.08,267,129.5h0a.53.53,0,0,1-.37-.64A.55.55,0,0,1,267,128.5Z"/><path class="cls-2" d="M174,177a32,32,0,0,1,7-9.06,53.56,53.56,0,0,1,9.23-6.89,61.27,61.27,0,0,1,10.48-5c1.82-.69,3.72-1.2,5.62-1.72,1-.22,1.94-.41,2.91-.62l3-.45c1-.12,2-.16,3-.24S217.1,153,218,153c1.81,0,3.65-.1,5.51-.09a86.51,86.51,0,0,1,11.31.66,52.87,52.87,0,0,1,11.23,2.66A29.36,29.36,0,0,1,256,162c-7.46-1.33-14.36-1.11-21.41-.61-3.51.27-7,.6-10.61,1l-5.43.48c-.9.07-1.92.1-2.73.18s-1.61.13-2.42.23l-2.45.33c-.82.15-1.64.31-2.46.45l-2.48.52c-.83.17-1.65.43-2.48.61-3.32.84-6.63,1.86-9.94,3s-6.59,2.43-9.85,3.86A83.2,83.2,0,0,0,174,177Z"/></g></svg>