<svg id="レイヤー_1" data-name="レイヤー 1" xmlns="http://www.w3.org/2000/svg" viewBox="0 0 500 500"><defs><style>.cls-1,.cls-2,.cls-3,.cls-4{fill:#19448e;}.cls-1,.cls-2,.cls-3{stroke:#19448e;stroke-miterlimit:10;}.cls-1{stroke-width:10px;}.cls-2{stroke-width:3.55px;}.cls-3{stroke-width:4px;}</style></defs><title>j_tokkurishadow_img01</title><g id="徳利と盃"><g id="徳利"><path class="cls-1" d="M365.5,305.72c0,105.49-78.57,155-175.5,155s-175.5-49.51-175.5-155,78.57-227,175.5-227S365.5,200.24,365.5,305.72Z"/><ellipse class="cls-2" cx="190" cy="458.97" rx="65" ry="19.25"/><path class="cls-3" d="M126.68,430.72H253.32a1.68,1.68,0,0,1,1.68,1.68v24.81a5.51,5.51,0,0,1-5.51,5.51H129.11a4.11,4.11,0,0,1-4.11-4.11V432.41A1.68,1.68,0,0,1,126.68,430.72Z"/><path class="cls-4" d="M294,40.72c0-10.21-46.34-18.5-103.5-18.5S87,30.51,87,40.72a4.48,4.48,0,0,0,1.32,3l27.35,54.87H265.33l27.35-54.87A4.48,4.48,0,0,0,294,40.72Z"/></g><g id="盃"><polygon class="cls-4" points="437.38 467 379.62 467 328 428 489 428 437.38 467"/><ellipse class="cls-4" cx="408.5" cy="427.5" rx="80.5" ry="12.5"/><ellipse class="cls-4" cx="408.5" cy="466.5" rx="29.5" ry="3.5"/><ellipse class="cls-4" cx="408.5" cy="476.5" rx="29.5" ry="3.5"/><rect class="cls-4" x="379" y="466" width="59" height="10"/></g></g></svg>