<?xml version="1.0" encoding="utf-8"?>
<!-- Generator: Adobe Illustrator 24.1.0, SVG Export Plug-In . SVG Version: 6.00 Build 0)  -->
<svg version="1.1" id="レイヤー_1" xmlns="http://www.w3.org/2000/svg" xmlns:xlink="http://www.w3.org/1999/xlink" x="0px"
	 y="0px" viewBox="0 0 500 500" style="enable-background:new 0 0 500 500;" xml:space="preserve">
<style type="text/css">
	.st0{fill:#FFFFFF;}
	.st1{fill:#BD1B21;}
	.st2{fill:none;stroke:#BD1B21;stroke-width:9;stroke-miterlimit:10;}
</style>
<rect x="-3.1" class="st0" width="500" height="500"/>
<rect x="106.19" y="185.77" class="st1" width="287.63" height="200.9"/>
<polyline class="st1" points="250,68.9 106.19,185.77 393.81,185.77 "/>
<g>
	<g>
		<path class="st0" d="M360.01,356.44c6.3,5.1,10.5,3.3,13.5-3.3c2.4-4.8,4.5-11.7,6.3-15.9c2.1-6.3,8.7-5.1,8.7,1.2
			c0,6.9-0.6,15.6,0,22.2c0.3,7.8,3.6,13.5,3.9,19.5s-3.3,8.7-11.1,9c-9.6,0.6-23.4-4.5-36.3-18.9c-8.4-7.2-15.6-15.6-21.6-25.8
			c-15.6,18.3-36,33.6-61.5,44.4c-8.4,3-12-5.1-4.2-9.6c8.4-5.1,15.6-10.2,22.5-15.6h-80.7v15.3c0,6.6-4.5,9.6-13.5,9.6
			c-5.4,0-8.1-3-8.1-8.4c0.3-25.5,2.4-112.5-0.9-145.5c-0.3-2.1,1.8-4.2,4.2-3.9c4.8,0.6,19.5,6.3,25.5,11.4h48
			c4.8-7.2,10.5-14.7,13.8-14.7c5.1,0,21,15.3,21,21c0,4.2-4.8,5.7-12,5.7h-28.2v0.6c0,3-2.1,5.1-6,6.3v15.3h12.6
			c3-4.2,6.6-7.8,9-7.8c4.5,0,19.5,10.5,19.5,16.5c0,3.3-3,5.7-6.6,7.2v31.8c0,7.8-5.1,9.9-12,9.9c-6.3,0-7.8-2.4-7.8-7.2v-2.1h-9.3
			c-0.9,1.8-2.7,3-5.4,3.9v23.1h16.5c5.1-7.8,11.4-16.2,15-16.2s13.8,8.7,18.9,15.6c7.5-7.5,14.1-15.6,20.1-24.9
			c-11.7-27-18.9-62.1-22.8-106.5h-126.9c0.6,16.2,0,32.7-0.6,52.8c-1.2,44.4-11.7,88.8-42,116.1c-7.2,6.3-14.4,0.3-8.1-7.5
			c19.8-27.9,27.9-62.1,28.8-109.8c0.3-23.7-0.3-50.4-1.8-73.2c-0.3-4.5,1.5-6,5.4-5.4c5.4,0.9,22.8,9.3,27,15h117.3
			c-0.6-5.4-0.9-10.8-1.2-16.5c0-1.8,0-3.3,0.3-4.2c-2.4,1.2-5.1,1.5-8.7,1.5c-5.1,0-8.4-2.7-8.4-7.8c0-4.2,0.3-10.5,0.3-18.6h-48.9
			v22.2c0,6.3-4.5,8.7-12.9,8.7c-5.1,0-8.4-2.7-8.4-7.8c0-4.8,0.3-13.2,0.3-23.1h-79.2c-3.9,0-6.6-1.2-6.6-6c0-4.5,2.7-6,6.6-6h79.2
			c-0.3-9-1.2-18.9-2.1-26.1c-0.3-3,1.5-4.2,4.2-4.2c12,0,32.7,1.2,32.7,8.4c0,4.8-4.5,8.1-13.8,9.6v12.3h48.9
			c-0.3-8.7-1.2-18.9-2.1-26.1c-0.3-3,1.5-4.2,4.2-4.2c12,0,32.7,1.2,32.7,8.4c0,4.8-4.5,8.1-13.5,9.6v12.3h46.8
			c6.6-9.6,14.7-20.7,19.5-20.7c6.3,0,28.2,18.3,28.2,25.8c0,4.2-4.8,6.9-16.8,6.9h-77.7v17.7c0,2.1-0.6,3.9-1.8,5.1
			c0.6,0,1.2,0,2.1,0c11.1-0.6,27,1.2,27.3,7.5c0.3,3.3-3.3,5.7-10.2,7.5v7.8h38.4c6-9.3,13.2-18.9,17.1-18.9
			c5.7,0,22.8,17.7,22.8,24.3c0,4.5-5.4,6.6-12.6,6.6h-65.4c1.5,33,6.6,62.4,14.7,85.8c9.9-19.8,16.2-41.7,19.5-71.1
			c0.6-4.5,1.8-6.6,4.8-6.6c11.1-0.3,30.3,6.3,30.3,12.9c0,3.9-4.8,6.3-15,7.5c-6.9,31.8-15.6,56.7-30,79.2
			C342.61,340.24,350.71,350.14,360.01,356.44z M258.31,312.64c0-8.1,0.3-17.7,0.3-24.3h-59.4v22.2v2.1L258.31,312.64L258.31,312.64
			z M199.51,351.64h24.9v-27h-25.2L199.51,351.64z M224.41,276.34v-22.2h-24.3c-0.3,5.1-0.6,13.5-0.6,22.2H224.41z M350.11,187.23
			c0.6,7.2-3.6,12.9-11.1,13.5c-6.9,0.6-9.9-5.7-14.4-12.6c-3-4.5-6.6-9.6-10.2-13.8c-3.6-4.8-1.5-10.5,6-9
			C334.51,168.33,349.21,174.94,350.11,187.23z"/>
	</g>
</g>
<line class="st2" x1="194.26" y1="-2.91" x2="503.96" y2="252.33"/>
<line class="st2" x1="-5.67" y1="246.89" x2="305.95" y2="0"/>
</svg>
