<svg id="レイヤー_1" data-name="レイヤー 1" xmlns="http://www.w3.org/2000/svg" viewBox="0 0 500 500"><defs><style>.cls-1,.cls-3,.cls-5{fill:#19448e;}.cls-1,.cls-2,.cls-3{stroke:#19448e;}.cls-1,.cls-2,.cls-3,.cls-4{stroke-width:10px;}.cls-2{fill:#fff;}.cls-2,.cls-3{stroke-miterlimit:10;}.cls-4{fill:none;stroke:#fff;}</style></defs><title>s_citron_img01</title><g id="ゆず"><path class="cls-1" d="M195,243.64c-73.61,44.24-183.25-3-183.25-3S21.42,121.6,95,77.36s183.25,3,183.25,3S268.58,199.4,195,243.64Z"/><ellipse class="cls-2" cx="265" cy="281.64" rx="224.5" ry="200.5"/><path class="cls-3" d="M294.28,107.14h-63.5V39.64s18.72-8.5,32.11-8.5c13.07,0,31.39,8.5,31.39,8.5Z"/><path class="cls-4" d="M183.9,234.34c-.6.6-1.92,22.08-1.92,31.2a49.72,49.72,0,0,1,30.36-24.12c-.24-4.32-.36-8.52-.6-12.6a23.38,23.38,0,0,0-.6-4.68l16,.36c0,2.52,0,4.08.12,5.88.24,2,.24,3.72.36,7.44l.12,1.8c13.68.84,21.24,3.48,27.84,9.6s10,14.76,10,25.56c0,22.92-14.4,36.84-38.28,36.84a29.62,29.62,0,0,1-6-.48c-5.52,8.16-14.76,13.44-29,16.56a17,17,0,0,0-4.68,1.68l-1.92-4.92c10-.36,19.92-7.56,23.64-17-6.84-3.72-12.48-10-17-18.72a15.26,15.26,0,0,0-2.52-3.6l5-2.88c1.08,6.24,9.24,16.32,16.44,20.28,1.8-6.72,2.52-13.56,2.52-25,0-8.4-.24-14.64-1.08-31.8-19.08,6.6-31,22.2-31,40.56,0,8.64.48,16.56,1.2,20.28l-14.64,1a43.35,43.35,0,0,0-.24-4.44c-.24-3.84-.36-10.56-.36-19.92,0-18.72.36-32.52,1.2-46.08v-1.2a19.62,19.62,0,0,0-.24-2.64Zm44.88,42.84c0,13.8-1.32,21.72-4.92,29.4a7.46,7.46,0,0,0,1.92.12c15.12,0,24.12-12,24.12-32.16,0-17.16-7.44-27.48-21.84-30.12C228.66,263.74,228.78,271.3,228.78,277.18Z"/><path class="cls-4" d="M321.54,230.74a26.1,26.1,0,0,0-.6-6h16.92a33.9,33.9,0,0,0-.6,6v12.6h22.56a33.9,33.9,0,0,0,6-.6v6a26.76,26.76,0,0,0-6-.6H337.26V286.3c.24,23.28-14.88,36.6-46.2,40.68a14.66,14.66,0,0,0-4.08,1.2l-1.56-4.92c20.16-.84,35-13.92,36.48-32-3.72,5.64-9.36,8.28-17.28,8.28-13.8,0-22.68-8.28-22.68-21.12,0-12.36,9.24-21.36,22.2-21.36,7.92,0,13.8,2.76,17.88,8.4l-.24-17.28H269.22a35.05,35.05,0,0,0-6,.6v-6a33.9,33.9,0,0,0,6,.6h52.44ZM294.42,278.5c0,9.72,5.28,16,13.68,16,8,0,14-6.84,14-16,0-9.6-5.76-16.44-13.8-16.44S294.42,268.9,294.42,278.5Zm62-58v14.88h-7.2V220.54Zm14,0v14.88h-7.2V220.54Z"/><path class="cls-5" d="M183.9,234.34c-.6.6-1.92,22.08-1.92,31.2a49.72,49.72,0,0,1,30.36-24.12c-.24-4.32-.36-8.52-.6-12.6a23.38,23.38,0,0,0-.6-4.68l16,.36c0,2.52,0,4.08.12,5.88.24,2,.24,3.72.36,7.44l.12,1.8c13.68.84,21.24,3.48,27.84,9.6s10,14.76,10,25.56c0,22.92-14.4,36.84-38.28,36.84a29.62,29.62,0,0,1-6-.48c-5.52,8.16-14.76,13.44-29,16.56a17,17,0,0,0-4.68,1.68l-1.92-4.92c10-.36,19.92-7.56,23.64-17-6.84-3.72-12.48-10-17-18.72a15.26,15.26,0,0,0-2.52-3.6l5-2.88c1.08,6.24,9.24,16.32,16.44,20.28,1.8-6.72,2.52-13.56,2.52-25,0-8.4-.24-14.64-1.08-31.8-19.08,6.6-31,22.2-31,40.56,0,8.64.48,16.56,1.2,20.28l-14.64,1a43.35,43.35,0,0,0-.24-4.44c-.24-3.84-.36-10.56-.36-19.92,0-18.72.36-32.52,1.2-46.08v-1.2a19.62,19.62,0,0,0-.24-2.64Zm44.88,42.84c0,13.8-1.32,21.72-4.92,29.4a7.46,7.46,0,0,0,1.92.12c15.12,0,24.12-12,24.12-32.16,0-17.16-7.44-27.48-21.84-30.12C228.66,263.74,228.78,271.3,228.78,277.18Z"/><path class="cls-5" d="M321.54,230.74a26.1,26.1,0,0,0-.6-6h16.92a33.9,33.9,0,0,0-.6,6v12.6h22.56a33.9,33.9,0,0,0,6-.6v6a26.76,26.76,0,0,0-6-.6H337.26V286.3c.24,23.28-14.88,36.6-46.2,40.68a14.66,14.66,0,0,0-4.08,1.2l-1.56-4.92c20.16-.84,35-13.92,36.48-32-3.72,5.64-9.36,8.28-17.28,8.28-13.8,0-22.68-8.28-22.68-21.12,0-12.36,9.24-21.36,22.2-21.36,7.92,0,13.8,2.76,17.88,8.4l-.24-17.28H269.22a35.05,35.05,0,0,0-6,.6v-6a33.9,33.9,0,0,0,6,.6h52.44ZM294.42,278.5c0,9.72,5.28,16,13.68,16,8,0,14-6.84,14-16,0-9.6-5.76-16.44-13.8-16.44S294.42,268.9,294.42,278.5Zm62-58v14.88h-7.2V220.54Zm14,0v14.88h-7.2V220.54Z"/></g></svg>