<svg id="レイヤー_1" data-name="レイヤー 1" xmlns="http://www.w3.org/2000/svg" viewBox="0 0 500 500"><defs><style>.cls-1,.cls-2,.cls-3,.cls-4,.cls-5{fill:#fff;}.cls-1,.cls-2,.cls-3,.cls-4{stroke:#19448e;stroke-miterlimit:10;}.cls-1{stroke-width:10px;}.cls-2{stroke-width:8.64px;}.cls-3{stroke-width:8.51px;}.cls-4{stroke-width:8.58px;}.cls-6{fill:#19448e;}</style></defs><title>s_grape_img01</title><g id="ぶどう"><path class="cls-1" d="M250.32,92c-23.89-14.45-54.4-12.92-84.65,1.23-24.69.34-56.35,13-85.15,36.12C34,166.65,32.63,242.15,32.63,242.15a182.07,182.07,0,0,0,25.28,2.73C46.4,323.78,61,418,61,418s150.09-62.21,195.4-137.11S299,121.41,250.32,92Z"/><path class="cls-1" d="M270.76,120.91H229.24V25.23s12.24-12.06,21-12.06c8.55,0,20.53,12.06,20.53,12.06Z"/><ellipse class="cls-2" cx="250" cy="403.5" rx="86.52" ry="85.51"/><ellipse class="cls-3" cx="181.5" cy="300" rx="85" ry="84.27"/><ellipse class="cls-3" cx="311.5" cy="300" rx="85" ry="84.27"/><ellipse class="cls-4" cx="117.5" cy="163" rx="85.75" ry="85.05"/><ellipse class="cls-4" cx="389.36" cy="163" rx="85.75" ry="85.05"/><ellipse class="cls-3" cx="250" cy="163" rx="85" ry="84.27"/><rect class="cls-5" x="67" y="181" width="308" height="129"/><path class="cls-6" d="M66.57,277.71c7.36-7,18-29,19.43-40.68l8,2.4c-.6,1.8-.72,2-1.21,6.12-2,14.64-7.84,33.36-12.79,41Zm26.3-67.08a27,27,0,0,0-6,.6v-6a33.14,33.14,0,0,0,6,.6h57.69v4.8l-29.81,19.56c17.14,15.24,24.62,28.68,24.62,44.28,0,15.24-9.05,24.36-24.14,24.36-9.41,0-19.43-5-26.91-13.56a14.06,14.06,0,0,0-3.26-2.64l3.26-4.2a35.87,35.87,0,0,0,6,6.24c4.94,4,9.77,5.76,15.32,5.76,9.17,0,13.88-5.28,13.88-15.72,0-14.16-8-28.8-23-42.36l23-21.72ZM161.66,285c-2-20.76-8.08-39.6-15.2-47.4l7-3.6a134.12,134.12,0,0,1,22,39.72,41.71,41.71,0,0,0,1.93,4.92Zm1.93-88.56v14.88h-7.24V196.47Zm14.12,0v14.88h-7.24V196.47Z"/><path class="cls-6" d="M211.26,204.27a26.76,26.76,0,0,0-.6-6h16.53a33.9,33.9,0,0,0-.6,6v31.56c10.62-3.6,17.86-5.64,33.43-9.36a20,20,0,0,0,4.58-1.68l1.69,6.36-1.33.12c-12.79,1.2-37.17,8-52.13,14.76-13.27,5.88-19.31,12.6-19.31,21.36,0,10.92,10.38,15.24,36.81,15.24a253.15,253.15,0,0,0,35-2.16v15.72c-1.81,0-2.3,0-4.11.12h-1.56l-5.32.24c-9.41.36-18.46.6-25.7.6-29.45,0-44.65-8.52-44.65-25.32,0-13.08,8.32-22.44,27.27-30.48Zm48.15-3.6v14.76h-7.24V200.67Zm14.12,0v14.76h-7.24V200.67Z"/><path class="cls-6" d="M282.22,231.15c2.17,0,2.66-.12,7.6-1.44,12.92-3.48,32.59-6.48,42.36-6.48,21.12,0,32.71,10.2,32.71,28.92,0,27-17.5,42.6-54.19,48a39.76,39.76,0,0,0-4.58,1.08l-1.57-4.68c6.27,0,15.69-2.88,23.29-7.2,12.91-7.32,19.31-19.2,19.31-35.76s-7.36-23.88-23.78-23.88c-9.05,0-36.08,4.8-40.18,7.08Zm62.15-11.88c-11.34-7.56-32-15.12-43.93-16l3.5-6.12a27,27,0,0,0,4.35.48c12.79,1,28.6,4,38.13,7.2,1.57.6,2.66,1,5.19,1.8Z"/></g></svg>