<svg id="レイヤー_1" data-name="レイヤー 1" xmlns="http://www.w3.org/2000/svg" viewBox="0 0 500 500"><defs><style>.cls-1,.cls-2{fill:#fff;}.cls-1,.cls-3,.cls-4{stroke:#19448e;stroke-miterlimit:10;stroke-width:10px;}.cls-3{fill:none;}.cls-4,.cls-5{fill:#19448e;}</style></defs><title>s_hop_img01</title><g id="ホップ"><path class="cls-1" d="M245.84,256.91s-69.43,52.8-69.43,117.94,69.43,117.93,69.43,117.93,69.42-52.8,69.42-117.93S245.84,256.91,245.84,256.91Z"/><path class="cls-1" d="M242.52,282.2S177.37,270.55,141,304s-30.2,99.35-30.2,99.35S176,415,212.32,381.55,242.52,282.2,242.52,282.2Z"/><path class="cls-1" d="M249.15,282.2S314.3,270.55,350.68,304s30.2,99.35,30.2,99.35S315.73,415,279.35,381.55,249.15,282.2,249.15,282.2Z"/><path class="cls-1" d="M245.84,149.85s-69.43,52.8-69.43,117.93,69.43,117.94,69.43,117.94,69.42-52.8,69.42-117.94S245.84,149.85,245.84,149.85Z"/><path class="cls-2" d="M241.9,173.83S164.56,160,121.37,199.72s-35.86,118-35.86,118,77.35,13.82,120.54-25.9S241.9,173.83,241.9,173.83Z"/><path class="cls-2" d="M249.77,173.83S327.12,160,370.3,199.72s35.86,118,35.86,118-77.34,13.82-120.53-25.9S249.77,173.83,249.77,173.83Z"/><path class="cls-1" d="M241.9,173.83S164.56,160,121.37,199.72s-35.86,118-35.86,118,77.35,13.82,120.54-25.9S241.9,173.83,241.9,173.83Z"/><path class="cls-1" d="M249.77,173.83S327.12,160,370.3,199.72s35.86,118,35.86,118-77.34,13.82-120.53-25.9S249.77,173.83,249.77,173.83Z"/><path class="cls-3" d="M241.9,173.83S164.56,160,121.37,199.72s-35.86,118-35.86,118,77.35,13.82,120.54-25.9S241.9,173.83,241.9,173.83Z"/><path class="cls-3" d="M249.77,173.83S327.12,160,370.3,199.72s35.86,118,35.86,118-77.34,13.82-120.53-25.9S249.77,173.83,249.77,173.83Z"/><path class="cls-4" d="M246.66,42.78s-69.43,52.8-69.43,117.94,69.43,117.94,69.43,117.94,69.42-52.81,69.42-117.94S246.66,42.78,246.66,42.78Z"/><rect class="cls-1" x="237" y="11" width="20" height="57.13"/><path class="cls-1" d="M241.47,65.35S155.61,50,107.67,94.09,67.86,225,67.86,225s85.87,15.35,133.81-28.74S241.47,65.35,241.47,65.35Z"/><path class="cls-1" d="M250.21,65.35S336.07,50,384,94.09,423.81,225,423.81,225,338,240.38,290,196.29,250.21,65.35,250.21,65.35Z"/><rect class="cls-2" x="110" y="150" width="284" height="150"/><path class="cls-5" d="M117,262.64c5.64-2.28,16.2-27.11,18.35-42.83a36.4,36.4,0,0,0,.73-6.6l16.68,4.68-.73,1.92c-.48,1.08-.84,2.16-1.32,3.36l-.36,1-.12.24c-5.39,15.24-15,29.15-26.15,38.15a16.9,16.9,0,0,0-3.6,3.6Zm46.19-81.35a26.76,26.76,0,0,0-.6-6h16.8a33.9,33.9,0,0,0-.6,6v16.08h34.2a33.9,33.9,0,0,0,6-.6v6a26.76,26.76,0,0,0-6-.6h-34.2v64.91a33.9,33.9,0,0,0,.6,6h-16.8a35.05,35.05,0,0,0,.6-6V202.17H128.23a35.05,35.05,0,0,0-6,.6v-6a33.9,33.9,0,0,0,6,.6h34.91Zm46,83.27c-3.36-16.92-13.56-40.43-19.8-45.71l5.88-4.8a18.42,18.42,0,0,0,3.36,4A132.58,132.58,0,0,1,224,255.68Z"/><path class="cls-5" d="M234.3,238.88c-.12-7.31-7.31-27-10.92-29.87l5-3.48c8.29,9.72,14.4,19.8,17,28.32ZM238.5,267c10.68.48,28.08-11.28,35.52-24,5.52-8.39,10-24.47,10-35.51l14.28,2.28a38.76,38.76,0,0,0-1.08,5.4c-6.48,32.75-21.24,48.23-53,55.55a14.25,14.25,0,0,0-4,1.32Zm18-31.79c-.24-8.64-5.64-25.2-9.72-29.88l5.52-3a13.81,13.81,0,0,0,1.92,2.88c6.24,8.28,12.48,19.8,13.68,25Z"/><path class="cls-5" d="M288.43,185.85a29.13,29.13,0,0,0,5,.48H367a12.91,12.91,0,0,1-2.76-8.16,13.56,13.56,0,1,1,19.56,12.12,15.35,15.35,0,0,1-7,1.32c-3,44.52-25,69.47-69.23,78.35a34.51,34.51,0,0,0-4.57,1.56l-1.8-4.8c11.88-.48,30.36-11.88,39.72-24.47,10.44-13.32,15.6-29,16.8-51.12H293.46a35.15,35.15,0,0,0-6,.6v-6Zm79.67-7.68a9.72,9.72,0,1,0,9.72-9.72A9.84,9.84,0,0,0,368.1,178.17Z"/></g></svg>