<svg id="レイヤー_1" data-name="レイヤー 1" xmlns="http://www.w3.org/2000/svg" viewBox="0 0 500 500"><defs><style>.cls-1{fill:#19448e;}.cls-2,.cls-3{fill:#fff;}.cls-2{stroke:#19448e;stroke-miterlimit:10;stroke-width:10px;}</style></defs><title>s_mountpeach_img01</title><g id="やまもも"><path class="cls-1" d="M122.18,16.26s74.95-3.7,129.69,74.92S320.41,301,320.41,301,194.71,247.71,140,169.09,122.18,16.26,122.18,16.26Z"/><path class="cls-2" d="M465.29,12.53S480.56,86,411.36,152.27,214.72,252.48,214.72,252.48,247.87,120.05,317.06,53.79,465.29,12.53,465.29,12.53Z"/><circle class="cls-2" cx="363.8" cy="263.89" r="121.3"/><circle class="cls-2" cx="136.8" cy="239.89" r="121.3"/><circle class="cls-2" cx="264.81" cy="359.64" r="134.38"/><path class="cls-3" d="M50,191H412.5A61.5,61.5,0,0,1,474,252.5v0A61.5,61.5,0,0,1,412.5,314H91.3A41.3,41.3,0,0,1,50,272.7V191A0,0,0,0,1,50,191Z"/><path class="cls-1" d="M52,241a17.19,17.19,0,0,0,3.74-.36l22-4.92c-1.32-6.12-1.57-7.32-3.86-16.44-.12-.48-.36-1.08-.6-2.28a19.18,19.18,0,0,0-1.45-4.44l15.57-4,.24,1.44a7.56,7.56,0,0,1,.36,1.56l.36,1.32.25,1.08,2.41,10.32.84,3.84,1,4.32,21.48-4.8c8.81-1.92,14.6-2.88,18.34-2.88,16.05,0,26.19,9,26.19,23.52,0,16.8-9.89,26-28.12,26a43.71,43.71,0,0,1-14.6-2,26.5,26.5,0,0,0-4.34-1l1.44-5.16c2.18,1.8,7.37,3,13,3,10.5,0,16.65-7.44,16.65-19.92,0-11.76-6.15-17.4-18.82-17.4-3.38,0-10.62,1.08-16.9,2.52l-13.15,3,2.89,12.36c4.71,20.28,8.69,38.16,10.62,47.28.48,2.52,1,4.32,1.21,5.16L92.86,306c-1.21-8.52-8-39.72-14-65.28L57,245.66a9,9,0,0,0-3.5,1.2Zm70.36-18.48c-8.21-8.16-21-15.6-30-17.28l3.13-6.6a23.46,23.46,0,0,0,4,1.2c9.41,1.8,19.67,5.16,25.82,8.64,1.45.72,2.9,1.44,4.47,2.16Z"/><path class="cls-1" d="M205.57,209.18a26.76,26.76,0,0,0-.6-6h17.14a33.92,33.92,0,0,0-.61,6v11.16h27.64a34.44,34.44,0,0,0,6-.6v6a27.16,27.16,0,0,0-6-.6H221.5v16.32h28.61a34.24,34.24,0,0,0,6-.6v6a27,27,0,0,0-6-.6H221.5V267.5c8.94,2.28,15.81,5,30.9,12.6a15.54,15.54,0,0,0,4.22,1.8l-9.05,14.4c-4.58-4.92-17.86-14.4-26.07-18.72v2.52c0,14.76-9.29,21.84-28.6,21.84-17.25,0-27.39-7.08-27.39-19.08,0-11.64,10.86-19,28.12-19,3.14,0,7.6.24,11.94.6V246.26H171.78a29.16,29.16,0,0,0-6,.6v-6a36.62,36.62,0,0,0,6,.6h33.79V225.14h-32.7a22.45,22.45,0,0,0-6,.72v-6.12a32.09,32.09,0,0,0,6,.6h32.7Zm0,62a56.62,56.62,0,0,0-15.68-2.4c-11.83,0-19.31,5.4-19.31,14s7.48,14,19.19,14c5.55,0,10.25-1.92,12.79-5.28,2.17-2.76,3-6.36,3-12Z"/><path class="cls-1" d="M264.1,224.78a27.1,27.1,0,0,0,6,.48h17.62c.12-3.12.24-4.32.36-6.6,0-1,.24-4.08.6-9.24.12-1.2.12-2.4.12-3.24a9.69,9.69,0,0,0-.36-3l16.9.48c-.61,2-.85,5-1.45,18.6l-.12,3h24.62a37.91,37.91,0,0,0,6-.6v6h-.36l-1.69-.24a28.55,28.55,0,0,0-4-.36H303.57l-.24,3.6-.12,3.24-.37,8.28c-.12,3-.12,3.48-.24,6h27.88a37.7,37.7,0,0,0,6-.6v6a27,27,0,0,0-6-.6H302.36c-.12,1.44-.12,2.52-.12,3l-.12,2.52c-.36,10-.36,10-.36,10.68,0,13.2,8.08,20.16,23.17,20.16,17.62,0,29.08-11.28,29.08-28.56,0-7.44-2.77-17-5.79-19.92l5.07-2.4a25.28,25.28,0,0,0,1.69,4.32c3.62,7.92,5.19,14.52,5.19,21.6,0,22.56-14.12,35.76-38.14,35.76-23.65,0-36.2-10.32-36.2-29.64,0-2.64.36-14.76.48-17.52H267.72a27,27,0,0,0-6,.6v-6l1,.12,1,.12a26,26,0,0,0,4.1.36h18.83c.12-3.12.48-11.4.72-17.4l.25-3.72H270.14a25.78,25.78,0,0,0-4.1.36l-1.57.24h-.37Z"/><path class="cls-1" d="M366.68,224.78a27.1,27.1,0,0,0,6,.48h17.62c.12-3.12.24-4.32.36-6.6,0-1,.24-4.08.6-9.24.12-1.2.12-2.4.12-3.24a9.69,9.69,0,0,0-.36-3l16.9.48c-.61,2-.85,5-1.45,18.6l-.12,3H431a37.91,37.91,0,0,0,6-.6v6h-.36l-1.69-.24a28.55,28.55,0,0,0-4-.36H406.15l-.25,3.6-.12,3.24-.36,8.28c-.12,3-.12,3.48-.24,6h27.88a37.7,37.7,0,0,0,6-.6v6a27,27,0,0,0-6-.6H404.94c-.12,1.44-.12,2.52-.12,3l-.12,2.52c-.37,10-.37,10-.37,10.68,0,13.2,8.09,20.16,23.18,20.16,17.62,0,29.08-11.28,29.08-28.56,0-7.44-2.78-17-5.79-19.92l5.07-2.4a25.28,25.28,0,0,0,1.69,4.32c3.62,7.92,5.19,14.52,5.19,21.6,0,22.56-14.12,35.76-38.14,35.76-23.65,0-36.2-10.32-36.2-29.64,0-2.64.36-14.76.48-17.52H370.3a27,27,0,0,0-6,.6v-6l1,.12,1,.12a26,26,0,0,0,4.1.36h18.83c.12-3.12.48-11.4.72-17.4l.24-3.72H372.72a26,26,0,0,0-4.11.36l-1.57.24h-.36Z"/></g></svg>