<svg id="レイヤー_1" data-name="レイヤー 1" xmlns="http://www.w3.org/2000/svg" viewBox="0 0 500 500"><defs><style>.cls-1,.cls-3{fill:#fff;}.cls-1,.cls-2{stroke:#19448e;stroke-miterlimit:10;stroke-width:10.64px;}.cls-2{fill:none;stroke-linecap:round;}.cls-4{fill:#19448e;}</style></defs><title>s_narutokintoki_img01</title><g id="鳴門金時"><g id="芋本体"><path class="cls-1" d="M386.11,364.9c-94.35,110-306.7,83.6-306.7,83.6S20,243.69,114.37,133.66,421.08,50.07,421.08,50.07,480.46,254.88,386.11,364.9Z"/><line class="cls-2" x1="61.22" y1="298.41" x2="118.97" y2="347.55"/><line class="cls-2" x1="211.53" y1="356.08" x2="291.36" y2="424.01"/><line class="cls-2" x1="189.33" y1="265.49" x2="264.91" y2="329.81"/><line class="cls-2" x1="92.62" y1="164.17" x2="156.31" y2="218.37"/><line class="cls-2" x1="350.09" y1="264.74" x2="414.62" y2="319.66"/><line class="cls-2" x1="314.53" y1="155.47" x2="215.17" y2="70.93"/><line class="cls-2" x1="379.11" y1="90.44" x2="437.7" y2="140.3"/><line class="cls-2" x1="290.91" y1="227.55" x2="219.57" y2="166.85"/><line class="cls-2" x1="288.19" y1="52.58" x2="288.5" y2="13.5"/><line class="cls-2" x1="439.03" y1="207.28" x2="472" y2="223.63"/><line class="cls-2" x1="202.12" y1="447.57" x2="198.31" y2="489.69"/><line class="cls-2" x1="178.5" y1="449.42" x2="162.06" y2="472.01"/><line class="cls-2" x1="62.04" y1="278.62" x2="23.33" y2="239.83"/></g><g id="文字"><rect class="cls-3" x="135" y="136" width="239" height="231" rx="28.04"/><path class="cls-4" d="M177.53,217.14a46.65,46.65,0,0,0,.6,9,68.83,68.83,0,0,0-7.12-.36H151.7a68.38,68.38,0,0,0-9,.36,45,45,0,0,0,.61-9V156.07a47.25,47.25,0,0,0-.61-9,82.87,82.87,0,0,0,9,.36h17.38a65.49,65.49,0,0,0,9-.36,46.65,46.65,0,0,0-.6,9Zm-13.28-64.91h-7.36V221h7.36Zm24,63.71v3.24c.36,5.52.48,10.56.48,18.12l.12,4.68-15.08-3.6,2.53-3.72a80.88,80.88,0,0,0,6.28-16.2l.48-3.48Zm43.81-66.35a65.64,65.64,0,0,0,9-.36,46.65,46.65,0,0,0-.6,9V173.1a46.65,46.65,0,0,0,.6,9,69.12,69.12,0,0,0-7.12-.36H200.34v8.4h42.48a51.24,51.24,0,0,0,7.24-.48v5.76a51.24,51.24,0,0,0-7.24-.48H200.34v9h36.2c1.81,0,7.73-.12,11.59-.36v3.6c0,12.36-.73,22.92-2.17,29.76-1.21,5.64-3.74,8.28-8.21,8.28-3.5,0-8.93-1.32-17.5-4.08l-4.34-1-.73-5.28A75.59,75.59,0,0,0,226.29,236c4.46,0,5.55-1.92,6.27-12.24l-9.41,6.72-.85-3.12a93.12,93.12,0,0,0-5-12l-1.81-2.76,4.11-2.52,1.93,2.28a125.61,125.61,0,0,1,9.65,8.4l1.57,1.32c.24-3.6.49-8.88.49-13.32H192.37a68.1,68.1,0,0,0-7.24.36,55.51,55.51,0,0,0,.61-9.84v-41a47.25,47.25,0,0,0-.61-9,82.87,82.87,0,0,0,9.05.36h7.37l.24-1c.36-2.4.6-4,1.08-9.36L203,135l18.95,3.6-4.46,3.72a70.77,70.77,0,0,1-9.18,7.32ZM198.17,218a124.84,124.84,0,0,1,6.63,14.16l1.81,3.84-13.51,4.08.36-4.44c0-5.28-.24-12-.48-16.56l-.61-3.12,4.71-1.2Zm27.51-63.59H200.34v8.76h25.34ZM200.34,168v9h25.34v-9Zm8.81,47.51a130.4,130.4,0,0,1,9,11.4l2.65,3L208.91,236l-.61-4.2a137.46,137.46,0,0,0-3.74-14l-1.45-2.88,4.59-2Z"/><path class="cls-4" d="M276.25,237.78a47.43,47.43,0,0,0,.6,7.2H259l.12-1.2a37.58,37.58,0,0,0,.48-6V151.51a48.19,48.19,0,0,0-.6-9,82.62,82.62,0,0,0,9.05.36h28.24a65.64,65.64,0,0,0,9.05-.36,46.65,46.65,0,0,0-.6,9v22.31a46.65,46.65,0,0,0,.6,9,68.83,68.83,0,0,0-7.12-.36h-22ZM290,147.67H276.25V160H290Zm-13.75,17.16v12.83H290V164.83Zm45.13,17.63a68.38,68.38,0,0,0-9.05.36,45.84,45.84,0,0,0,.6-9V151.51a48.19,48.19,0,0,0-.6-9,82.74,82.74,0,0,0,9.05.36h30.17a65.57,65.57,0,0,0,9.05-.36,46.65,46.65,0,0,0-.6,9v84.71c0,5.88-2.78,8.88-8.21,8.88-3.86,0-13.75-1.8-21-3.84l-4.94-.72-1.09-6.48a114.14,114.14,0,0,0,15.09,1.08c2.77,0,3.5-.84,3.5-4V182.46Zm6.4-34.79V160h15.57V147.67Zm15.57,17.16H327.78v12.83h15.57Z"/><path class="cls-4" d="M199.5,259.32c9.9,10,26.67,19,45.5,24.24l5.31,1.08-9.54,17.28-4.82-3a125.44,125.44,0,0,1-18-10.8v3.6a51,51,0,0,0-7.24-.48h-8.44v17.64H232.2a51.28,51.28,0,0,0,7.25-.48v5.76a51.28,51.28,0,0,0-7.25-.48H202.28v34.44h37.77a51.24,51.24,0,0,0,7.24-.48v5.76a51.24,51.24,0,0,0-7.24-.48H148.33a53.51,53.51,0,0,0-7.24.48v-5.76a52.31,52.31,0,0,0,7.24.48h37V313.68H156.17a53.61,53.61,0,0,0-7.24.48V308.4a52.4,52.4,0,0,0,7.24.48h29.21V291.24h-8.09a41.21,41.21,0,0,0-7.24.48v-3.24c-6.39,4.2-15.93,8.52-25,11.4l-4,1.8-2.41-4.56,4.1-1.32c15.81-9.72,30.17-25.68,39-43.56l1.33-4.2,19.55,6.36Zm-38.26,60.24a175.34,175.34,0,0,1,16.66,14l3,2.16-19.06,11.16v-3.84l-.37-1.8a146.08,146.08,0,0,0-4.46-18.6l-1.21-2.52,4-2.4Zm49.48-33.12a28.7,28.7,0,0,0,4.71-.24A74,74,0,0,1,196.24,264a91.32,91.32,0,0,1-22.81,22.32,37.76,37.76,0,0,0,3.86.12Zm27.76,38.88-3.14,2.28a146.79,146.79,0,0,1-19.19,16.92L214,346.44l-4.22-3,1.32-1.92a113.84,113.84,0,0,0,7.25-22l.48-3.6Z"/><path class="cls-4" d="M288.32,332.64a46.65,46.65,0,0,0,.6,9,68.83,68.83,0,0,0-7.12-.36H261.17a68.3,68.3,0,0,0-9.05.36,45.91,45.91,0,0,0,.6-9V270.25a48.19,48.19,0,0,0-.6-9,82.62,82.62,0,0,0,9.05.36h18.7a65.49,65.49,0,0,0,9.05-.36,46.65,46.65,0,0,0-.6,9Zm-13.15-34.31V266.41h-8.94v31.92Zm-8.94,4.8v33.35h8.94V303.13Zm66-10.92h20.27a51,51,0,0,0,7.24-.48v5.76a51,51,0,0,0-7.24-.48H345.4v16.44h4.83a49.76,49.76,0,0,0,7.24-.49v5.76a52.6,52.6,0,0,0-7.24-.47H345.4V351c0,6.12-2.77,9.6-7.84,9.6-3.86,0-10.62-1.2-17.38-3.12l-6-1.08-.73-5.28c3.26.36,9.29.72,12.67.72,2.78,0,3.62-.84,3.62-3.72V318.25h-28.6a55.16,55.16,0,0,0-7.24.47V313a51,51,0,0,0,7.24.49h28.6V297H299.18a53.51,53.51,0,0,0-7.24.48v-5.76a52.4,52.4,0,0,0,7.24.48h17.5V274.33H304a53.51,53.51,0,0,0-7.24.48v-5.76a52.31,52.31,0,0,0,7.24.48h12.67v-10.2a38.8,38.8,0,0,0-.6-7.2h16.77a47.43,47.43,0,0,0-.6,7.2v10.2h14.48a51.14,51.14,0,0,0,7.24-.48v5.76a51.14,51.14,0,0,0-7.24-.48H332.25Zm-26.31,31a180.5,180.5,0,0,1,14.6,10.91l3.5,2.28-13.39,10.92-1.09-4a153,153,0,0,0-7.72-16.68L299.91,324l3.86-3.12Z"/></g></g></svg>