<svg id="レイヤー_1" data-name="レイヤー 1" xmlns="http://www.w3.org/2000/svg" viewBox="0 0 500 500"><defs><style>.cls-1,.cls-2{fill:#fff;stroke:#19448e;stroke-width:10px;}.cls-1{stroke-miterlimit:10;}.cls-2{stroke-linecap:round;stroke-linejoin:round;}.cls-3{fill:#19448e;}</style></defs><title>s_plum_img01</title><g id="梅"><path class="cls-1" d="M490,258.27C490,383.49,383,485,251,485S13.32,383.48,12,258.27C10.87,150,30.86,128.54,69.77,92.46,121.33,44.65,205.08,45.63,251,31.55,377.15-7.15,490,133.06,490,258.27Z"/><path class="cls-2" d="M166.05,97c27.35-15.48,44-14.45,54.37-10.15,10.93,4.54,24.92,11.28,24.92,11.28a241.72,241.72,0,0,1,17-24.82c6.14-7.59,17.57-15.75,40.78-18.05"/><path class="cls-3" d="M260.06,77.79c0,8.73-13.89,15.8-22.65,15.8s-15.86.82-15.86-7.9,7.1-16.92,15.86-16.92S260.06,69.07,260.06,77.79Z"/><path class="cls-3" d="M224.71,265.78l-.84-4.32a98.16,98.16,0,0,0-3.36-11.28V306a47.43,47.43,0,0,0,.6,7.2H206.23l.12-1.2a37.58,37.58,0,0,0,.48-6V268.54a146.54,146.54,0,0,1-12,25l-1.32,3-3.84-2,1.8-2.88a285.14,285.14,0,0,0,12-56.16h-4.08a51.5,51.5,0,0,0-7.2.49v-5.76a53.34,53.34,0,0,0,7.2.48h7.44V212.39a38.8,38.8,0,0,0-.6-7.2h14.88a47.43,47.43,0,0,0-.6,7.2v18.24h4.92a52.11,52.11,0,0,0,7.2-.48v5.76a49.23,49.23,0,0,0-7.2-.49h-4.92v8.16c5.88,4.8,8.16,6.84,12.48,10.8l2.76,2.28-7.44,6.12a46.91,46.91,0,0,0,6.84.48H239l.6-10.08c.48-7.68.48-7.68.72-12.72a18,18,0,0,0-1.44,1.8c-1.08,1.2-2.16,2.41-4,4.32l-2.4,3.12-3.84-2.76,2.4-3.12a116.88,116.88,0,0,0,11-35.75l.24-4.08,18.12,3.6-2.52,4c-1,2.28-1.56,3.6-3,6.6h38.4a50.59,50.59,0,0,0,7.2-.48v5.76a50.59,50.59,0,0,0-7.2-.48H252.43a105.92,105.92,0,0,1-7.32,11.27,13.08,13.08,0,0,0,2,.12h35.28c4.8,0,8.28-.12,11.64-.35v25.43l-.12,1.2v2.64h2.76a50.59,50.59,0,0,0,7.2-.48v5.76a50.59,50.59,0,0,0-7.2-.48H294l-.12,7.08c-.12,6.24-.12,6.72-.48,17.76h2.76a50.59,50.59,0,0,0,7.2-.48v5.76a50.59,50.59,0,0,0-7.2-.48H293l-.12,3.48c-.36,4.92-.48,6.12-1.08,8-1,3.36-3.12,5-6.36,5s-10-1.2-15.12-2.52l-6.48-1.08-.48-5.16c3.12.36,8.4.6,11.4.6,3.72,0,3.84-.24,4.32-8.4h-34.2c-4.44,0-5.88.12-9.84.36,1.32-4.56,2.4-13,3.6-30h-3.48a53,53,0,0,0-7.2.48v-5.4Zm27.36,2.28c-.24,5.52-.6,10.2-.72,12.12-.24,4.32-.24,5.16-.36,7.2-.12.48-.24,2.4-.48,5.52h6.84c.84-9.12,1.32-16.68,1.68-24.84Zm7.56-15.36c.24-6.84.24-7,.36-12.24v-1.32h-6.6l-.24,5.53-.12,4.19-.24,4.44-.36,10h6.72Zm12,21.24-.12,2.64-.84,15.36v.48l-.12.48h8.76c.12-3.72.24-5.76.36-6.36.6-8.88.72-14.76.48-16.56a5,5,0,0,1-.12-1.2,2.11,2.11,0,0,1,.12-.72h-8.28Zm8.52-10.68.12-8.16v-16H273l-.12.61V240l-.24,12.36c-.12,2.76-.24,4.68-.36,8.16l-.12,2.76Z"/></g></svg>