<svg id="レイヤー_1" data-name="レイヤー 1" xmlns="http://www.w3.org/2000/svg" viewBox="0 0 500 500"><defs><style>.cls-1{fill:#fff;stroke:#19448e;stroke-miterlimit:10;stroke-width:10px;}.cls-2{fill:#19448e;}</style></defs><title>s_rise_img01</title><g id="米"><path class="cls-1" d="M385.19,250c0,129.79-62.68,235-140,235s-140-105.21-140-235c0-84.2,28.58-48.53,68.23-90,21.46-22.47,1.42-145,71.77-145C322.51,15,385.19,120.21,385.19,250Z"/><path class="cls-2" d="M253.76,318.21a46.42,46.42,0,0,0,.61,7.2H235.3l.12-1.2a37.58,37.58,0,0,0,.48-6V287.73l-.24.24-.6.84c-9.42,12.48-21.85,22-38.14,29l-3.14,1.92-2.53-3.84,3.26-1.92c13.27-9.84,24.38-25.56,31.38-44.16H200.54a53.51,53.51,0,0,0-7.24.48v-5.76a52.4,52.4,0,0,0,7.24.48H235.9V226.42a38.8,38.8,0,0,0-.6-7.2h19.07a46.42,46.42,0,0,0-.61,7.2v38.63h36.09a51.24,51.24,0,0,0,7.24-.48v5.76a51.24,51.24,0,0,0-7.24-.48H256.54c9.89,13.92,19.91,21.84,37.41,29.4l5.07,1.8-11.35,16.68-3.74-3.12c-14.72-11.28-24.86-24.48-30.17-39.36ZM206.7,228.46c6.63,4.92,14.48,11.63,21.72,18.23l3.26,2.64-17.5,11.76L213,257a178.93,178.93,0,0,0-10.26-25.55l-1.44-1.8,4-2.88Zm85.44,8.39-2.9,2.05a118,118,0,0,1-23.77,19.43l-2.66,2.4-3.74-3.48,2.54-2.76a143.24,143.24,0,0,0,11.82-25.55l.73-3.72Z"/></g></svg>