<svg id="レイヤー_1" data-name="レイヤー 1" xmlns="http://www.w3.org/2000/svg" viewBox="0 0 500 500"><defs><style>.cls-1{fill:#fff;stroke:#19448e;stroke-miterlimit:10;}.cls-1,.cls-2{stroke-width:10px;}.cls-2{fill:none;stroke:#fff;}.cls-3{fill:#19448e;}</style></defs><title>s_sudati_img01</title><g id="すだち"><ellipse class="cls-1" cx="253.21" cy="280.5" rx="224.5" ry="200.5"/><path class="cls-1" d="M283,106h-63.5V38.5s18.71-8.5,32.1-8.5c13.07,0,31.4,8.5,31.4,8.5Z"/><path class="cls-2" d="M164.56,242.61a25.51,25.51,0,0,0-.6-6h16.92a33.9,33.9,0,0,0-.6,6v12.6h22.56a33.92,33.92,0,0,0,6-.61v6a26.76,26.76,0,0,0-6-.6H180.28v38.16c.24,23.28-14.88,36.6-46.19,40.68A14.66,14.66,0,0,0,130,340l-1.56-4.92c20.16-.84,35-13.92,36.47-32-3.71,5.64-9.35,8.28-17.27,8.28-13.8,0-22.68-8.28-22.68-21.12,0-12.36,9.24-21.36,22.2-21.36,7.91,0,13.79,2.76,17.87,8.4L164.8,260H112.25a35.05,35.05,0,0,0-6,.6v-6a33.92,33.92,0,0,0,6,.61h52.43Zm-27.11,47.75c0,9.72,5.28,16,13.68,16,8,0,14-6.84,14-16,0-9.6-5.76-16.44-13.8-16.44S137.45,280.76,137.45,290.36Z"/><path class="cls-2" d="M208.49,255.08l1,.13a26.77,26.77,0,0,0,4.08.35H233c2.52-10.43,3.84-16.91,4.44-21.23l16,3.24a26.67,26.67,0,0,0-2,6.6c-1.08,4.67-1.08,5-1.56,7.08a26.25,26.25,0,0,0-1.08,4.31h31.55a37.32,37.32,0,0,0,6-.6v6a26.76,26.76,0,0,0-6-.6H247.61c-6.84,27.84-14.4,53.76-19.68,68.16a55.51,55.51,0,0,0-1.8,6.12l-15.72-4.8c2.76-3.24,12.24-34.2,21.36-69.48H213.53a26.76,26.76,0,0,0-6,.6v-6ZM308,334.64c-4.8.12-7.56.12-10.2.24-3.6.24-16,.48-20.4.48-19.43,0-29.51-6.84-29.51-19.8,0-7.32,3.12-13.08,10.08-18.72a16.63,16.63,0,0,0,3.24-3.36l3.71,3.6c-5.39,3.24-8.75,8.4-8.75,13.56,0,7.68,6.36,10.8,21.83,10.8A279.18,279.18,0,0,0,308,320Zm-43.2-56.28a52.81,52.81,0,0,0-7.19.48v-5.76a51.71,51.71,0,0,0,7.19.48H299a30.24,30.24,0,0,0,5.76-.6v5.4a65.61,65.61,0,0,0-26,9.24l-2.28-3.24c3.24-2.16,4.08-2.64,10.68-6ZM293,235.29V250h-7.2V235.29Zm14.28,0V250H300V235.29Z"/><path class="cls-2" d="M305.81,257.72a33.9,33.9,0,0,0,6,.6h24.36c4-11.64,6-18.59,7-23.51l16.08,4.44c-1,1.44-1.2,1.79-2.4,5.75l-3.12,9.6-.48,1.44-.84,2.28h44.27a33.9,33.9,0,0,0,6-.6v6.12a14,14,0,0,1-1.92-.36,24.5,24.5,0,0,0-4.08-.36H350.69a293.64,293.64,0,0,1-11.4,28.8c8.16-6.6,18.72-10.08,31.2-10.08,21.35,0,34.19,9.24,34.19,24.6,0,10.8-5.16,18.72-15.48,23.88-10.07,5.16-24.59,7.8-41.75,7.68a35.57,35.57,0,0,0-6,.48l-.84-5.4a19,19,0,0,0,5.4.48c12,0,24-3,31.07-7.8s10.2-11.16,10.2-20.16c0-11.88-7.92-19.32-20.51-19.32-11.16,0-22.68,6-30.72,15.84a22.3,22.3,0,0,0-3,5l-14.52-6.36c1.08.12,8.52-17.64,15.84-37.68H311.81a30.94,30.94,0,0,0-6,.72Z"/><path class="cls-3" d="M164.56,242.61a25.51,25.51,0,0,0-.6-6h16.92a33.9,33.9,0,0,0-.6,6v12.6h22.56a33.92,33.92,0,0,0,6-.61v6a26.76,26.76,0,0,0-6-.6H180.28v38.16c.24,23.28-14.88,36.6-46.19,40.68A14.66,14.66,0,0,0,130,340l-1.56-4.92c20.16-.84,35-13.92,36.47-32-3.71,5.64-9.35,8.28-17.27,8.28-13.8,0-22.68-8.28-22.68-21.12,0-12.36,9.24-21.36,22.2-21.36,7.91,0,13.79,2.76,17.87,8.4L164.8,260H112.25a35.05,35.05,0,0,0-6,.6v-6a33.92,33.92,0,0,0,6,.61h52.43Zm-27.11,47.75c0,9.72,5.28,16,13.68,16,8,0,14-6.84,14-16,0-9.6-5.76-16.44-13.8-16.44S137.45,280.76,137.45,290.36Z"/><path class="cls-3" d="M208.49,255.08l1,.13a26.77,26.77,0,0,0,4.08.35H233c2.52-10.43,3.84-16.91,4.44-21.23l16,3.24a26.67,26.67,0,0,0-2,6.6c-1.08,4.67-1.08,5-1.56,7.08a26.25,26.25,0,0,0-1.08,4.31h31.55a37.32,37.32,0,0,0,6-.6v6a26.76,26.76,0,0,0-6-.6H247.61c-6.84,27.84-14.4,53.76-19.68,68.16a55.51,55.51,0,0,0-1.8,6.12l-15.72-4.8c2.76-3.24,12.24-34.2,21.36-69.48H213.53a26.76,26.76,0,0,0-6,.6v-6ZM308,334.64c-4.8.12-7.56.12-10.2.24-3.6.24-16,.48-20.4.48-19.43,0-29.51-6.84-29.51-19.8,0-7.32,3.12-13.08,10.08-18.72a16.63,16.63,0,0,0,3.24-3.36l3.71,3.6c-5.39,3.24-8.75,8.4-8.75,13.56,0,7.68,6.36,10.8,21.83,10.8A279.18,279.18,0,0,0,308,320Zm-43.2-56.28a52.81,52.81,0,0,0-7.19.48v-5.76a51.71,51.71,0,0,0,7.19.48H299a30.24,30.24,0,0,0,5.76-.6v5.4a65.61,65.61,0,0,0-26,9.24l-2.28-3.24c3.24-2.16,4.08-2.64,10.68-6ZM293,235.29V250h-7.2V235.29Zm14.28,0V250H300V235.29Z"/><path class="cls-3" d="M305.81,257.72a33.9,33.9,0,0,0,6,.6h24.36c4-11.64,6-18.59,7-23.51l16.08,4.44c-1,1.44-1.2,1.79-2.4,5.75l-3.12,9.6-.48,1.44-.84,2.28h44.27a33.9,33.9,0,0,0,6-.6v6.12a14,14,0,0,1-1.92-.36,24.5,24.5,0,0,0-4.08-.36H350.69a293.64,293.64,0,0,1-11.4,28.8c8.16-6.6,18.72-10.08,31.2-10.08,21.35,0,34.19,9.24,34.19,24.6,0,10.8-5.16,18.72-15.48,23.88-10.07,5.16-24.59,7.8-41.75,7.68a35.57,35.57,0,0,0-6,.48l-.84-5.4a19,19,0,0,0,5.4.48c12,0,24-3,31.07-7.8s10.2-11.16,10.2-20.16c0-11.88-7.92-19.32-20.51-19.32-11.16,0-22.68,6-30.72,15.84a22.3,22.3,0,0,0-3,5l-14.52-6.36c1.08.12,8.52-17.64,15.84-37.68H311.81a30.94,30.94,0,0,0-6,.72Z"/></g></svg>