<svg id="レイヤー_1" data-name="レイヤー 1" xmlns="http://www.w3.org/2000/svg" viewBox="0 0 500 500"><defs><style>.cls-1,.cls-3{fill:#fff;}.cls-1,.cls-2{stroke:#19448e;stroke-miterlimit:10;stroke-width:10.64px;}.cls-2{fill:none;stroke-linecap:round;}.cls-4{fill:#19448e;}</style></defs><title>s_sweetpotato_img01</title><g id="さつま芋"><g id="芋本体"><path class="cls-1" d="M388.3,362.26c-94.35,110-306.7,83.6-306.7,83.6S22.21,241.05,116.56,131s306.71-83.6,306.71-83.6S482.65,252.24,388.3,362.26Z"/><line class="cls-2" x1="63.41" y1="295.77" x2="121.16" y2="344.91"/><line class="cls-2" x1="213.72" y1="353.45" x2="293.55" y2="421.37"/><line class="cls-2" x1="191.52" y1="262.86" x2="267.1" y2="327.17"/><line class="cls-2" x1="94.81" y1="161.53" x2="158.5" y2="215.73"/><line class="cls-2" x1="352.28" y1="262.11" x2="416.81" y2="317.03"/><line class="cls-2" x1="316.72" y1="152.84" x2="217.36" y2="68.29"/><line class="cls-2" x1="381.3" y1="87.81" x2="439.89" y2="137.67"/><line class="cls-2" x1="293.1" y1="224.92" x2="221.76" y2="164.22"/><line class="cls-2" x1="290.38" y1="49.95" x2="290.69" y2="10.86"/><line class="cls-2" x1="441.22" y1="204.64" x2="474.19" y2="220.99"/><line class="cls-2" x1="204.31" y1="444.93" x2="200.5" y2="487.05"/><line class="cls-2" x1="180.69" y1="446.78" x2="164.25" y2="469.37"/><line class="cls-2" x1="64.23" y1="275.98" x2="25.52" y2="237.19"/></g><g id="文字"><rect class="cls-3" x="202" y="265" width="144" height="125"/><rect class="cls-3" x="106" y="152" width="316" height="128" rx="29.81"/><path class="cls-4" d="M110.49,186a32.09,32.09,0,0,0,6,.6h42.84c-1.93-3.72-2.77-5.52-3.86-7.8-3.74-7.92-4-8.28-6-11.28l14.84-6c.85,2.88,3.74,9.36,11.71,25.08h24.5a34.24,34.24,0,0,0,6-.6v6a27,27,0,0,0-6-.6h-22c4.23,8.76,5.19,10.44,9.42,17.88l4.7,8.4a22.53,22.53,0,0,0,2.05,3l-14.36,7.56c-4.1-9.24-15.81-15-30.29-15s-25,8-25,19.08c0,12.36,10.26,17.88,33.31,17.88a185.76,185.76,0,0,0,24.86-1.56v15.72c-2.41,0-4.22.12-10.74.36-2.66.12-10.74.36-13.64.36-29.08,0-44.77-10.08-44.77-28.8,0-16.68,13.88-27.24,35.84-27.24,9.41,0,17,1.68,23.78,5.28-2.06-3.72-7-13.08-11.95-22.92H116.52a33.14,33.14,0,0,0-6,.6Z"/><path class="cls-4" d="M212.7,188.89a32.31,32.31,0,0,0,7.12-1c22.57-4.2,43.57-7,53.95-7,23.89,0,37.41,11.64,37.41,32.28,0,13.56-6,24-18.34,31.92-11.47,7.44-28,12.12-47.79,13.32a19.52,19.52,0,0,0-5.68.84l-1-5.28a12.85,12.85,0,0,0,2.9.24,75.78,75.78,0,0,0,15.32-2.52c23.9-6,36.57-19.2,36.57-38.16,0-17.64-9.9-26.76-28.84-26.76-7.73,0-24.5,2.4-40.43,5.64a66.64,66.64,0,0,0-9.78,2.64Z"/><path class="cls-4" d="M367.18,171a26.8,26.8,0,0,0-.61-6h17.14a33.9,33.9,0,0,0-.6,6v11.16h27.63a34.44,34.44,0,0,0,6-.6v6a27.16,27.16,0,0,0-6-.6H383.11v16.32h28.6a34.24,34.24,0,0,0,6-.6v6a27,27,0,0,0-6-.6h-28.6v21.24c8.93,2.28,15.81,5,30.89,12.6a15.54,15.54,0,0,0,4.22,1.8l-9.05,14.4c-4.58-4.92-17.86-14.4-26.06-18.72v2.52c0,14.76-9.3,21.84-28.61,21.84-17.25,0-27.39-7.08-27.39-19.08,0-11.64,10.86-19,28.12-19,3.14,0,7.6.24,11.95.6V208.09h-33.8a29.16,29.16,0,0,0-6,.6v-6a36.62,36.62,0,0,0,6,.6h33.8V187H334.47a22.45,22.45,0,0,0-6,.72v-6.12a32.09,32.09,0,0,0,6,.6h32.71Zm0,62a56.69,56.69,0,0,0-15.69-2.4c-11.83,0-19.31,5.4-19.31,14s7.48,14,19.19,14c5.55,0,10.25-1.92,12.79-5.28,2.17-2.76,3-6.36,3-12Z"/><path class="cls-4" d="M280.49,340H317.9a51.24,51.24,0,0,0,7.24-.48v5.76a51.24,51.24,0,0,0-7.24-.48H280.49v27.6c0,6.6-3.38,10.56-8.93,10.56-5.07,0-17-2-24.5-4.08l-5.07-.84-1-5.76a137.7,137.7,0,0,0,17.38,1.32c3.5,0,4.47-1,4.47-4.2v-24.6h-39.1a53.41,53.41,0,0,0-7.24.48v-5.76a52.21,52.21,0,0,0,7.24.48h39.1V318.31H233.18a53.51,53.51,0,0,0-7.24.48V313a52.31,52.31,0,0,0,7.24.48h75.67a51.24,51.24,0,0,0,7.24-.48v5.76a51.24,51.24,0,0,0-7.24-.48H280.49Zm18.22-40.68a47.43,47.43,0,0,0,.6,7.2H281.57l.12-1.2a36.55,36.55,0,0,0,.49-6v-5.16H259.37v5.28a47.43,47.43,0,0,0,.6,7.2H242.23l.12-1.2a37.58,37.58,0,0,0,.48-6v-5.28H224.61a53.51,53.51,0,0,0-7.24.48v-5.76a52.31,52.31,0,0,0,7.24.48h18.22v-7.32a38.8,38.8,0,0,0-.6-7.2H260a47.43,47.43,0,0,0-.6,7.2v7.32h22.81v-7.32a38.17,38.17,0,0,0-.61-7.2h17.74a47.43,47.43,0,0,0-.6,7.2v7.32h18.46a51.28,51.28,0,0,0,7.25-.48v5.76a51.28,51.28,0,0,0-7.25-.48H298.71Z"/></g></g></svg>