<svg id="レイヤー_1" data-name="レイヤー 1" xmlns="http://www.w3.org/2000/svg" viewBox="0 0 500 500"><defs><style>.cls-1{fill:#6e96e8;}.cls-1,.cls-2{stroke:#19448e;stroke-miterlimit:10;stroke-width:10px;}.cls-2{fill:#fff;}.cls-3{fill:#19448e;}</style></defs><title>s_sweet_img01</title><g id="甘"><g id="星"><path class="cls-1" d="M217.9,384.33l-41.12-6-14.4-29.19-4-8.07c-5.73-11.61-15.1-11.61-20.83,0l-18.39,37.26-41.12,6c-12.81,1.87-15.71,10.78-6.44,19.82l6.45,6.29,6.45,6.28h0l16.86,16.43-5.51,32.08-1.52,8.88c-2.19,12.76,5.4,18.27,16.86,12.24L148,467l36.78,19.33c11.45,6,19,.52,16.85-12.24l-1.52-8.88-1.52-8.88h0l-4-23.2,16.85-16.43h0l6.45-6.28,6.45-6.29C233.61,395.11,230.71,386.2,217.9,384.33Z"/><path class="cls-1" d="M162.92,195l-41.12-6-14.41-29.19-4-8.07c-5.73-11.61-15.11-11.61-20.84,0L64.18,189.07l-41.12,6c-12.81,1.86-15.7,10.78-6.43,19.82l6.45,6.28,6.45,6.29h0l16.85,16.43-5.5,32.08-1.52,8.87c-2.19,12.76,5.39,18.27,16.85,12.25L93,277.72l36.78,19.34c11.46,6,19,.51,16.86-12.25l-1.53-8.87-1.52-8.88h0l-4-23.2,16.86-16.43h0l6.45-6.29,6.45-6.28C178.63,205.82,175.73,196.9,162.92,195Z"/><path class="cls-2" d="M319.2,62.68l-41.12-6-14.4-29.19-4-8.08c-5.73-11.6-15.1-11.6-20.83,0L220.47,56.71l-41.12,6c-12.81,1.86-15.71,10.78-6.44,19.81l6.45,6.29,6.45,6.29h0l16.85,16.43-5.5,32.08-1.52,8.87c-2.19,12.76,5.4,18.27,16.85,12.25l36.78-19.34,36.78,19.34c11.46,6,19.05.51,16.86-12.25l-1.52-8.87-1.53-8.88h0l-4-23.2,16.85-16.43h0l6.45-6.29,6.45-6.28C334.91,73.46,332,64.54,319.2,62.68Z"/><path class="cls-2" d="M475.32,195l-41.12-6-14.41-29.19-4-8.07c-5.73-11.61-15.11-11.61-20.84,0l-18.39,37.27-41.12,6c-12.81,1.86-15.7,10.78-6.43,19.82l6.45,6.28,6.45,6.29h0l16.85,16.43-5.5,32.08-1.52,8.87c-2.19,12.76,5.39,18.27,16.85,12.25l36.78-19.34,36.78,19.34c11.46,6,19,.51,16.86-12.25l-1.53-8.87L456,267.06h0l-4-23.2,16.86-16.43h0l6.45-6.29,6.45-6.28C491,205.82,488.13,196.9,475.32,195Z"/><path class="cls-2" d="M419.55,384.33l-41.12-6L364,349.17l-4-8.07c-5.73-11.61-15.11-11.61-20.83,0l-18.39,37.26-41.13,6c-12.81,1.87-15.7,10.78-6.43,19.82l6.45,6.29,6.45,6.28h0L303,433.15l-5.5,32.08L296,474.11c-2.19,12.76,5.39,18.27,16.85,12.24L349.62,467l36.78,19.33c11.46,6,19,.52,16.86-12.24l-1.53-8.88-1.52-8.88h0l-4-23.2,16.86-16.43h0l6.45-6.28,6.45-6.29C435.26,395.11,432.36,386.2,419.55,384.33Z"/></g><path class="cls-3" d="M292.91,323.88a58.32,58.32,0,0,0,.75,11.25,85.24,85.24,0,0,0-8.85-.45H216.56a84.49,84.49,0,0,0-11.25.45,57.38,57.38,0,0,0,.75-11.25V244.54H190.31a66.19,66.19,0,0,0-9,.6v-7.2a64.69,64.69,0,0,0,9,.6h15.75v-20.7a48.49,48.49,0,0,0-.75-9H229a59.29,59.29,0,0,0-.75,9v20.7h42.45v-20.7a48.49,48.49,0,0,0-.75-9h23.7a59.29,59.29,0,0,0-.75,9v20.7h15.75a63.24,63.24,0,0,0,9-.6v7.2a63.24,63.24,0,0,0-9-.6H292.91Zm-22.2-79.34H228.26v36.75h42.45Zm-42.45,42.75v41.39h42.45V287.29Z"/></g></svg>