<svg id="レイヤー_1" data-name="レイヤー 1" xmlns="http://www.w3.org/2000/svg" viewBox="0 0 500 500"><defs><style>.cls-1{fill:#6e96e8;}.cls-1,.cls-2{stroke:#19448e;stroke-miterlimit:10;stroke-width:10px;}.cls-2{fill:#fff;}.cls-3{fill:#19448e;}</style></defs><title>s_verysweet_img01</title><g id="激甘"><g id="星"><path class="cls-1" d="M218.94,383.52l-41.13-6-14.4-29.18-4-8.08c-5.73-11.61-15.11-11.61-20.84,0L120.2,377.54l-41.12,6c-12.81,1.86-15.71,10.78-6.44,19.81l6.45,6.29,6.45,6.29h0l16.86,16.43-5.5,32.07-1.53,8.88c-2.18,12.76,5.4,18.27,16.86,12.25L149,466.2l36.78,19.34c11.46,6,19,.51,16.85-12.25l-1.52-8.88-1.52-8.87h0l-4-23.2,16.85-16.43h0l6.45-6.29,6.45-6.29C234.64,394.3,231.75,385.38,218.94,383.52Z"/><path class="cls-2" d="M164,194.23l-41.12-6-14.4-29.18-4-8.08c-5.73-11.61-15.1-11.61-20.83,0L65.22,188.25l-41.12,6C11.29,196.09,8.39,205,17.66,214l6.45,6.29,6.45,6.29h0l16.85,16.43-5.5,32.07L40.39,284c-2.19,12.76,5.4,18.27,16.85,12.25L94,276.91l36.78,19.34c11.46,6,19,.51,16.86-12.25l-1.52-8.88-1.53-8.87h0l-4-23.2,16.86-16.43h0l6.45-6.29,6.45-6.29C179.66,205,176.76,196.09,164,194.23Z"/><path class="cls-2" d="M320.23,61.87l-41.12-6-14.4-29.18-4-8.08C255,7,245.62,7,239.89,18.63L221.5,55.89l-41.12,6c-12.81,1.86-15.71,10.77-6.44,19.81L180.39,88l6.45,6.28h0l16.86,16.42-5.5,32.08-1.53,8.88c-2.19,12.76,5.4,18.27,16.86,12.25l36.78-19.34,36.78,19.34c11.46,6,19,.51,16.85-12.25l-1.52-8.88-1.52-8.88h0l-4-23.2,16.85-16.43h0L320.22,88l6.45-6.29C335.94,72.64,333.05,63.73,320.23,61.87Z"/><path class="cls-2" d="M476.35,194.23l-41.12-6-14.4-29.18-4-8.08c-5.73-11.61-15.1-11.61-20.83,0l-18.39,37.26-41.12,6c-12.81,1.86-15.71,10.78-6.44,19.81l6.45,6.29,6.45,6.29h0l16.85,16.43-5.5,32.07L352.79,284c-2.19,12.76,5.4,18.27,16.85,12.25l36.78-19.34,36.78,19.34c11.46,6,19.05.51,16.86-12.25l-1.52-8.88L457,266.25h0l-4-23.2,16.86-16.43h0l6.45-6.29,6.45-6.29C492.06,205,489.16,196.09,476.35,194.23Z"/><path class="cls-2" d="M420.58,383.52l-41.12-6-14.4-29.18-4-8.08c-5.73-11.61-15.1-11.61-20.83,0l-18.39,37.26-41.12,6c-12.81,1.86-15.71,10.78-6.44,19.81l6.45,6.29,6.45,6.29h0L304,432.34l-5.5,32.07L297,473.29c-2.19,12.76,5.4,18.27,16.85,12.25l36.78-19.34,36.78,19.34c11.46,6,19.05.51,16.86-12.25l-1.52-8.88-1.53-8.87h0l-4-23.2,16.86-16.43h0l6.45-6.29,6.45-6.29C436.29,394.3,433.39,385.38,420.58,383.52Z"/></g><path class="cls-3" d="M293.94,323.07a58.32,58.32,0,0,0,.75,11.25,85.24,85.24,0,0,0-8.85-.45H217.6a84.49,84.49,0,0,0-11.25.45,57.38,57.38,0,0,0,.75-11.25V243.72H191.35a66.19,66.19,0,0,0-9,.6v-7.2a64.69,64.69,0,0,0,9,.6H207.1V217a48.49,48.49,0,0,0-.75-9H230a59.29,59.29,0,0,0-.75,9v20.7h42.45V217a48.49,48.49,0,0,0-.75-9h23.7a59.29,59.29,0,0,0-.75,9v20.7h15.75a63.24,63.24,0,0,0,9-.6v7.2a63.24,63.24,0,0,0-9-.6H293.94Zm-22.2-79.35H229.29v36.75h42.45Zm-42.45,42.75v41.4h42.45v-41.4Z"/></g></svg>