<svg id="レイヤー_1" data-name="レイヤー 1" xmlns="http://www.w3.org/2000/svg" viewBox="0 0 500 500"><defs><style>.cls-1,.cls-2{fill:#fff;}.cls-1{stroke:#19448e;stroke-miterlimit:10;stroke-width:10px;}.cls-3{fill:#19448e;}</style></defs><title>s_wheat_img01</title><g id="麦"><polygon class="cls-1" points="255.61 215.3 255.61 481 235.61 481 235.61 215 255.61 215.3"/><path class="cls-1" d="M233.19,234.52s91.41,9.18,147.3-45.73S435.61,35.67,435.61,35.67s-91.4-9.18-147.3,45.73S233.19,234.52,233.19,234.52Z"/><path class="cls-1" d="M256.23,234.7s-89.65,7.64-145-44.28S55.61,46.69,55.61,46.69,145.26,39.06,200.66,91,256.23,234.7,256.23,234.7Z"/><path class="cls-1" d="M233.1,365.26s91.41,9.18,147.3-45.73,55.12-153.12,55.12-153.12-91.4-9.18-147.3,45.73S233.1,365.26,233.1,365.26Z"/><path class="cls-1" d="M256.14,365.44s-89.65,7.64-145-44.28S55.52,177.43,55.52,177.43s89.65-7.63,145,44.28S256.14,365.44,256.14,365.44Z"/><rect class="cls-2" x="184" y="168.5" width="120" height="150"/><path class="cls-3" d="M200.91,238.42a53,53,0,0,0-7.2.48v-5.75a53.34,53.34,0,0,0,7.2.48h35.88V221.51H213.51a53,53,0,0,0-7.2.48v-5.76a51.75,51.75,0,0,0,7.2.48h23.28V205.79H206.91a53,53,0,0,0-7.2.48v-5.76a51.75,51.75,0,0,0,7.2.48h29.88v-6.6a38.8,38.8,0,0,0-.6-7.2h18.72a47.43,47.43,0,0,0-.6,7.2V201h30.6a50.59,50.59,0,0,0,7.2-.48v5.76a50.59,50.59,0,0,0-7.2-.48h-30.6v10.92h24a50.59,50.59,0,0,0,7.2-.48V222a50.59,50.59,0,0,0-7.2-.48h-24v12.12h36.6a52.11,52.11,0,0,0,7.2-.48v5.75a50.59,50.59,0,0,0-7.2-.48H250.47A85.69,85.69,0,0,1,240,248.86h31.8c8.64,0,9.6,0,12.36-.36v3.72c-7.2,10.68-12.24,16-21.36,22.56,8.52,2.16,18.12,3.48,30.72,4.2h6.72l-7.8,16.56-6.24-1.44c-15-2.88-25.8-6.6-35.52-12.24-13.08,6.36-28.92,10.68-50,13.68l-4.32,1.08-2.16-5.16,5.64-.6c16.92-4.2,28.68-9.12,40.08-16.56a81.2,81.2,0,0,1-13.8-15.36,148.62,148.62,0,0,1-25.68,12l-2.4,1.44-2.52-4.56,3.24-1.08c12.36-7.32,23.88-18,30.36-28.32Zm33,15.24a37.85,37.85,0,0,1-3.24,2.28,61.36,61.36,0,0,0,16.56,13,77.44,77.44,0,0,0,14.52-15.24Z"/></g></svg>