<?xml version="1.0" encoding="utf-8"?>
<!-- Generator: Adobe Illustrator 24.0.1, SVG Export Plug-In . SVG Version: 6.00 Build 0)  -->
<svg version="1.1" id="ロゴ四角" xmlns="http://www.w3.org/2000/svg" xmlns:xlink="http://www.w3.org/1999/xlink" x="0px"
	 y="0px" viewBox="0 0 362.3 365.8" style="enable-background:new 0 0 362.3 365.8;" xml:space="preserve">
<style type="text/css">
	.st0{fill:none;stroke:#FFFFFF;stroke-width:0.8;stroke-miterlimit:10;}
	.st1{fill:none;stroke:#FFFFFF;stroke-width:2.39;stroke-miterlimit:10;}
	.st2{fill:none;stroke:#FFFFFF;stroke-width:1.2;stroke-miterlimit:10;}
	.st3{fill:none;stroke:#FFFFFF;stroke-width:0.66;stroke-miterlimit:10;}
	.st4{fill:#FFFFFF;stroke:#FFFFFF;stroke-width:0.8;stroke-miterlimit:10;}
	.st5{fill:#FFFFFF;stroke:#FFFFFF;stroke-width:0.81;stroke-miterlimit:10;}
	.st6{fill:#FFFFFF;stroke:#FFFFFF;stroke-width:1.21;stroke-miterlimit:10;}
	.st7{fill:#FFFFFF;stroke:#FFFFFF;stroke-width:1.21;stroke-linecap:round;stroke-miterlimit:10;}
	.st8{fill:#FFFFFF;stroke:#FFFFFF;stroke-width:0.36;stroke-miterlimit:10;}
	.st9{fill:none;stroke:#FFFFFF;stroke-width:0.85;stroke-miterlimit:10;}
	.st10{fill:#FFFFFF;stroke:#FFFFFF;stroke-width:0.85;stroke-miterlimit:10;}
	.st11{fill:#231815;stroke:#FFFFFF;stroke-width:0.62;stroke-miterlimit:10;}
	.st12{fill:none;stroke:#FFFFFF;stroke-width:0.82;stroke-miterlimit:10;}
	.st13{fill:none;stroke:#FFFFFF;stroke-width:0.84;stroke-miterlimit:10;}
	.st14{fill:#231815;stroke:#FFFFFF;stroke-width:0.8;stroke-miterlimit:10;}
	.st15{fill:none;stroke:#FFFFFF;stroke-width:0.77;stroke-miterlimit:10;}
	.st16{fill:none;stroke:#FFFFFF;stroke-width:0.79;stroke-miterlimit:10;}
	.st17{fill:#FFFFFF;stroke:#FFFFFF;stroke-width:0.2;stroke-miterlimit:10;}
	.st18{fill:none;stroke:#FFFFFF;stroke-width:1.04;stroke-miterlimit:10;}
	.st19{fill:none;stroke:#FFFFFF;stroke-width:0.89;stroke-miterlimit:10;}
	.st20{fill:none;stroke:#FFFFFF;stroke-width:0.8;stroke-linecap:round;stroke-miterlimit:10;}
	.st21{enable-background:new    ;}
	.st22{fill:#FFFFFF;}
	.st23{fill:none;stroke:#FFFFFF;stroke-width:1.48;}
	.st24{fill:none;stroke:#FFFFFF;stroke-width:1.67;stroke-miterlimit:10;}
	.st25{fill:none;stroke:#FFFFFF;stroke-width:1.34;stroke-miterlimit:10;}
	.st26{fill:none;stroke:#FFFFFF;stroke-width:1.66;stroke-miterlimit:10;}
	.st27{fill:none;stroke:#FFFFFF;stroke-miterlimit:10;}
	.st28{fill:none;stroke:#FFFFFF;stroke-width:1.4;stroke-miterlimit:10;}
	.st29{fill:none;stroke:#FFFFFF;stroke-width:0.86;stroke-miterlimit:10;}
</style>
<path class="st0" d="M146,185.2"/>
<path class="st0" d="M323.8,178.8c-3.6,0-4.7,0-5.3,0C317.2,178.8,323,178.8,323.8,178.8c-23.1,0.3-45.4,0.2-68.2,0.2
	c-3.8-0.1-7.1,2.9-7.3,6.7c0,2.7,1.5,5.2,4,6.3c12,4,25,1,38,3c3,1,6,4,5,8c-0.1,1.1-0.9,1.9-2,2c-21,3-41,0-61.6,0.8"/>
<path class="st0" d="M224.3,58.1"/>
<path class="st0" d="M131.4,55.5"/>
<path class="st0" d="M54.7,103.7"/>
<path class="st1" d="M172.5,26.6"/>
<path class="st1" d="M225.1,34.8"/>
<path class="st1" d="M123.9,33.7C93.6,43.2,62.8,62.1,42,86.1c-42.4,48.9-52.8,118-26.5,177.2C27.7,290.7,47,314.4,71.3,332
	c77.2,55.8,185,38.5,240.9-38.7c0.8-1.2,1.7-2.3,2.5-3.5c36.5-53.5,38.9-123.3,6-179.1c-16.3-27.4-39.9-49.8-68.2-64.6
	c-6.7-3.6-13.6-6.6-20.7-9.1"/>
<g id="稲">
	<path class="st2" d="M30.1,257.9c0,0,38.1,85.6,134.3,88.7"/>
	<path class="st0" d="M33.6,239.3c-2.9-0.7-6.3,2.8-7.5,7.9s0.1,9.8,3,10.5s6.3-2.8,7.5-7.9S36.5,240.1,33.6,239.3z"/>
	<path class="st0" d="M26.7,243.9c-0.2-0.3-0.4-0.6-0.6-0.9c-3.1-4.3-7.5-6.3-10-4.6s-1.9,6.6,1.1,10.9c2.8,3.9,6.7,5.9,9.2,5"/>
	<path class="st0" d="M26.2,224.2c-1.6-5-5.4-9-8.3-8c-2.5,0.8-3.8,3-3,7.3"/>
	<path class="st0" d="M27.9,223.9c-3-0.1-5.5,4.1-5.6,9.4s2.5,9.6,5.3,9.6c0.5,0,2.1-2.6,3.5-3.1c0,0,2-3.7,2.1-6.3
		C33.2,228.2,30.9,223.9,27.9,223.9z"/>
	<path class="st3" d="M23,228.7c-0.3-0.4-0.6-0.8-1-1.2c-3.6-3.8-8.3-5.2-10.5-3.2s-1,6.8,2.6,10.6c1.1,1.2,2.4,2.3,3.9,3"/>
	<path class="st4" d="M67.4,307.2c-14.6-3.3-29.8-3.3-44.4,0c10-11.4,27.8-13.2,45.2,0.6"/>
	<path class="st5" d="M92.1,325.6c0,0-15.9-30.3,2.1-45.6C93,289.6,92.6,310.1,92.1,325.6"/>
	<path class="st2" d="M310.7,258.7c0,0-36,82.7-129.9,87.8"/>
	<path class="st0" d="M314.7,248.1c-0.1-1.5-4.6-8.8-7.5-7.9s-4.3,5.4-3,10.5s4.6,8.6,7.5,7.9S315.2,253.3,314.7,248.1z"/>
	<path class="st0" d="M314.1,245.8"/>
	<path class="st0" d="M314.7,255.3c2.5,1.6,5.8-1,8.8-5.2s3.5-9.1,1.1-10.9s-7.7,2.2-11.3,6"/>
	<path class="st0" d="M312.7,253.6"/>
	<path class="st0" d="M325.9,223.9c0.2-3.4-0.9-6.2-3-6.9c-2.9-0.9-6.6,2.9-8.2,7.9"/>
	<path class="st0" d="M312.9,224.7c-3,0.1-5.4,4.4-5.3,9.6s3.5,8,5.4,10c0.8,0.8,1.6-0.4,2.6-1.5c1.9-2.5,2.9-5.6,2.9-8.7
		C318.3,228.9,315.9,224.6,312.9,224.7z"/>
	<path class="st0" d="M317.5,239c2.4,1,6.4-0.5,9.5-3.8c3.6-3.8,4.8-8.6,2.6-10.6s-6.9-0.6-10.5,3.2c-0.6,0.6-1.1,1.3-1.6,2
		 M322.1,228.3v-1.4"/>
	<path class="st4" d="M273.4,308.1c0,0,32.8-8.6,44.4,0c-7.1-17.5-34-7.7-45.2,0.6"/>
	<path class="st4" d="M249.5,325.7c0,0,19.4-35.8-3-44.9c5.3,9.7,8,19.9,2.7,45.1"/>
	<path class="st6" d="M190.4,286.4c-8.7,2.2-17.8,2-26.4-0.5l0.7,13.9c0,0-2.4,9.2-6.2,8.8c-3.7,2.4-15,21.3,5.5,47.3h26.4"/>
	<path class="st6" d="M165.6,286.4c8.7,2.2,17.8,2,26.4-0.5l-0.7,13.9c0,0,2.4,9.2,6.2,8.8c3.7,2.4,15,21.3-5.5,47.3h-26.4"/>
	<path class="st7" d="M192.1,284.9c0,0-15.7-4.9-28.2,0.2"/>
</g>
<g id="ウズ">
	<path class="st8" d="M29.5,177.1"/>
	<path class="st9" d="M60.9,191.1c-0.3-0.7,1-24.7,37.1-24.8c12.5,0,20.7,3.1,26,7.2"/>
	<path class="st9" d="M65.7,191.8c0,0,1.1-21.2,32.4-22c13.3-0.3,20.9,3.4,25.2,8"/>
	<path class="st9" d="M70.9,192.2c0,0,0.4-19,27-19s26.4,19,26.4,19"/>
	<path class="st9" d="M76.2,192.2c0,0,0.4-15.3,21.6-15.3s21.1,15.3,21.1,15.3"/>
	<path class="st10" d="M81.3,191.8c0,0,0.3-10.1,16.5-10.1s16.1,10.1,16.1,10.1"/>
	<path class="st9" d="M25.1,189.9c0,0,4.6-23.5,33.8-26.1c17.6-1.6,23.1,4.8,23.1,4.8"/>
	<path class="st9" d="M88.2,167.1c0,0-8.6-9.4-29.8-7.5c-33.6,2.9-36.1,25.1-36.1,25.1"/>
	<path class="st9" d="M30.1,190.1c0,0,4-19.9,28.8-22.6c14.7-1.6,18.1,2.9,18.1,2.9"/>
	<path class="st9" d="M36.2,189.9c0,0,2.8-14.8,22.7-17.6c8.2-1.1,12.8,1.2,12.8,1.2"/>
	<path class="st11" d="M46.1,195.6"/>
	<path class="st4" d="M65.7,178.1c0,0-15.7-3.9-22.3,12.3c1,0,17.2,0.5,17.2,0.5S60.9,181.5,65.7,178.1z"/>
	<path class="st10" d="M79.7,161.8c0,0,6.6,2.1,8.2,4.8c2.3-0.3,13.9-0.8,16.4-0.3C100.8,158.8,86.4,156.7,79.7,161.8z"/>
	<path class="st12" d="M69.9,159.3c0,0,8-10,26.6-7.6c16.9,2.1,19.1,17.3,19.1,17.3"/>
	<path class="st13" d="M63.3,159.3c0,0,9.5-14.7,34.3-11.7c24.2,2.9,24.3,24.4,24.3,24.4"/>
	<path class="st14" d="M261.9,290"/>
	<path class="st0" d="M271.1,266.3c0,0,0.3-24.8-31.4-25c-2.7-0.1-5.3,0.1-7.9,0.6"/>
	<path class="st0" d="M266.4,267.1c0,0,0.7-22.4-26.7-22.4c-2.7-0.1-5.4,0.1-8,0.7"/>
	<path class="st0" d="M262.2,267.1c0,0,0.9-19-22.4-19c-2.7-0.1-5.5,0.2-8.1,0.9"/>
	<path class="st0" d="M257.6,267.1c0-3.6-1.4-7.1-3.7-9.8c-4-4.4-9.9-4.8-14.3-5.2c-2.5-0.2-5-0.1-7.5,0.2"/>
	<path class="st4" d="M231.7,257.7c2-0.9,3.5-1.1,7-1.1c14.2,0,14.5,10.1,14.5,10.1l-21.4-0.4L231.7,257.7"/>
	<path class="st0" d="M303,263.9c0,0-4.6-22.7-30.2-25.2c-14.3-1.4-20,4.4-20,4.4"/>
	<path class="st0" d="M247.1,242c0,0,7.5-9.4,26.1-7.5c29.5,2.9,34,28.8,34,28.8"/>
	<path class="st0" d="M298,265.1c0,0-3.5-20-25.2-22.6c-10.8-1.3-15.2,2.6-15.2,2.6"/>
	<path class="st0" d="M293.3,265.8c-2.4-9.8-10.6-17.2-20.6-18.5c-7.1-1.1-10.5,0.9-10.5,0.9"/>
	<path class="st4" d="M266.9,253c0,0,16.5-4,21.6,12.6c-1,0-17.5,0.6-17.5,0.6S272.2,260,266.9,253z"/>
	<path class="st4" d="M254.1,237c0,0-5.1,2.3-6.5,5c-2-0.3-11-1.1-13.2-0.6C239.4,235.4,247.7,234.5,254.1,237z"/>
	<path class="st15" d="M265.5,234.3c0,0-7.4-10.2-24.6-6.6c-3.4,0.5-6.5,2-9.2,4.2"/>
	<path class="st16" d="M270.4,234.3c0,0-7-13.9-29.3-10.5c-4.1,0.6-6.6,1.3-9.4,3.1"/>
	<path class="st9" d="M74.8,160.5c6.7-5,15.5-6.5,23.5-4c3.3,0.8,8.4,3.4,11.1,10.8"/>
	<path class="st14" d="M123.9,268.7"/>
	<path class="st0" d="M231.7,238c2.3-2.9,5.8-5.6,12.5-6.4c11.6-1.3,15.3,3.7,15.3,3.7"/>
	<path class="st17" d="M274.2,178.8l-13.9-0.2c0,0-14.5-0.6-12.6,9.3c1.4,7.3,12.2,6.9,12.2,6.9l10.6-0.2c0,0-9.6-0.9-10.3-6.2
		c0-2.2-1.9-9.3,16.6-9.3"/>
	<path class="st18" d="M32,227.4l51.7-0.9c0,0,10.9-0.6,10.7,6.5c0,6.5-8.2,6.6-8.2,6.6l-54.1-0.6"/>
	<path class="st5" d="M50.7,227.1l32.7-0.8c0,0,10.8-0.4,11.1,7.3c-2.2,7.6-10.9,6.1-11.3,6c0,0-0.5,0,0-0.4H51.3
		c0,0,17.5-0.1,27.2-2.1c3.3-0.7,5.4-6,0.3-8.4C74.6,226.9,70.1,227.2,50.7,227.1z"/>
	<path class="st19" d="M123.8,196.9H99.9c0,0-9.5-0.5-9.5,6.6s8.8,6.6,8.8,6.6h25.1"/>
</g>
<g id="シカク">
	<line class="st15" x1="273.6" y1="82.7" x2="273.6" y2="118.5"/>
	<line class="st15" x1="70.8" y1="84.7" x2="71.2" y2="118.6"/>
	<path class="st15" d="M231.7,118.4c24.1,0,47.6,0.2,71.7,0.1"/>
	<path class="st15" d="M130.9,118.6"/>
	<path class="st15" d="M43.3,118.6c27.4,0.1,54.1,0.1,80.7,0"/>
	<path class="st15" d="M232.1,86.5c0.1,4.5-0.4,25.3-0.4,32l20.7,0.1V86.5H232.1z"/>
	<polygon class="st15" points="123.9,86.5 89.4,86.5 89.4,118.6 124,118.6 	"/>
	<path class="st0" d="M124,59.9h-6.9v38.4h6.9C124,96,123.9,70.3,124,59.9z"/>
	<path class="st0" d="M130.9,98.3"/>
	<path class="st0" d="M130.1,62.9"/>
	<path class="st0" d="M130.1,59.9"/>
	<path class="st0" d="M231.7,76.7c11.4,0,23.4,0,34.5-0.1"/>
	<path class="st20" d="M123.9,76.8c-15.1-0.1-28.9-0.1-43.8,0"/>
	<path class="st20" d="M135.7,76.7"/>
	<path class="st20" d="M136.4,54.7"/>
	<path class="st0" d="M238.8,61.9h-6.9v38.4h6.9C238.8,98,238.7,72.4,238.8,61.9z"/>
</g>
<path class="st15" d="M172.5,118.6"/>
<path class="st15" d="M172.5,50"/>
<g class="st21">
	<path class="st22" d="M154.3,63.1V31.7c0-1.3,1.5-2.4,3.4-2.4c1.7,0,3.1,0.9,3.4,1.9h3.6c0.3-1.1,1.7-1.9,3.4-1.9
		c1.9,0,3.4,1.1,3.4,2.4v11.4c0,0.4-0.4,0.6-0.9,0.6h-4.8l-4.7,3.1v12.9h3.5V48.4c0-1.3,1.5-2.4,3.4-2.4s3.4,1.1,3.4,2.4v11.9
		c0,0.4-0.4,0.6-0.9,0.6h-9.4v2.2c0,0.4-0.4,0.6-0.9,0.6h-5.1C154.7,63.7,154.3,63.5,154.3,63.1z M161.1,45.1l3.5-2.4V32.5h-3.5
		V45.1z M173.4,31.8c0-0.3,0.4-0.6,0.9-0.6h27.6c0.5,0,0.9,0.3,0.9,0.6c0,0.4-0.4,0.6-0.9,0.6h-2.1v30.7c0,0.4-0.4,0.6-0.9,0.6
		h-16.9c-0.5,0-0.9-0.3-0.9-0.7c0-0.3,0.4-0.6,0.9-0.6H193v-30h-18.7C173.8,32.5,173.4,32.2,173.4,31.8z M189.4,55h-14.7
		c-0.5,0-0.9-0.3-0.9-0.6V40.5c0-1.3,1.5-2.3,3.3-2.3c1.5,0,2.8,0.7,3.2,1.7h3.5c0.4-0.9,1.7-1.7,3.2-1.7c1.8,0,3.3,1,3.3,2.3v13.9
		C190.2,54.7,189.8,55,189.4,55z M183.6,41.1h-3.2v12.7h3.2V41.1z"/>
	<path class="st22" d="M153.6,104.8l5.2-5.3v-7.7c0-1.4,1.6-2.5,3.5-2.5c1.9,0,3.5,1.1,3.5,2.5v7.9c0,0.4-0.4,0.6-0.9,0.6h-4.8
		l-5.1,5.2c-0.3,0.2-0.8,0.3-1.2,0.1C153.4,105.5,153.4,105.1,153.6,104.8z M161.3,74.4c0,0,0,0.2,0,0.5c2,0,4.2,0,4.2,0
		c0.5,0,0.9,0.2,0.9,0.6c0,0.3-0.4,0.6-0.9,0.6h-10.9c-0.5,0-0.9-0.3-0.9-0.6v-1.1c0-1.4,1.7-2.6,3.8-2.6S161.3,73,161.3,74.4z
		 M153.7,82.7c0-1.4,1.7-2.6,3.8-2.6s3.8,1.2,3.8,2.6c0,0,0,0.2,0,0.5c2,0,4.2,0,4.2,0c0.5,0,0.9,0.3,0.9,0.6s-0.4,0.6-0.9,0.6
		h-10.9c-0.5,0-0.9-0.3-0.9-0.6V82.7z M165.9,103.7l3.2-3.3V75.3c0-1.4,1.6-2.5,3.5-2.5c1.7,0,3.1,0.8,3.5,1.9h6.8v-2.3
		c0-1.4,1.6-2.5,3.5-2.5c1.9,0,3.5,1.1,3.5,2.5v2.3h4.9c0.2-1.2,1.7-2.2,3.5-2.2c1.9,0,3.5,1.1,3.5,2.5v6c0,0.3-0.4,0.6-0.9,0.6
		h-5.3c-0.5,0-0.9-0.3-0.9-0.6v-5h-4.8v8.8h4.9c0.3-1.2,1.7-2,3.5-2c1.9,0,3.5,1.1,3.5,2.5v7.9c0,0.3-0.4,0.6-0.9,0.6H196l-6.3,3.5
		l12.6,7.1c0.4,0.2,0.4,0.6,0.1,0.9c-0.3,0.3-0.9,0.3-1.2,0.1l-12.9-7.3l-12.9,7.3c-0.4,0.2-0.9,0.2-1.2-0.1
		c-0.4-0.2-0.3-0.6,0.1-0.9l12.6-7.1l-8.7-4.9c-0.4-0.2-0.4-0.6-0.1-0.9c0.3-0.3,0.9-0.3,1.2-0.1l9,5.1l6.5-3.7v-6.8h-18.7v14.5
		c0,0.3-0.4,0.6-0.9,0.6h-4.9l-3.1,3.1c-0.3,0.2-0.8,0.3-1.2,0.1C165.7,104.3,165.6,103.9,165.9,103.7z M176.2,84.9h6.8V76h-6.8
		V84.9z"/>
	<path class="st22" d="M171,129.3c0,0.3-0.4,0.6-0.9,0.6h-5.4c-0.5,0-0.9-0.3-0.9-0.6V119c0-1.4,1.7-2.5,3.6-2.5
		c2,0,3.6,1.1,3.6,2.5V129.3z M201.3,118.8V135c0,0.3-0.4,0.6-0.9,0.6h-5.3l-22.9,8.4c-0.4,0.2-0.9,0-1.2-0.2
		c-0.2-0.3-0.1-0.7,0.4-0.8l22.8-8.3v-15.8c0-1.4,1.7-2.5,3.6-2.5C199.7,116.2,201.3,117.3,201.3,118.8z M179,129.9
		c-0.5,0-0.9-0.3-0.9-0.6V119c0-1.4,1.6-2.5,3.6-2.5c1.9,0,3.6,1.1,3.6,2.5v10.3c0,0.3-0.4,0.6-0.9,0.6H179z"/>
	<path class="st22" d="M157.6,157.3c0-0.3,0.4-0.6,0.9-0.6h18.7c0.5,0,0.9,0.3,0.9,0.6c0,0.4-0.4,0.6-0.9,0.6h-18.7
		C158,157.9,157.6,157.6,157.6,157.3z M157.6,167.5c0-0.3,0.4-0.6,0.9-0.6h18.7c0.5,0,0.9,0.3,0.9,0.6s-0.4,0.6-0.9,0.6h-18.7
		C158,168.1,157.6,167.8,157.6,167.5z M158.8,187l31.4-7.2v-16.3c0-1.5,1.7-2.7,3.8-2.7s3.8,1.2,3.8,2.7v16.8c0,0.3-0.4,0.6-0.9,0.6
		h-5.9c-0.1,0-0.2,0-0.2,0l-31.4,7.2c-0.5,0.1-1-0.1-1.1-0.4C158.1,187.5,158.3,187.1,158.8,187z"/>
	<path class="st22" d="M201.9,224.2c0,0.3-0.4,0.6-0.9,0.6h-37.9c-0.5,0-0.9-0.3-0.9-0.6c0-0.4,0.4-0.6,0.9-0.6h27.5v-21.4h-25.9
		c-0.5,0-0.9-0.3-0.9-0.6c0-0.4,0.4-0.6,0.9-0.6h26.1c0.4-1.2,1.8-2,3.5-2c2,0,3.6,1.1,3.6,2.5v22.1h3.1
		C201.5,223.5,201.9,223.8,201.9,224.2z"/>
</g>
<g class="st21">
	<path class="st23" d="M154.3,63.1V31.7c0-1.3,1.5-2.4,3.4-2.4c1.7,0,3.1,0.9,3.4,1.9h3.6c0.3-1.1,1.7-1.9,3.4-1.9
		c1.9,0,3.4,1.1,3.4,2.4v11.4c0,0.4-0.4,0.6-0.9,0.6h-4.8l-4.7,3.1v12.9h3.5V48.4c0-1.3,1.5-2.4,3.4-2.4s3.4,1.1,3.4,2.4v11.9
		c0,0.4-0.4,0.6-0.9,0.6h-9.4v2.2c0,0.4-0.4,0.6-0.9,0.6h-5.1C154.7,63.7,154.3,63.5,154.3,63.1z M161.1,45.1l3.5-2.4V32.5h-3.5
		V45.1z M173.4,31.8c0-0.3,0.4-0.6,0.9-0.6h27.6c0.5,0,0.9,0.3,0.9,0.6c0,0.4-0.4,0.6-0.9,0.6h-2.1v30.7c0,0.4-0.4,0.6-0.9,0.6
		h-16.9c-0.5,0-0.9-0.3-0.9-0.7c0-0.3,0.4-0.6,0.9-0.6H193v-30h-18.7C173.8,32.5,173.4,32.2,173.4,31.8z M189.4,55h-14.7
		c-0.5,0-0.9-0.3-0.9-0.6V40.5c0-1.3,1.5-2.3,3.3-2.3c1.5,0,2.8,0.7,3.2,1.7h3.5c0.4-0.9,1.7-1.7,3.2-1.7c1.8,0,3.3,1,3.3,2.3v13.9
		C190.2,54.7,189.8,55,189.4,55z M183.6,41.1h-3.2v12.7h3.2V41.1z"/>
	<path class="st23" d="M153.6,104.8l5.2-5.3v-7.7c0-1.4,1.6-2.5,3.5-2.5c1.9,0,3.5,1.1,3.5,2.5v7.9c0,0.4-0.4,0.6-0.9,0.6h-4.8
		l-5.1,5.2c-0.3,0.2-0.8,0.3-1.2,0.1C153.4,105.5,153.4,105.1,153.6,104.8z M161.3,74.4c0,0,0,0.2,0,0.5c2,0,4.2,0,4.2,0
		c0.5,0,0.9,0.2,0.9,0.6c0,0.3-0.4,0.6-0.9,0.6h-10.9c-0.5,0-0.9-0.3-0.9-0.6v-1.1c0-1.4,1.7-2.6,3.8-2.6S161.3,73,161.3,74.4z
		 M153.7,82.7c0-1.4,1.7-2.6,3.8-2.6s3.8,1.2,3.8,2.6c0,0,0,0.2,0,0.5c2,0,4.2,0,4.2,0c0.5,0,0.9,0.3,0.9,0.6s-0.4,0.6-0.9,0.6
		h-10.9c-0.5,0-0.9-0.3-0.9-0.6V82.7z M165.9,103.7l3.2-3.3V75.3c0-1.4,1.6-2.5,3.5-2.5c1.7,0,3.1,0.8,3.5,1.9h6.8v-2.3
		c0-1.4,1.6-2.5,3.5-2.5c1.9,0,3.5,1.1,3.5,2.5v2.3h4.9c0.2-1.2,1.7-2.2,3.5-2.2c1.9,0,3.5,1.1,3.5,2.5v6c0,0.3-0.4,0.6-0.9,0.6
		h-5.3c-0.5,0-0.9-0.3-0.9-0.6v-5h-4.8v8.8h4.9c0.3-1.2,1.7-2,3.5-2c1.9,0,3.5,1.1,3.5,2.5v7.9c0,0.3-0.4,0.6-0.9,0.6H196l-6.3,3.5
		l12.6,7.1c0.4,0.2,0.4,0.6,0.1,0.9c-0.3,0.3-0.9,0.3-1.2,0.1l-12.9-7.3l-12.9,7.3c-0.4,0.2-0.9,0.2-1.2-0.1
		c-0.4-0.2-0.3-0.6,0.1-0.9l12.6-7.1l-8.7-4.9c-0.4-0.2-0.4-0.6-0.1-0.9c0.3-0.3,0.9-0.3,1.2-0.1l9,5.1l6.5-3.7v-6.8h-18.7v14.5
		c0,0.3-0.4,0.6-0.9,0.6h-4.9l-3.1,3.1c-0.3,0.2-0.8,0.3-1.2,0.1C165.7,104.3,165.6,103.9,165.9,103.7z M176.2,84.9h6.8V76h-6.8
		V84.9z"/>
	<path class="st23" d="M171,129.3c0,0.3-0.4,0.6-0.9,0.6h-5.4c-0.5,0-0.9-0.3-0.9-0.6V119c0-1.4,1.7-2.5,3.6-2.5
		c2,0,3.6,1.1,3.6,2.5V129.3z M201.3,118.8V135c0,0.3-0.4,0.6-0.9,0.6h-5.3l-22.9,8.4c-0.4,0.2-0.9,0-1.2-0.2
		c-0.2-0.3-0.1-0.7,0.4-0.8l22.8-8.3v-15.8c0-1.4,1.7-2.5,3.6-2.5C199.7,116.2,201.3,117.3,201.3,118.8z M179,129.9
		c-0.5,0-0.9-0.3-0.9-0.6V119c0-1.4,1.6-2.5,3.6-2.5c1.9,0,3.6,1.1,3.6,2.5v10.3c0,0.3-0.4,0.6-0.9,0.6H179z"/>
	<path class="st23" d="M157.6,157.3c0-0.3,0.4-0.6,0.9-0.6h18.7c0.5,0,0.9,0.3,0.9,0.6c0,0.4-0.4,0.6-0.9,0.6h-18.7
		C158,157.9,157.6,157.6,157.6,157.3z M157.6,167.5c0-0.3,0.4-0.6,0.9-0.6h18.7c0.5,0,0.9,0.3,0.9,0.6s-0.4,0.6-0.9,0.6h-18.7
		C158,168.1,157.6,167.8,157.6,167.5z M158.8,187l31.4-7.2v-16.3c0-1.5,1.7-2.7,3.8-2.7s3.8,1.2,3.8,2.7v16.8c0,0.3-0.4,0.6-0.9,0.6
		h-5.9c-0.1,0-0.2,0-0.2,0l-31.4,7.2c-0.5,0.1-1-0.1-1.1-0.4C158.1,187.5,158.3,187.1,158.8,187z"/>
	<path class="st23" d="M201.9,224.2c0,0.3-0.4,0.6-0.9,0.6h-37.9c-0.5,0-0.9-0.3-0.9-0.6c0-0.4,0.4-0.6,0.9-0.6h27.5v-21.4h-25.9
		c-0.5,0-0.9-0.3-0.9-0.6c0-0.4,0.4-0.6,0.9-0.6h26.1c0.4-1.2,1.8-2,3.5-2c2,0,3.6,1.1,3.6,2.5v22.1h3.1
		C201.5,223.5,201.9,223.8,201.9,224.2z"/>
</g>
<path class="st24" d="M123.9,0.8v260.8h107.9V0.8H123.9z"/>
<rect x="134.8" y="11.5" class="st25" width="85.9" height="239.5"/>
<line class="st26" x1="123.9" y1="258" x2="123.9" y2="272.8"/>
<path class="st27" d="M117,285.3c0-4.7,2-9.2,5.6-12.2c-6.3,0.1-11.4,5.5-11.4,12.2s5.1,12.1,11.4,12.2
	C119.1,294.4,117,290,117,285.3z"/>
<path class="st27" d="M136.5,285.3c0-6.7-5.1-12.2-11.5-12.2c6.7,5.8,7.5,15.9,1.7,22.6c-0.5,0.6-1.1,1.2-1.7,1.7
	C131.3,297.4,136.5,292,136.5,285.3z"/>
<ellipse class="st27" cx="123.8" cy="285.3" rx="5.1" ry="11"/>
<path class="st28" d="M127.2,297.6c5.2,20.1,3.4,31.5,3.4,31.5l-10.2,0.4l-1.2-6.4c0,0,0.6,3.2-4.6,7.7c-1.1-20.6,5.4-33.6,5.4-33.6
	"/>
<line class="st26" x1="231.7" y1="258.6" x2="231.7" y2="273.5"/>
<path class="st27" d="M224.9,285.9c0-4.7,2-9.2,5.6-12.2c-6.3,0.1-11.4,5.5-11.4,12.2s5.1,12.1,11.4,12.2
	C226.9,295.1,224.9,290.6,224.9,285.9z"/>
<path class="st27" d="M244.3,285.9c0-6.7-5.1-12.2-11.5-12.2c6.7,5.8,7.5,15.9,1.7,22.7c0,0,0,0,0,0c-0.5,0.6-1.1,1.2-1.7,1.7
	C239.2,298.1,244.3,292.6,244.3,285.9z"/>
<ellipse class="st27" cx="231.7" cy="285.9" rx="5.1" ry="11"/>
<path class="st28" d="M235,298.3c5.2,20.1,3.4,31.5,3.4,31.5l-10.2,0.4l-1.2-6.4c0,0,0.6,3.2-4.6,7.7c-1.1-20.6,5.4-33.6,5.4-33.6"
	/>
<path class="st29" d="M124.3,52.8C53.5,73,12.7,146.7,23,218.3"/>
<path class="st29" d="M132.7,50.2"/>
<path class="st29" d="M224.9,53.7"/>
<path class="st29" d="M323.5,216.7c3.4-27.4-0.1-55.3-11.1-80.7c-10.2-23.3-26-43.7-46-59.3c-11.3-8.8-21.4-14.9-34.6-20.2"/>
<path class="st29" d="M171.3,347.7"/>
</svg>
