<svg id="レイヤー_1" data-name="レイヤー 1" xmlns="http://www.w3.org/2000/svg" viewBox="0 0 362.33 365.77"><defs><style>.cls-1,.cls-12,.cls-13,.cls-14,.cls-15,.cls-17,.cls-19,.cls-2,.cls-20,.cls-21,.cls-24,.cls-25,.cls-26,.cls-28,.cls-29,.cls-4,.cls-9{fill:none;}.cls-1,.cls-10,.cls-11,.cls-12,.cls-13,.cls-14,.cls-15,.cls-16,.cls-17,.cls-18,.cls-19,.cls-2,.cls-20,.cls-21,.cls-22,.cls-23,.cls-24,.cls-25,.cls-26,.cls-27,.cls-4,.cls-5,.cls-6,.cls-7,.cls-8,.cls-9{stroke:#231815;}.cls-1,.cls-10,.cls-11,.cls-12,.cls-13,.cls-14,.cls-15,.cls-16,.cls-17,.cls-18,.cls-19,.cls-2,.cls-20,.cls-21,.cls-22,.cls-24,.cls-25,.cls-26,.cls-27,.cls-28,.cls-4,.cls-5,.cls-6,.cls-7,.cls-8,.cls-9{stroke-miterlimit:10;}.cls-1,.cls-21,.cls-5{stroke-width:0.8px;}.cls-2{stroke-width:2.39px;}.cls-23,.cls-3{writing-mode:tb;text-orientation:upright;glyph-orientation-vertical:0deg;}.cls-4{stroke-width:1.2px;}.cls-10,.cls-11,.cls-16,.cls-18,.cls-23,.cls-27,.cls-5,.cls-6,.cls-7{fill:#231815;}.cls-6{stroke-width:0.81px;}.cls-7,.cls-8{stroke-width:1.21px;}.cls-22,.cls-8{fill:#fff;}.cls-21,.cls-29,.cls-8{stroke-linecap:round;}.cls-10,.cls-9{stroke-width:0.85px;}.cls-11{stroke-width:0.8px;}.cls-12{stroke-width:0.82px;}.cls-13{stroke-width:0.84px;}.cls-14{stroke-width:0.77px;}.cls-15{stroke-width:0.79px;}.cls-16{stroke-width:0.2px;}.cls-17{stroke-width:1.04px;}.cls-18{stroke-width:0.81px;}.cls-19{stroke-width:0.89px;}.cls-20{stroke-width:0.77px;}.cls-22{stroke-width:1.66px;}.cls-23{font-size:58.96px;stroke-width:1.48px;font-family:TA-candy-83pv-RKSJ-H, TA-candy;}.cls-24{stroke-width:1.67px;}.cls-25{stroke-width:1.34px;}.cls-26{stroke-width:1.4px;}.cls-27{stroke-width:1.83px;}.cls-28,.cls-29{stroke:#fff;}.cls-29{stroke-linejoin:round;stroke-width:1px;}</style></defs><path class="cls-1" d="M166.88,404.1S170.5,259,321.31,255.24c24.45-.82,129.08,11.48,150.24,132.55H408.34s-14.24-.86-13,8.86c.9,6.85,13.35,6.57,13.35,6.57l21.71.33s10.7-1.29,11.05,5.6-10.64,5.67-10.64,5.67H347.16" transform="translate(-146.73 -205.32)"/><ellipse class="cls-2" cx="172.48" cy="195.61" rx="171.29" ry="168.96"/><text class="cls-3" x="-146.73" y="-205.32"/><path class="cls-4" d="M176.83,463.21s38.1,85.54,134.27,88.67" transform="translate(-146.73 -205.32)"/><path class="cls-5" d="M214.13,512.55a101.77,101.77,0,0,0-44.37,0c10-11.34,27.76-13.19,45.17.6" transform="translate(-146.73 -205.32)"/><path class="cls-6" d="M238.87,531S223,500.62,241,485.35c-1.21,9.57-1.62,30.12-2.1,45.61" transform="translate(-146.73 -205.32)"/><path class="cls-4" d="M457.42,464.05s-36,82.67-129.87,87.83" transform="translate(-146.73 -205.32)"/><ellipse class="cls-1" cx="456.21" cy="454.74" rx="5.43" ry="9.5" transform="translate(-242.08 -83.31) rotate(-13.81)"/><ellipse class="cls-1" cx="465.84" cy="452.29" rx="9.5" ry="5.43" transform="translate(-319.73 363) rotate(-54.45)"/><ellipse class="cls-1" cx="466.7" cy="431.38" rx="9.5" ry="5.43" transform="translate(-233.79 537.91) rotate(-72.13)"/><ellipse class="cls-1" cx="459.82" cy="439.52" rx="5.43" ry="9.5" transform="translate(-154.64 -196.9) rotate(-1.04)"/><ellipse class="cls-1" cx="469.46" cy="437.38" rx="9.5" ry="5.43" transform="translate(-317.6 272.86) rotate(-46.62)"/><path class="cls-5" d="M420.13,513.38s32.76-8.59,44.36,0c-7.07-17.47-33.95-7.74-45.17.59" transform="translate(-146.73 -205.32)"/><path class="cls-5" d="M396.28,531.06s19.44-35.76-3-44.87c5.27,9.73,8,19.92,2.72,45.1" transform="translate(-146.73 -205.32)"/><path class="cls-7" d="M337.13,491.73a50,50,0,0,1-26.39-.48l.73,13.93s-2.38,9.16-6.23,8.79c-3.67,2.39-15,21.26,5.5,47.29h26.39" transform="translate(-146.73 -205.32)"/><path class="cls-7" d="M312.34,491.73a50,50,0,0,0,26.39-.48L338,505.18s2.38,9.16,6.23,8.79c3.66,2.39,15,21.26-5.5,47.29H312.34" transform="translate(-146.73 -205.32)"/><path class="cls-8" d="M338.8,490.22s-15.68-4.94-28.16.22" transform="translate(-146.73 -205.32)"/><path class="cls-9" d="M207.68,396.86c-.31-.67.93-25.11,37.08-25.2s35.84,25.86,35.84,25.86" transform="translate(-146.73 -205.32)"/><path class="cls-9" d="M212.35,397.1s1.07-21.21,32.35-22c32.1-.8,31.07,22.42,31.07,22.42" transform="translate(-146.73 -205.32)"/><path class="cls-9" d="M217.63,397.52s.45-19,27-19,26.37,19,26.37,19" transform="translate(-146.73 -205.32)"/><path class="cls-9" d="M222.94,397.52s.35-15.25,21.64-15.25,21.13,15.25,21.13,15.25" transform="translate(-146.73 -205.32)"/><path class="cls-10" d="M228,397.1s.27-10.1,16.48-10.1,16.09,10.1,16.09,10.1" transform="translate(-146.73 -205.32)"/><path class="cls-9" d="M171.85,395.19s4.51-23.52,33.77-26.12c17.58-1.57,23.08,4.74,23.08,4.74" transform="translate(-146.73 -205.32)"/><path class="cls-9" d="M234.91,372.4s-8.58-9.35-29.82-7.5c-33.59,2.93-37.59,30.29-37.59,30.29" transform="translate(-146.73 -205.32)"/><path class="cls-9" d="M176.85,395.44s4-19.86,28.77-22.6c14.71-1.63,18.07,2.89,18.07,2.89" transform="translate(-146.73 -205.32)"/><path class="cls-9" d="M182.9,395.19s2.74-14.82,22.72-17.57c8.16-1.12,12.83,1.22,12.83,1.22" transform="translate(-146.73 -205.32)"/><path class="cls-11" d="M212.35,383.4s-15.68-3.92-22.29,12.28c1,0,17.22.46,17.22.46S207.67,386.79,212.35,383.4Z" transform="translate(-146.73 -205.32)"/><path class="cls-10" d="M226.4,367.12s6.58,2.11,8.22,4.8c2.25-.33,13.88-.76,16.43-.26C247.57,364.14,233.17,362,226.4,367.12Z" transform="translate(-146.73 -205.32)"/><path class="cls-12" d="M216.62,364.66s8-10,26.58-7.63c16.88,2.14,19.14,17.28,19.12,17.27" transform="translate(-146.73 -205.32)"/><path class="cls-13" d="M210,364.66s9.51-14.68,34.3-11.7c24.2,2.9,24.27,24.36,24.27,24.36" transform="translate(-146.73 -205.32)"/><path class="cls-5" d="M408.64,495.3" transform="translate(-146.73 -205.32)"/><path class="cls-1" d="M417.81,471.6s.27-24.81-31.42-25c-30.92-.15-32.64,25.84-32.64,25.84" transform="translate(-146.73 -205.32)"/><path class="cls-1" d="M413.11,472.48s.74-22.41-26.7-22.41S358,472.48,358,472.48" transform="translate(-146.73 -205.32)"/><path class="cls-1" d="M408.94,472.48s.86-19-22.43-19-24.36,19-24.36,19" transform="translate(-146.73 -205.32)"/><path class="cls-1" d="M404.29,472.48s.58-15-18.08-15-19.41,15-19.41,15" transform="translate(-146.73 -205.32)"/><path class="cls-5" d="M399.82,472.05S399.59,462,385.37,462s-14.1,10.09-14.1,10.09" transform="translate(-146.73 -205.32)"/><path class="cls-1" d="M449.7,469.22s-4.57-22.73-30.23-25.19c-14.26-1.36-20,4.45-20,4.45" transform="translate(-146.73 -205.32)"/><path class="cls-1" d="M393.8,447.37s7.52-9.36,26.13-7.5c29.45,2.93,33,24.64,33,24.64" transform="translate(-146.73 -205.32)"/><path class="cls-1" d="M444.69,470.4s-3.52-20-25.22-22.6c-10.83-1.31-15.17,2.61-15.17,2.61" transform="translate(-146.73 -205.32)"/><path class="cls-1" d="M440.05,471.1a24.58,24.58,0,0,0-20.58-18.52c-7.15-1.12-10.55.87-10.55.87" transform="translate(-146.73 -205.32)"/><path class="cls-5" d="M413.69,458.38s16.46-4,21.59,12.63c-.95,0-17.47.59-17.47.59S418.93,465.34,413.69,458.38Z" transform="translate(-146.73 -205.32)"/><path class="cls-5" d="M400.85,442.28s-5.1,2.29-6.54,5c-2-.33-10.95-1.12-13.19-.62C386.16,440.75,394.41,439.82,400.85,442.28Z" transform="translate(-146.73 -205.32)"/><path class="cls-14" d="M412.2,439.62s-7.45-10.2-24.57-6.59c-14,3-18.32,17-18.31,17" transform="translate(-146.73 -205.32)"/><path class="cls-15" d="M417.15,439.62s-7-13.91-29.26-10.46c-20.14,3.13-23.63,24-23.63,24" transform="translate(-146.73 -205.32)"/><path class="cls-9" d="M221.52,365.84a26.32,26.32,0,0,1,23.49-4c3.25.81,8.44,3.45,11.07,10.79" transform="translate(-146.73 -205.32)"/><path class="cls-5" d="M261.31,471.21" transform="translate(-146.73 -205.32)"/><path class="cls-1" d="M375.36,447.89a19.42,19.42,0,0,1,15.58-11c11.6-1.32,15.31,3.73,15.31,3.73" transform="translate(-146.73 -205.32)"/><path class="cls-16" d="M416.79,387.49l-13.89-.2s-14.49-.65-12.62,9.31c1.37,7.33,12.21,6.94,12.21,6.94l10.63-.22s-9.56-.87-10.29-6.24c0-2.18-1.86-9.28,16.66-9.28" transform="translate(-146.73 -205.32)"/><path class="cls-17" d="M178.75,432.78l51.69-.85s10.92-.64,10.71,6.47c0,6.46-8.15,6.64-8.15,6.64l-54.11-.61" transform="translate(-146.73 -205.32)"/><path class="cls-18" d="M197.38,432.48l32.68-.77s10.83-.41,11.09,7.27c-2.22,7.57-10.88,6.06-11.34,6,0,0-.54,0,0-.37H198s17.47-.07,27.2-2.06c3.33-.68,5.43-6,.27-8.41C221.33,432.24,216.8,432.5,197.38,432.48Z" transform="translate(-146.73 -205.32)"/><path class="cls-19" d="M283.57,402.21h-36.9s-9.51-.45-9.51,6.64,8.75,6.64,8.75,6.64H283.6" transform="translate(-146.73 -205.32)"/><line class="cls-20" x1="273.6" y1="86.58" x2="273.6" y2="118.46"/><line class="cls-20" x1="70.85" y1="87.07" x2="71.2" y2="118.56"/><line class="cls-20" x1="45.23" y1="118.56" x2="301.25" y2="118.56"/><rect class="cls-20" x="203.94" y="86.48" width="48.52" height="32.08"/><rect class="cls-20" x="89.39" y="86.48" width="48.52" height="32.08"/><rect class="cls-1" x="117.12" y="59.89" width="110.73" height="38.42"/><polyline class="cls-1" points="205.19 53.22 205.19 76.75 260.77 76.59"/><polyline class="cls-21" points="136.41 54.66 136.41 76.82 83.81 76.82"/><line class="cls-20" x1="172.5" y1="49.98" x2="172.5" y2="118.56"/><text class="cls-3" x="-146.73" y="-205.32"/><line class="cls-22" x1="231.75" y1="258.62" x2="231.75" y2="276.83"/><line class="cls-22" x1="123.89" y1="258.62" x2="123.89" y2="276.83"/><text class="cls-23" transform="translate(177.81 26.18) scale(1 0.7)">阿波ッシュ</text><rect class="cls-24" x="123.89" y="0.84" width="107.85" height="260.81"/><rect class="cls-25" x="134.84" y="11.51" width="85.94" height="239.46"/><path class="cls-26" d="M273.81,502.46c5.22,20.1,3.56,32.88,3.56,32.88l-10.22.38-1.22-6.44s.61,3.22-4.56,7.71c-1.07-20.64,5.6-34.13,5.6-34.13Z" transform="translate(-146.73 -205.32)"/><ellipse class="cls-27" cx="123.89" cy="285.92" rx="11.59" ry="12.2"/><path class="cls-28" d="M269.39,478.05s-10.3,15.11,0,26.64" transform="translate(-146.73 -205.32)"/><path class="cls-29" d="M271.88,478.05s10.4,15.11.1,26.64" transform="translate(-146.73 -205.32)"/><path class="cls-26" d="M382.56,502.54c5.32,20.07,3.72,32.85,3.72,32.85l-10.21.45-1.25-6.43s.62,3.22-4.53,7.75c-1.17-20.64,5.44-34.17,5.44-34.17" transform="translate(-146.73 -205.32)"/><ellipse class="cls-27" cx="231.74" cy="285.92" rx="11.59" ry="12.2"/><path class="cls-29" d="M377.24,478.05s-10.3,15.11,0,26.64" transform="translate(-146.73 -205.32)"/><path class="cls-29" d="M379.72,478.05s10.41,15.11.11,26.64" transform="translate(-146.73 -205.32)"/></svg>