<?xml version="1.0" encoding="utf-8"?>
<!-- Generator: Adobe Illustrator 24.1.0, SVG Export Plug-In . SVG Version: 6.00 Build 0)  -->
<svg version="1.1" xmlns="http://www.w3.org/2000/svg" xmlns:xlink="http://www.w3.org/1999/xlink" x="0px" y="0px"
	 viewBox="0 0 612 792" style="enable-background:new 0 0 612 792;" xml:space="preserve">
<style type="text/css">
	.st0{display:none;}
	.st1{display:inline;fill:#FFFFFF;stroke:#000000;stroke-miterlimit:10;}
	.st2{display:inline;fill:#231815;stroke:#000000;stroke-miterlimit:10;}
	.st3{fill:#FFFFFF;stroke:#FFFFFF;stroke-miterlimit:10;}
	.st4{fill:#FFFFFF;stroke:#FFFFFF;stroke-width:1.48;}
	.st5{fill:none;stroke:#FFFFFF;stroke-width:0.8;stroke-miterlimit:10;}
	.st6{fill:none;stroke:#FFFFFF;stroke-width:2.39;stroke-linecap:round;stroke-miterlimit:10;}
	.st7{fill:none;stroke:#FFFFFF;stroke-width:1.2;stroke-miterlimit:10;}
	.st8{fill:none;stroke:#FFFFFF;stroke-width:0.8;stroke-linecap:round;stroke-miterlimit:10;}
	.st9{fill:none;stroke:#FFFFFF;stroke-width:1.21;stroke-miterlimit:10;}
	.st10{fill:none;stroke:#FFFFFF;stroke-width:1.21;stroke-linecap:round;stroke-miterlimit:10;}
	.st11{fill:none;stroke:#FFFFFF;stroke-width:0.85;stroke-miterlimit:10;}
	.st12{fill:none;stroke:#FFFFFF;stroke-miterlimit:10;}
	.st13{fill:none;stroke:#FFFFFF;stroke-width:0.82;stroke-miterlimit:10;}
	.st14{fill:none;stroke:#FFFFFF;stroke-width:0.84;stroke-miterlimit:10;}
	.st15{fill:none;stroke:#FFFFFF;stroke-width:0.77;stroke-miterlimit:10;}
	.st16{fill:none;stroke:#FFFFFF;stroke-width:0.79;stroke-miterlimit:10;}
	.st17{fill:none;stroke:#FFFFFF;stroke-width:1.04;stroke-miterlimit:10;}
	.st18{fill:none;stroke:#FFFFFF;stroke-width:0.81;stroke-miterlimit:10;}
	.st19{fill:none;stroke:#FFFFFF;stroke-width:0.89;stroke-miterlimit:10;}
	.st20{fill:none;stroke:#FFFFFF;stroke-width:1.66;stroke-miterlimit:10;}
	.st21{fill:none;stroke:#FFFFFF;stroke-width:1.67;stroke-miterlimit:10;}
	.st22{fill:none;stroke:#FFFFFF;stroke-width:1.34;stroke-miterlimit:10;}
	.st23{fill:none;stroke:#FFFFFF;stroke-width:1.4;stroke-miterlimit:10;}
	.st24{fill:none;stroke:#FFFFFF;stroke-width:1.2385;stroke-miterlimit:10;}
</style>
<g id="レイヤー_2" class="st0">
	<path class="st1" d="M-48,0v792h715V0H-48z M276.74,248.93c-0.06,0.19-0.17,0.36-0.32,0.5c-0.04,0.04-0.08,0.08-0.12,0.12
		c0.06,0.1,0.1,0.2,0.17,0.29c0.08,0.13,0.14,0.26,0.18,0.4c0.02,0.14,0.04,0.28,0.06,0.41c0.02,0.41-0.18,0.8-0.45,1.1
		c-0.26,0.29-0.72,0.45-1.1,0.45c-0.21,0.01-0.41-0.04-0.6-0.13c-0.19-0.06-0.36-0.17-0.5-0.32c-0.16-0.2-0.33-0.4-0.46-0.63
		c-0.13-0.21-0.22-0.45-0.31-0.68c-0.12-0.32-0.18-0.68-0.16-1.02c0.03-0.48,0.14-0.92,0.38-1.34c0.12-0.21,0.28-0.4,0.44-0.59
		c0.09-0.1,0.18-0.19,0.29-0.27c0.19-0.19,0.42-0.33,0.69-0.4c0.14-0.02,0.28-0.04,0.41-0.06c0.41-0.02,0.8,0.18,1.1,0.45
		c0.29,0.26,0.45,0.72,0.45,1.1C276.88,248.55,276.84,248.75,276.74,248.93z M282.64,248.62c-0.14,0.2-0.3,0.39-0.46,0.57
		c0,0.05,0,0.09,0,0.14c0,0.42-0.18,0.79-0.45,1.1c-0.23,0.25-0.57,0.38-0.89,0.43c-0.35,0.05-0.68-0.02-0.99-0.18
		c-0.31-0.16-0.65-0.58-0.71-0.93c-0.07-0.37-0.09-0.65-0.06-0.98c0-0.68-0.02-1.36-0.11-2.04c-0.07-0.26-0.07-0.53,0-0.79
		c0.05-0.12,0.1-0.25,0.16-0.37c0.19-0.36,0.55-0.59,0.93-0.71c0.37-0.12,0.86-0.04,1.2,0.16c0.3,0.18,0.65,0.57,0.71,0.93
		c0.03,0.18,0.04,0.36,0.06,0.54c0.02,0.01,0.04,0.02,0.06,0.03c0.34,0.18,0.61,0.57,0.71,0.93
		C282.9,247.78,282.86,248.3,282.64,248.62z M379.37,257.47c0.02,0.41-0.18,0.8-0.45,1.1c-0.26,0.29-0.72,0.45-1.1,0.45
		c-0.4,0-0.82-0.17-1.1-0.45c-0.33-0.33-0.64-0.71-0.87-1.12c-0.2-0.35-0.31-0.71-0.38-1.09c-0.2,0.21-0.47,0.38-0.73,0.45
		c-0.43,0.12-0.8,0.02-1.2-0.16c-0.68-0.3-1.31-0.69-1.86-1.2c-0.53-0.49-0.89-1.1-1.16-1.76c-0.44-1.1-0.41-2.37-0.41-3.53
		c0-0.87,0.71-1.52,1.55-1.55c0.84-0.04,1.55,0.74,1.55,1.55c0,0.62,0,1.24,0.07,1.85c0.04,0.22,0.09,0.44,0.17,0.65
		c0.07,0.13,0.13,0.25,0.21,0.37c0.01,0.01,0.01,0.01,0.02,0.02c0.08,0.08,0.15,0.16,0.24,0.23c0.02,0.02,0.04,0.03,0.06,0.05
		c0.1,0.07,0.2,0.14,0.31,0.2c0.27,0.16,0.54,0.3,0.83,0.42c0.26,0.12,0.46,0.36,0.59,0.63c0.03-0.06,0.05-0.12,0.08-0.17
		c0.32-0.48,0.74-0.86,1.25-1.12c0.45-0.23,0.91-0.28,1.38-0.08c0.43,0.18,0.79,0.54,0.9,1.01c0.07,0.28,0.11,0.56,0.12,0.85
		c0.01,0.25-0.04,0.51-0.07,0.75c-0.04,0.25-0.13,0.48-0.21,0.72c-0.01,0.03-0.03,0.04-0.03,0.07
		C379.28,256.87,379.36,257.16,379.37,257.47z M477.93,385.15c-0.08,0.37-0.39,0.74-0.71,0.93c-0.36,0.21-0.8,0.26-1.2,0.16
		c-0.88-0.22-1.72-0.46-2.55-0.84c-0.93-0.42-1.67-1.09-2.26-1.91c-0.24-0.33-0.24-0.81-0.16-1.2c0.09-0.4,0.38-0.71,0.71-0.93
		c0.33-0.21,0.83-0.26,1.2-0.16c0.4,0.11,0.67,0.37,0.91,0.69c-0.05-0.06-0.1-0.13-0.15-0.19c0.18,0.23,0.38,0.42,0.6,0.6
		c0.21,0.14,0.43,0.26,0.66,0.37c0.6,0.24,1.23,0.4,1.86,0.56C477.69,383.45,478.12,384.34,477.93,385.15z"/>
	<path class="st2" d="M-82.39-30.29V986.9h819.37V-30.29H-82.39z"/>
	<path class="st2" d="M270.29,412.58"/>
</g>
<g id="レイヤー_1">
	<path class="st3" d="M302.7,265.58V234.1c0-1.33,1.54-2.4,3.42-2.4c1.65,0,3.07,0.87,3.36,1.94h3.6c0.29-1.07,1.65-1.94,3.36-1.94
		c1.89,0,3.42,1.07,3.42,2.4v11.4c0,0.37-0.41,0.62-0.89,0.62h-4.77l-4.66,3.14v12.89H313v-11.32c0-1.32,1.53-2.4,3.42-2.4
		s3.42,1.08,3.42,2.4v11.94c0,0.37-0.41,0.62-0.89,0.62h-9.43v2.19c0,0.38-0.41,0.62-0.88,0.62h-5.07
		C303.12,266.2,302.7,266,302.7,265.58z M309.54,247.58l3.48-2.36v-10.34h-3.48V247.58z M321.86,234.27c0-0.33,0.42-0.62,0.89-0.62
		h27.59c0.47,0,0.89,0.29,0.89,0.62s-0.42,0.62-0.89,0.62h-2.06v30.7c0,0.38-0.41,0.62-0.89,0.62h-16.86
		c-0.53,0-0.88-0.33-0.88-0.66s0.35-0.62,0.88-0.62h10.91v-30h-18.69C322.28,234.88,321.86,234.63,321.86,234.27L321.86,234.27z
		 M337.78,257.45H323.1c-0.47,0-0.88-0.29-0.88-0.62V242.9c0-1.28,1.47-2.32,3.3-2.32c1.3-0.09,2.53,0.57,3.18,1.7h3.48
		c0.65-1.13,1.89-1.79,3.19-1.7c1.82,0,3.3,1,3.3,2.32v13.92C338.67,257.15,338.25,257.44,337.78,257.45L337.78,257.45z
		 M332.06,243.53h-3.24v12.67h3.24V243.53z"/>
	<path class="st4" d="M302.05,307.32l5.19-5.33v-7.73c0-1.36,1.59-2.48,3.54-2.48s3.54,1.12,3.54,2.48v7.89
		c0,0.38-0.36,0.62-0.89,0.62h-4.77l-5.13,5.23c-0.36,0.27-0.83,0.32-1.24,0.13c-0.27-0.09-0.42-0.37-0.33-0.64
		C301.98,307.43,302.01,307.37,302.05,307.32z M309.72,276.91v0.45H314c0.48,0,0.89,0.25,0.89,0.62s-0.41,0.62-0.89,0.62h-10.9
		c-0.48,0-0.89-0.29-0.89-0.62v-1.07c0-1.45,1.71-2.65,3.78-2.65S309.72,275.46,309.72,276.91z M302.17,285.21
		c0-1.44,1.71-2.64,3.78-2.64s3.77,1.2,3.77,2.64v0.46H314c0.48,0,0.89,0.29,0.89,0.62s-0.41,0.62-0.89,0.62h-10.9
		c-0.48,0-0.89-0.29-0.89-0.62L302.17,285.21z M314.32,306.21l3.24-3.3v-25.09c0-1.37,1.59-2.48,3.54-2.48
		c1.71,0,3.12,0.82,3.48,1.94h6.84V275c0-1.36,1.59-2.47,3.53-2.47s3.54,1.11,3.54,2.47v2.32h4.89c0.18-1.24,1.66-2.23,3.48-2.23
		s3.54,1.11,3.54,2.48v6c0,0.33-0.35,0.62-0.88,0.62h-5.31c-0.47,0-0.88-0.29-0.88-0.62v-5h-4.84v8.84h4.89c0.3-1.16,1.71-2,3.48-2
		c1.95,0,3.54,1.11,3.54,2.48v7.89c0,0.33-0.41,0.62-0.88,0.62h-5.07l-6.25,3.51l12.61,7.09c0.36,0.25,0.42,0.62,0.12,0.87
		c-0.35,0.29-0.84,0.33-1.24,0.12l-12.85-7.31L324,308c-0.4,0.22-0.89,0.17-1.24-0.12c-0.36-0.25-0.3-0.62,0.12-0.87l12.55-7.15
		l-8.67-4.86c-0.36-0.24-0.42-0.62-0.12-0.86c0.35-0.29,0.84-0.34,1.24-0.13l9,5.08l6.49-3.67v-6.82h-18.7v14.55
		c0,0.33-0.41,0.62-0.88,0.62h-4.89l-3.07,3.14c-0.36,0.27-0.84,0.31-1.24,0.12C314.14,306.86,314,306.45,314.32,306.21
		L314.32,306.21z M324.63,287.37h6.79v-8.84h-6.79V287.37z"/>
	<path class="st4" d="M319.45,331.82c0,0.33-0.36,0.62-0.89,0.62h-5.42c-0.47,0-0.89-0.29-0.89-0.62v-10.33
		c0-1.4,1.65-2.52,3.6-2.52s3.6,1.12,3.6,2.52L319.45,331.82z M349.69,321.29v16.28c0,0.33-0.35,0.62-0.88,0.62h-5.31l-22.93,8.39
		c-0.41,0.16-0.87,0.06-1.18-0.25c-0.24-0.29-0.06-0.66,0.35-0.83l22.76-8.35v-15.86c0-1.41,1.65-2.52,3.6-2.52
		S349.69,319.88,349.69,321.29z M327.46,332.44c-0.53,0-0.88-0.29-0.88-0.62v-10.33c0-1.4,1.59-2.52,3.6-2.52s3.59,1.12,3.59,2.52
		v10.33c0,0.33-0.41,0.62-0.88,0.62L327.46,332.44z"/>
	<path class="st4" d="M306.06,359.84c0-0.33,0.42-0.62,0.89-0.62h18.69c0.47,0,0.88,0.29,0.88,0.62s-0.41,0.62-0.88,0.62H307
		C306.48,360.46,306.06,360.21,306.06,359.84z M306.06,370.05c0-0.33,0.42-0.62,0.89-0.62h18.69c0.47,0,0.88,0.29,0.88,0.62
		s-0.41,0.62-0.88,0.62H307C306.48,370.67,306.06,370.38,306.06,370.05z M307.24,389.63l31.37-7.23v-16.28
		c0-1.49,1.71-2.68,3.83-2.68s3.83,1.19,3.83,2.68V383c0,0.33-0.41,0.62-0.88,0.62h-5.9c-0.07,0.02-0.16,0.02-0.23,0l-31.43,7.23
		c-0.41,0.13-0.87-0.02-1.12-0.37C306.53,390.09,306.77,389.72,307.24,389.63L307.24,389.63z"/>
	<path class="st4" d="M350.34,426.82c0,0.33-0.41,0.62-0.88,0.62h-37.85c-0.48,0-0.89-0.29-0.89-0.62s0.41-0.62,0.89-0.62h27.53
		v-21.4H313.2c-0.47,0-0.89-0.29-0.89-0.62s0.42-0.62,0.89-0.62h26.06c0.35-1.16,1.77-2,3.48-2c2,0,3.59,1.11,3.59,2.52v22.1h3.13
		C349.93,426.2,350.34,426.45,350.34,426.82z"/>
	<path class="st5" d="M470.84,384.9C450,385,428,384,407,385c-5,1-10,3-11,8c0,2,0,5,2,6c13,5,27,0,41,2c4,1,7,5,4,9c-1,1-3,2-5,2
		c-19,0-39,0-57.79,0.09"/>
	<path class="st5" d="M472.34,380.32"/>
	<path class="st5" d="M380.16,260.66"/>
	<path class="st5" d="M420.28,385.12c-16.66-0.58-14.53,13.88-8,15.46c2.46,0.59,4.48,0.28,6.39,0.35"/>
	<path class="st3" d="M418.76,400.87c-1.91-0.06-3.93,0.25-6.39-0.35c-6.49-1.57-8.05-15.87,8.05-15.45l0,0
		c-32.49-3.65-25.79,15.87-17,15.74c2.53,0,10.61,0.13,15.06,0.13L418.76,400.87z"/>
	<path class="st6" d="M185.18,501.01c-12.93-16.47-22.77-35.32-28.79-55.38c-6.33-21.09-8.32-43.32-6.21-65.22
		c2.09-21.74,8.27-43.06,18.39-62.42c9.83-18.83,23.31-35.69,39.55-49.39c16.46-13.88,35.64-24.39,56.14-30.94
		c2.65-0.85,5.32-1.63,8.01-2.34"/>
	<path class="st6" d="M455.34,507.87c-5.26,5.01-17.26,16.01-18.26,17.01c-46,44-112,57-171,37c-29-10-55-29-75.33-52.25"/>
	<path class="st6" d="M381.82,240.95C394,247,406,250,418,258c10,7,18,12,26,21c13,15,25,28,33,45c7,14,13,28,15,44c3,16,4,31,3,46
		c-1,14-4,28-9,42c-7,17-14.48,32.32-26.1,46.42"/>
	<path class="st7" d="M178.12,461.25c1.89,1.14,35.44,81.66,127.88,87.35"/>
	<path class="st5" d="M215.81,509.98c-14.45-2.84-29.51-2.62-44.37,0c10.08-10.97,27.81-12.97,45.18,0.6"/>
	<path class="st7" d="M459.11,461.14c0,0-25.49,66-111.29,85.62"/>
	<path class="st5" d="M463.34,451"/>
	<path class="st5" d="M463.89,456.23"/>
	<path class="st5" d="M462.27,447.81c-1.56-3.85-4.16-5.85-6.62-5.24c-2.91,0.72-4.26,5.43-3.01,10.52c1.25,5.1,4.63,8.65,7.54,7.93
		c1.5-0.37,2.58-1.81,3.11-3.81"/>
	<path class="st5" d="M473.05,441.64c-2.43-0.18-6.89,0.47-9.94,4.57c-3.13,4.21-3.55,9.14-1.11,10.89c2.44,1.74,6.89-0.3,9.94-4.57
		C474.99,448.26,476.04,441.86,473.05,441.64z"/>
	<path class="st5" d="M463.05,448.06"/>
	<path class="st5" d="M462.17,451.45"/>
	<path class="st5" d="M462.17,453.44"/>
	<path class="st5" d="M467.02,437.55"/>
	<path class="st5" d="M462.58,429.79"/>
	<path class="st5" d="M474.43,426.9c0.52-3.1-0.89-8.22-4.93-7.48c-3.45,0.63-5.61,5.05-6.45,8.03"/>
	<path class="st5" d="M468.38,434.28"/>
	<path class="st5" d="M468.38,436.28"/>
	<path class="st5" d="M471.17,420.33"/>
	<path class="st5" d="M461.35,446.12c0.23,0.05,0.08,0.02,0.32,0.01c3-0.05,5.35-4.35,5.26-9.6s-2.6-9.45-5.6-9.4
		c-3,0.05-5.35,4.35-5.26,9.6c0.05,2.53,0.48,4.28,1.44,5.96c-0.13-0.23,0.04-0.05,0.16-0.05"/>
	<path class="st5" d="M459.73,445.53"/>
	<path class="st5" d="M458.48,444.4"/>
	<path class="st5" d="M465.69,442.03c2.42,0.94,6.31-0.56,9.4-3.84c3.6-3.81,4.76-8.57,2.58-10.63c-2.18-2.06-6.87-0.64-10.47,3.18
		c-0.54,0.57-0.68,0.7-1.1,1.3"/>
	<path class="st5" d="M468.38,436.28"/>
	<path class="st5" d="M470.24,429.08"/>
	<path class="st5" d="M186.37,446.15c-2.91-0.72-6.3,2.83-7.54,7.93c-1.38,5.68-0.01,10.26,3.01,10.52
		c2.99,0.26,6.29-2.83,7.54-7.93C190.63,451.58,189.28,446.87,186.37,446.15z"/>
	<path class="st5" d="M178.84,457.91"/>
	<path class="st5" d="M180.85,458.07"/>
	<path class="st5" d="M179.82,451.17c-0.36-0.72-0.43-0.72-0.93-1.42c-3.05-4.27-7.5-6.32-9.94-4.57
		c-2.44,1.74-1.95,6.62,1.11,10.89c2.88,4.03,6.04,6.24,8.54,4.99"/>
	<path class="st5" d="M174.59,446.65"/>
	<path class="st5" d="M180.85,458.07"/>
	<path class="st5" d="M178.84,457.91"/>
	<path class="st5" d="M179.09,431.23c-0.09-0.38-0.14-0.56-0.27-0.94c-1.61-4.99-5.23-8.3-8.08-7.38c-2.29,0.74-3.45,3.39-2.96,7.22
		c0.04-0.01,0.67,0.18,0.71,0.18 M179.41,432.81 M176.83,440.9 M168.49,433.63 M168.08,432.13 M176.56,435.6"/>
	<path class="st5" d="M170.44,431.49"/>
	<path class="st8" d="M184.63,446.17c0.99-1.69,1.25-3.37,1.3-5.95c0.1-5.25-2.26-9.54-5.26-9.6s-5.51,4.15-5.6,9.4
		c-0.1,5.25,2.26,9.54,5.26,9.6c0.46,0.01-0.01,0.09,0.42-0.1 M176.56,435.6 M176.56,437.04"/>
	<path class="st5" d="M175.78,435.6c-0.38-0.52-0.51-0.84-0.98-1.33c-3.6-3.81-8.29-5.23-10.47-3.18s-1.46,7.28,2.58,10.63
		c3.21,2.66,7.13,4,9.4,3.84"/>
	<path class="st5" d="M170.44,431.49"/>
	<path class="st5" d="M172.83,440.84"/>
	<path class="st5" d="M173.76,444.91"/>
	<path class="st5" d="M421.81,510.47c0,0,32.76-8.59,44.37,0c-7.5-17.05-33.99-7.75-45.18,0.59"/>
	<path class="st5" d="M398,528.15c0,0,19.44-35.76-3-44.87c5.27,9.73,8,19.92,2.71,45.1"/>
	<path class="st9" d="M338.81,488.82c-8.68,2.21-17.8,2.04-26.39-0.48l0.73,13.93c0,0-2.38,9.16-6.23,8.79
		c-3.66,2.39-15,21.26,5.5,47.29h26.39"/>
	<path class="st9" d="M314,488.82c8.68,2.21,17.8,2.04,26.39-0.48l-0.73,13.93c0,0,2.38,9.16,6.23,8.79
		c3.67,2.39,15,21.26-5.5,47.29H314"/>
	<path class="st10" d="M340.49,487.31c0,0-15.69-4.94-28.17,0.22"/>
	<path class="st11" d="M209.37,393.92c-0.32-0.67,0.92-25.11,37.08-25.2c13.36,0,21.14,3.15,26.39,7.61"/>
	<path class="st11" d="M214,394.19c0,0,1.07-21.21,32.36-22c15.36-0.38,22.52,3.94,26.45,9.38"/>
	<path class="st11" d="M219.32,394.62c0,0,0.44-19,27-19s26.37,19,26.37,19"/>
	<path class="st11" d="M224.62,394.62c0,0,0.36-15.26,21.65-15.26s21.13,15.26,21.13,15.26"/>
	<path class="st12" d="M229.72,394.19c0,0,0.27-10.09,16.49-10.09s16.09,10.09,16.09,10.09"/>
	<path class="st11" d="M173.54,392.28c0,0,4.51-23.52,33.77-26.12c17.58-1.57,23.08,4.75,23.08,4.75"/>
	<path class="st11" d="M236.59,369.5c0,0-8.59-9.36-29.81-7.5c-33.6,2.93-37.6,30.29-37.6,30.29"/>
	<path class="st11" d="M178.53,392.53c0,0,4-19.86,28.78-22.6c14.71-1.63,18.06,2.89,18.06,2.89"/>
	<path class="st11" d="M184.58,392.28c0,0,2.74-14.82,22.73-17.57c8.16-1.12,12.83,1.22,12.83,1.22"/>
	<path class="st12" d="M214,381.06c0,0-15.67-4-22.29,12.67c1,0,17.39,0.33,17.39,0.33S208.88,388.34,214,381.06z"/>
	<path class="st12" d="M228.08,364.21c0,0,6.58,2.11,8.22,4.8c2.26-0.33,13.88-0.76,16.44-0.26
		C249.25,361.23,234.85,359.13,228.08,364.21z"/>
	<path class="st13" d="M218.31,361.75c0,0,8-10,26.58-7.63c16.88,2.14,19.11,17.28,19.11,17.27"/>
	<path class="st14" d="M211.71,361.75c0,0,9.51-14.68,34.3-11.7c24.21,2.9,24.28,24.36,24.28,24.36"/>
	<path class="st5" d="M419.49,468.7c0,0,0.27-24.82-31.42-25c-2.77-0.04-5.53,0.24-8.23,0.83"/>
	<path class="st5" d="M414.79,469.57c0,0,0.74-22.41-26.69-22.41c-2.86-0.05-5.73,0.24-8.52,0.87"/>
	<path class="st5" d="M410.63,469.57c0,0,0.86-19-22.43-19c-2.9-0.1-5.79,0.24-8.59,1"/>
	<path class="st5" d="M406,469.57c0,0,0.58-15-18.09-15c-2.83-0.06-5.65,0.4-8.31,1.37"/>
	<path class="st5" d="M402.05,469.5c0,0-0.78-10.45-14.99-10.45c-5.14,0-6,0.38-6.89,2c-0.16,0.47-0.24,0.96-0.23,1.46
		c-0.13,1.21-0.05,2.44,0.22,3.63c0.17,0.41,0.45,3,0.01,3c-1.16,0.01,21.41-0.19,21.81,0"/>
	<path class="st5" d="M451.39,468.19c0,0-4.57-24.6-30.24-27.06c-14.26-1.37-20,4.44-20,4.44"/>
	<path class="st5" d="M395.48,444.46c0,0,7.52-9.35,26.14-7.5c29.45,2.93,33.61,30.53,33.61,30.53"/>
	<path class="st5" d="M446.38,468.19c0,0-3.53-20.7-25.23-23.3c-10.83-1.31-15.15,2.61-15.15,2.61"/>
	<path class="st5" d="M441.73,468.19c-2.4-9.82-10.56-17.16-20.58-18.52c-7.15-1.12-10.55,0.87-10.55,0.87"/>
	<path class="st5" d="M415.37,455.47c0,0,16.46-4,21.59,12.63c-0.95,0-17.47,0.6-17.47,0.6
		C419.02,468.89,420.09,462.64,415.37,455.47z"/>
	<path class="st5" d="M402.53,439.38c0,0-5.1,2.28-6.53,5c-2-0.34-11-1.13-13.2-0.63C387.84,437.84,396.1,436.91,402.53,439.38z"/>
	<path class="st15" d="M413.88,436.71c0,0-7.45-10.2-24.56-6.59c-4.35,0.92-6.73,2.06-9.37,4.36"/>
	<path class="st16" d="M418.83,436.71c0,0-7-13.91-29.26-10.45c-3.53,0.4-6.91,1.6-9.9,3.52"/>
	<path class="st11" d="M223.2,362.93c6.75-5,15.48-6.49,23.5-4c3.25,0.81,8.43,3.45,11.07,10.79"/>
	<path class="st5" d="M379.67,440.87c3.18-3.98,7.87-6.46,12.95-6.87c11.61-1.32,15.31,3.73,15.31,3.73"/>
	<path class="st17" d="M181.77,430.87l50.36-0.85c0,0,10.91-1.64,10.7,5.47c0,4.64-4.2,6.55-6.57,7.26
		c-0.85,0.26-1.74,0.38-2.63,0.36l-47.79-0.58"/>
	<path class="st18" d="M199.06,430.57l32.69-0.77c0,0,10.83-1.41,11.09,6.27c-1,7.62-11,6.65-12.45,6.65h-30.71
		c0,0,17.47-0.07,27.21-2.06c3.32-0.68,5.42-6,0.27-8.41C223,430.33,218.49,429.59,199.06,430.57z"/>
	<path class="st3" d="M199.06,430.57l17.34-0.41l15.35-0.36c0,0,10.83-1.41,11.09,6.27c-1,7.62-11,6.65-12.45,6.65h-30.71
		c0,0,17.47-0.07,27.21-2.06c3.32-0.68,5.42-6,0.27-8.41C223,430.33,218.49,429.59,199.06,430.57z"/>
	<path class="st19" d="M272.67,399.3h-36.9c0,0-9.5-0.45-9.5,6.64s8.75,6.64,8.75,6.64h37.68"/>
	<line class="st15" x1="421.17" y1="283.14" x2="421.17" y2="320.04"/>
	<line class="st15" x1="218.31" y1="280.79" x2="219.62" y2="320.98"/>
	<line class="st15" x1="187.24" y1="320.98" x2="272.31" y2="320.98"/>
	<polygon class="st15" points="406.49,320.98 380.15,320.98 380.15,320.98 380.15,300.72 380.15,288.89 406.49,288.89 	"/>
	<polygon class="st15" points="272.31,320.98 237.81,320.98 237.81,288.89 272.7,288.89 	"/>
	<polyline class="st5" points="380.15,263.69 380.16,279.28 417.45,279.17 	"/>
	<line class="st8" x1="272.7" y1="279.23" x2="221.45" y2="279.23"/>
	<line class="st20" x1="380.17" y1="461.04" x2="380.06" y2="475.85"/>
	<polyline class="st21" points="380.15,239.46 380.15,460.21 380.15,461.04 	"/>
	<line class="st20" x1="272.31" y1="461.04" x2="272.31" y2="475.86"/>
	<polyline class="st5" points="265.53,252.62 265.53,300.72 272.31,300.72 	"/>
	<polyline class="st5" points="386.93,259.8 386.93,300.72 380.15,300.72 	"/>
	<line class="st15" x1="380.16" y1="320.98" x2="452.96" y2="320.98"/>
	<polyline class="st21" points="380.15,461.04 380.15,464.06 378.29,464.06 272.31,464.06 272.31,203.25 380.15,203.25 
		380.15,239.46 	"/>
	<rect x="283.26" y="213.93" class="st22" width="85.94" height="239.46"/>
	<path class="st23" d="M275.71,500.68c5.22,20.09,3.4,31.48,3.4,31.48l-10.21,0.38l-1.22-6.44c0,0,0.61,3.22-4.57,7.72
		c-1.07-20.64,5.38-33.65,5.38-33.65"/>
	<path class="st12" d="M265.47,488.34c-0.03-4.69,2.03-9.16,5.61-12.19c-6.3,0.13-11.36,5.53-11.36,12.19s5.06,12.06,11.36,12.19
		C267.5,497.5,265.44,493.03,265.47,488.34z"/>
	<path class="st12" d="M284.9,488.34c0-6.71-5.15-12.16-11.51-12.2c6.74,5.78,7.52,15.92,1.74,22.66c-0.53,0.62-1.12,1.21-1.74,1.74
		C279.75,500.49,284.9,495.05,284.9,488.34z"/>
	<ellipse class="st12" cx="272.24" cy="488.34" rx="5.12" ry="10.95"/>
	<path class="st23" d="M384.25,499.64c5.32,20.06,3.71,32.84,3.71,32.84l-10.21,0.45l-1.25-6.43c0,0,0.63,3.22-4.53,7.75
		c-1.17-20.64,5.44-34.17,5.44-34.17"/>
	<path class="st12" d="M373.17,488.34c-0.03-4.69,2.03-9.16,5.61-12.19c-6.3,0.13-11.36,5.53-11.36,12.19s5.06,12.06,11.36,12.19
		C375.2,497.5,373.14,493.03,373.17,488.34z"/>
	<path class="st12" d="M392.6,488.34c0-6.71-5.15-12.16-11.51-12.2c6.74,5.78,7.52,15.92,1.74,22.66c-0.53,0.62-1.12,1.21-1.74,1.74
		C387.45,500.49,392.6,495.05,392.6,488.34z"/>
	<ellipse class="st12" cx="379.94" cy="488.34" rx="5.12" ry="10.95"/>
	<path class="st5" d="M474.21,423.84"/>
	<path class="st24" d="M180.07,464.62c8.95,19.9,24.2,34.74,39.12,48.12c14.98,13.44,32.55,24.22,51.8,30.26
		c10.86,3.41,22.21,5.27,33.6,5.35"/>
	<path class="st24" d="M178.26,455.6"/>
	<path class="st24" d="M271.95,250.46c-26.57,8.22-50.45,24.34-68.52,45.42c-18.61,21.71-31.11,48.57-35.4,76.86
		c-2.59,17.06-2.28,34.58,0.93,51.53"/>
	<path class="st24" d="M471.75,419.53c4.82-32.05-0.21-67.06-16.72-95.19c-10.31-17.58-25-33-39.21-47.49
		c-9.8-9.99-23.02-15.47-35.49-21.3"/>
	<path class="st24" d="M467.56,438.4"/>
	<path class="st24" d="M465.58,444.51"/>
	<path class="st24" d="M347.82,546.76C395,537,438,505,458.85,461.38"/>
	<path class="st24" d="M346.64,546.76"/>
	<path class="st24" d="M315.82,549.04"/>
</g>
</svg>
