<?xml version="1.0" encoding="utf-8"?>
<!-- Generator: Adobe Illustrator 24.1.0, SVG Export Plug-In . SVG Version: 6.00 Build 0)  -->
<svg version="1.1" id="レイヤー_1" xmlns="http://www.w3.org/2000/svg" xmlns:xlink="http://www.w3.org/1999/xlink" x="0px"
	 y="0px" viewBox="0 0 500 500" style="enable-background:new 0 0 500 500;" xml:space="preserve">
<style type="text/css">
	.st0{display:none;fill:#FFFFFF;}
	.st1{fill:#FFFFFF;}
	.st2{fill:#BD1B21;}
</style>
<rect x="-19.8" y="-1.7" class="st0" width="500" height="500"/>
<path class="st1" d="M49,122.5c-53.4-12.7,25.3,190.6,93.2,245.9c15.1,12.3,14.8,11.6,31.4,28.2c12.6,12.6,9.6,32.7,14.5,43.5
	c6.3,13.8,118.2,17.1,127.4,3.7c8.8-13,3.5-30.2,20-44c19.4-16.1,13.1-6.2,34.9-27.4c49.4-48.1,124.2-273.5,70.1-247.6
	c-12.1,5.8-128,7.5-190.5,6.9C180.3,131.1,69.1,127.3,49,122.5z"/>
<g id="酒">
	<g id="酒_1_">
		<path class="st2" d="M163.4,273.4c-5.4,19.8-19.8,51-19.8,60c0,9.6,4.5,17.1,4.5,32.1c0,12.9-6.6,18.9-15.9,18.9
			c-9.3,0-11.7-8.1-11.7-13.5s3-18.9,0.3-26.7c-3.3-10.8-9.9-14.4-17.4-21c-4.8-4.2-0.9-10.5,4.2-8.7c4.2,1.2,10.8,3.6,14.4,4.8
			c3.3,0.6,4.8,0,7.5-3.9c5.4-9,17.4-35.4,23.1-45.6C156.1,262.6,165.1,265.6,163.4,273.4z M111.7,199c17.7,1.5,36.3,8.7,39.6,22.8
			c1.8,8.4-1.8,15.3-10.5,17.4c-8.1,1.8-12.6-5.1-19.2-13.5c-4.5-5.4-10.2-10.8-15.3-15.9C100.9,205,102.7,198.1,111.7,199z
			 M165.4,154.3c1.5,8.4-2.7,15.3-11.4,16.8c-7.8,1.2-12-6-18.3-14.4c-4.5-6-9.6-11.7-14.7-16.8c-4.8-5.1-2.7-11.7,6-10.5
			C144.7,131.8,163.1,139.9,165.4,154.3z M336.1,141.7c6-9.3,13.8-19.5,18.3-19.5c5.7,0,25.2,18,25.2,24.9c0,4.2-5.4,6.6-14.7,6.6
			h-57c0,0.3,0,0.6,0,0.9c0,3.9-3.9,6-12,7.5c-0.3,9.9-0.6,22.2-0.6,35.1h38.1c4.8-6.6,11.7-14.7,15.3-14.7
			c6.6,0,25.8,14.4,25.8,21.3c0,4.8-6.3,7.8-12.6,10.2c-1.8,37.2,0.6,142.8,0.6,161.4c0,9.3-5.4,11.7-13.8,11.7
			c-6.9,0-9.3-5.4-9.3-10.2v-12.3H206.2v14.7c0,6.6-4.5,10.2-13.8,10.2c-5.4,0-8.1-3.3-8.1-8.7c0-30.6,3-153.6-1.2-191.7
			c-0.3-2.1,1.8-4.2,4.2-4.2c4.8,0.6,21.6,6.3,28.2,12.3h22.2c-0.3-14.1-1.5-28.8-3-43.5H181c-3.9,0-6.6-1.2-6.6-6
			c0-4.5,2.7-6,6.6-6L336.1,141.7L336.1,141.7z M295.4,209.2c0,17.1,0,33.3,0,41.4c-0.3,11.1,1.8,12.9,10.5,12.9
			c6,0,10.2-2.1,12.3-5.7c2.7-4.8,3.9-12,5.1-17.1c1.8-6.9,9.3-6,9.3,1.2c0.3,19.8,6,19.2,6,26.4c0,9.6-12.9,13.8-32.7,13.8
			c-23.1,0-29.4-3.6-29.4-24c0-4.8,0.3-25.5,0.6-48.9h-20.7c-0.9,13.8-2.4,26.7-5.7,36.9c-5.4,18.6-19.2,34.8-33.3,46.2
			c-7.2,5.1-13.8-1.2-7.5-8.1c11.1-13.5,19.2-25.5,23.7-42.3c2.7-9.6,3.9-20.7,4.2-32.7h-30.9c-1.2,15.9-1.2,66.6-1.2,76.5l0.3,26.4
			H340c0.3-39,0.3-84.6,0.3-102.9L295.4,209.2L295.4,209.2z M339.8,352.6v-28.5H205.9v28.5H339.8z M277,197.2
			c0-15.6-0.3-31.5-1.2-43.5h-7.2c-0.3,3.9-3.6,6-11.7,8.1c0,11.4,0.3,23.7,0,35.4H277z"/>
	</g>
</g>
<path class="st1" d="M46.9,105.4C30.4,98.2,152.8,54,251.3,54.6c96.9,0.6,218.8,46.8,201.6,52.1c-28.3,8.7-103.2,20.1-203.7,19.7
	C148.7,126.2,63.5,112.7,46.9,105.4z"/>
</svg>
