<?xml version="1.0" encoding="utf-8"?>
<!-- Generator: Adobe Illustrator 24.1.0, SVG Export Plug-In . SVG Version: 6.00 Build 0)  -->
<svg version="1.1" id="レイヤー_1" xmlns="http://www.w3.org/2000/svg" xmlns:xlink="http://www.w3.org/1999/xlink" x="0px"
	 y="0px" viewBox="0 0 500 500" style="enable-background:new 0 0 500 500;" xml:space="preserve">
<style type="text/css">
	.st0{display:none;fill:#433E1C;stroke:#B31F23;stroke-width:9.2735;stroke-miterlimit:10;}
	.st1{display:none;fill:#FFFFFF;}
	.st2{fill:#FFFFFF;}
	.st3{fill:#BD1B21;}
	.st4{fill:none;stroke:#FFFFFF;stroke-width:9.2735;stroke-miterlimit:10;}
</style>
<rect x="-45" y="-37" class="st0" width="651" height="603"/>
<rect class="st1" width="500" height="500"/>
<rect x="118.41" y="122.33" class="st2" width="263.18" height="263.18"/>
<g>
	<g>
		<path class="st3" d="M146.64,250.4c0,10.8,0.6,114,0.6,126.3c0,6.9-4.2,10.8-13.8,10.8c-6,0-8.4-3.3-8.4-9
			c0-37.8,3.9-206.4-1.2-252c-0.3-1.8,1.5-4.2,4.2-4.2c3.9,0.3,22.2,6.3,29.4,12.6h47.7c4.2-5.7,9.3-12,12.6-12
			c5.7,0,22.8,12.9,22.8,19.5c0,3.9-5.1,6.6-10.2,8.4c-0.3,19.8,0.3,65.1,0.3,75.3c0,9.3-4.5,11.4-12.3,11.4c-7.2,0-9-5.4-9-10.2
			V224h-62.7L146.64,250.4L146.64,250.4z M209.34,212l0.3-27.6h-62.7c0,9,0,18.6-0.3,27.6H209.34z M148.14,147.2
			c-0.3,5.7-0.6,14.7-0.9,25.2h62.7c0-10.2,0-19.2,0-25.5h-60L148.14,147.2z M273.84,263.6c4.2-5.7,9.9-12,13.2-12
			c6,0,23.7,13.2,23.7,19.8c0,3.9-5.1,6.6-10.5,8.7c-0.3,17.7,0.3,51,0.3,60c0,9.3-4.8,11.7-12.9,11.7c-7.2,0-9.3-5.4-9.3-10.2v-8.7
			h-60.9v13.2c0,6.6-4.5,9.3-13.2,9.3c-5.4,0-8.1-2.7-8.1-8.1c0-18.6,1.5-64.5-1.2-90.3c-0.3-2.4,1.8-4.2,4.2-3.9
			c5.1,0.6,18,5.4,25.2,10.5H273.84z M278.64,320.9c0-15.3,0.3-34.8,0.3-45.3h-59.7l-1.5,0.3c-0.3,6.6-0.3,26.4-0.3,32.1v12.9
			H278.64z M347.65,134.9c4.8-6,11.7-13.2,13.8-13.2c7.2,0,27,16.5,27,22.2c0,3.9-5.7,6.9-12,9.3c-1.8,51.6-1.2,138.9-1.5,206.4
			c0,19.8-15.9,27.3-27.3,27.3c-11.1,0-4.8-12.9-23.4-18.6c-6.3-2.1-5.1-9.6,0.6-9.6c2.4,0,12.6,1.2,18.3,1.2
			c7.2,0,10.2-2.7,10.8-12c1.2-21,0.6-65.1,0.6-96V224h-65.4v4.5c0,6.3-4.5,9.3-13.5,9.3c-5.1,0-7.8-3-7.8-8.1
			c0-20.1,1.8-75-1.2-102.3c-0.3-2.4,1.8-4.2,4.2-3.9c5.4,0.6,19.5,6,26.1,11.4H347.65z M289.44,146.9c-0.3,5.4-0.3,16.5-0.6,25.5
			h65.7v-25.5H289.44z M354.54,212v-27.6h-65.7l0.3,27.6H354.54z"/>
	</g>
</g>
<rect x="101.07" y="104.14" class="st4" width="301.93" height="299.53"/>
</svg>
