<?xml version="1.0" encoding="utf-8"?>
<!-- Generator: Adobe Illustrator 24.1.0, SVG Export Plug-In . SVG Version: 6.00 Build 0)  -->
<svg version="1.1" id="レイヤー_1" xmlns="http://www.w3.org/2000/svg" xmlns:xlink="http://www.w3.org/1999/xlink" x="0px"
	 y="0px" viewBox="0 0 500 500" style="enable-background:new 0 0 500 500;" xml:space="preserve">
<style type="text/css">
	.st0{display:none;fill:#FFFFFF;}
	.st1{fill:#FFFFFF;}
	.st2{fill:#BD1B21;}
	.st3{fill:none;stroke:#FFFFFF;stroke-width:9.2167;stroke-miterlimit:10;}
	.st4{fill:none;stroke:#FFFFFF;stroke-width:9.1747;stroke-miterlimit:10;}
	.st5{fill:none;stroke:#FFFFFF;stroke-width:9.2295;stroke-miterlimit:10;}
	.st6{fill:none;stroke:#FFFFFF;stroke-width:9;stroke-miterlimit:10;}
</style>
<rect x="3" y="-8.2" class="st0" width="500" height="500"/>
<rect x="108.4" y="113.3" transform="matrix(0.7071 -0.7071 0.7071 0.7071 -107.0747 251.448)" class="st1" width="283.3" height="283.3"/>
<g>
	<g>
		<path class="st2" d="M227.3,244.9c6-9,13.5-18.9,17.7-18.9c6,0,25.2,17.4,25.2,24.3c0,4.2-5.7,6.6-14.4,6.6h-48.9
			c-2.1,25.2-6.3,46.5-16.8,65.1c-14.7,26.4-14.8,33-44.2,47.8c-9,4.5-18.2-5.2-9.8-11c26.1-18.3,24.3-21.5,35.7-44
			c8.7-16.8,12.3-35.7,13.8-57.9h-64.2c-3.9,0-6.6-1.2-6.6-6c0-4.5,2.7-6,6.6-6h64.8c0.6-18,0.3-38.1,0.3-61.5H164
			c-9.9,15.9-22.2,33-37.8,46.5c-6,5.4-12.9,0.9-8.1-6.3c11.4-15.9,21.3-32.7,28.8-48.6c0.3-0.6,0.3-0.9,0.6-1.2
			c9-19.5,15.3-38.1,18.3-54.9c0.6-3.3,2.1-4.2,5.7-3.6c9.3,2.1,30.3,11.4,30.3,17.7c0,5.1-6.3,6.6-15,5.1
			c-3.3,8.1-8.7,20.1-15.9,33.3h53.4c6-8.7,13.2-18.3,17.4-18.3c5.7,0,25.2,17.1,25.2,24c0,4.2-5.4,6.3-14.7,6.3h-34.8
			c0.3,0.3,0.3,0.9,0.3,1.2c-0.3,3.6-2.7,5.7-9.6,7.5c0,19.5,0,36.9-0.6,52.8L227.3,244.9L227.3,244.9z M257.9,333.1
			c0.9,8.4-3.9,14.7-12,15.6c-8.4,0.6-12.6-7.2-19.2-18.6c-4.8-7.8-10.5-15.6-15.9-22.5c-4.2-5.1-1.5-11.4,6.3-9.3
			C236.3,303.8,256.4,317.5,257.9,333.1z M347.9,157.6c4.5-6.3,10.5-12.9,14.1-12.9c6.6,0,25.5,14.1,25.5,21
			c0,4.8-6.3,7.8-12.6,10.2c-1.8,39.3,5.7,159,0.9,178.2c-2,8.1-6.9,10.8-13.8,11.7c-7.1,0.9-9.3-5.4-9.3-10.2v-18h-54.6v24
			c0,6.9-4.5,10.2-13.8,10.2c-5.7,0-8.4-3-8.4-8.7c0-33,3.3-172.5-1.2-213.3c-0.3-2.1,1.8-4.2,4.2-4.2c4.5,0.3,21,6,28.5,12H347.9z
			 M353,325.6c0.3-46.5,0.9-131.7,0.6-156h-52.8l-2.1,0.3c-1.2,17.7-1.2,75.6-1.2,86.4l0.3,69.3L353,325.6L353,325.6z"/>
	</g>
</g>
<line class="st3" x1="227.1" y1="0" x2="506.4" y2="283.4"/>
<line class="st4" x1="-6.4" y1="224.8" x2="274.7" y2="503.7"/>
<line class="st5" x1="226.6" y1="503.7" x2="506.4" y2="220.1"/>
<line class="st6" x1="-2.8" y1="275.6" x2="271.8" y2="0.9"/>
</svg>
