<?xml version="1.0" encoding="utf-8"?>
<!-- Generator: Adobe Illustrator 24.1.0, SVG Export Plug-In . SVG Version: 6.00 Build 0)  -->
<svg version="1.1" id="レイヤー_1" xmlns="http://www.w3.org/2000/svg" xmlns:xlink="http://www.w3.org/1999/xlink" x="0px"
	 y="0px" viewBox="0 0 500 500" style="enable-background:new 0 0 500 500;" xml:space="preserve">
<style type="text/css">
	.st0{fill:#FFFFFF;}
	.st1{fill:#BD1B21;}
</style>
<rect x="-19.78" y="-1.7" class="st0" width="500" height="500"/>
<path class="st1" d="M48.97,122.48c-53.39-12.72,25.31,190.57,93.24,245.92c15.08,12.29,14.8,11.61,31.36,28.18
	c12.62,12.63,9.58,32.67,14.52,43.54c6.26,13.77,118.2,17.12,127.36,3.66c8.83-12.97,3.47-30.19,20.02-43.98
	c19.37-16.14,13.1-6.21,34.85-27.38c49.38-48.07,124.2-273.47,70.14-247.55c-12.15,5.82-128.03,7.49-190.46,6.92
	C180.28,131.15,69.13,127.29,48.97,122.48z"/>
<g id="酒">
	<g id="酒_1_">
		<path class="st0" d="M163.35,273.38c-5.4,19.8-19.8,51-19.8,60c0,9.6,4.5,17.1,4.5,32.1c0,12.9-6.6,18.9-15.9,18.9
			c-9.3,0-11.7-8.1-11.7-13.5s3-18.9,0.3-26.7c-3.3-10.8-9.9-14.4-17.4-21c-4.8-4.2-0.9-10.5,4.2-8.7c4.2,1.2,10.8,3.6,14.4,4.8
			c3.3,0.6,4.8,0,7.5-3.9c5.4-9,17.4-35.4,23.1-45.6C156.15,262.58,165.15,265.58,163.35,273.38z M111.74,198.98
			c17.7,1.5,36.3,8.7,39.6,22.8c1.8,8.4-1.8,15.3-10.5,17.4c-8.1,1.8-12.6-5.1-19.2-13.5c-4.5-5.4-10.2-10.8-15.3-15.9
			C100.94,204.98,102.74,198.08,111.74,198.98z M165.44,154.28c1.5,8.4-2.7,15.3-11.4,16.8c-7.8,1.2-12-6-18.3-14.4
			c-4.5-6-9.6-11.7-14.7-16.8c-4.8-5.1-2.7-11.7,6-10.5C144.74,131.78,163.05,139.88,165.44,154.28z M336.15,141.68
			c6-9.3,13.8-19.5,18.3-19.5c5.7,0,25.2,18,25.2,24.9c0,4.2-5.4,6.6-14.7,6.6h-57c0,0.3,0,0.6,0,0.9c0,3.9-3.9,6-12,7.5
			c-0.3,9.9-0.6,22.2-0.6,35.1h38.1c4.8-6.6,11.7-14.7,15.3-14.7c6.6,0,25.8,14.4,25.8,21.3c0,4.8-6.3,7.8-12.6,10.2
			c-1.8,37.2,0.6,142.8,0.6,161.4c0,9.3-5.4,11.7-13.8,11.7c-6.9,0-9.3-5.4-9.3-10.2v-12.3h-133.2v14.7c0,6.6-4.5,10.2-13.8,10.2
			c-5.4,0-8.1-3.3-8.1-8.7c0-30.6,3-153.6-1.2-191.7c-0.3-2.1,1.8-4.2,4.2-4.2c4.8,0.6,21.6,6.3,28.2,12.3h22.2
			c-0.3-14.1-1.5-28.8-3-43.5h-53.7c-3.9,0-6.6-1.2-6.6-6c0-4.5,2.7-6,6.6-6L336.15,141.68L336.15,141.68z M295.35,209.18
			c0,17.1,0,33.3,0,41.4c-0.3,11.1,1.8,12.9,10.5,12.9c6,0,10.2-2.1,12.3-5.7c2.7-4.8,3.9-12,5.1-17.1c1.8-6.9,9.3-6,9.3,1.2
			c0.3,19.8,6,19.2,6,26.4c0,9.6-12.9,13.8-32.7,13.8c-23.1,0-29.4-3.6-29.4-24c0-4.8,0.3-25.5,0.6-48.9h-20.7
			c-0.9,13.8-2.4,26.7-5.7,36.9c-5.4,18.6-19.2,34.8-33.3,46.2c-7.2,5.1-13.8-1.2-7.5-8.1c11.1-13.5,19.2-25.5,23.7-42.3
			c2.7-9.6,3.9-20.7,4.2-32.7h-30.9c-1.2,15.9-1.2,66.6-1.2,76.5l0.3,26.4h134.1c0.3-39,0.3-84.6,0.3-102.9L295.35,209.18
			L295.35,209.18z M339.75,352.58v-28.5h-133.8v28.5H339.75z M277.05,197.18c0-15.6-0.3-31.5-1.2-43.5h-7.2c-0.3,3.9-3.6,6-11.7,8.1
			c0,11.4,0.3,23.7,0,35.4H277.05z"/>
	</g>
</g>
<path class="st1" d="M46.92,105.39C30.4,98.15,152.84,54.03,251.31,54.64c96.91,0.6,218.81,46.85,201.64,52.13
	c-28.26,8.68-103.16,20.05-203.67,19.71C148.71,126.15,63.49,112.66,46.92,105.39z"/>
</svg>
