<svg id="レイヤー_1" data-name="レイヤー 1" xmlns="http://www.w3.org/2000/svg" viewBox="0 0 370 393"><defs><style>.cls-1{fill:#19448e;stroke-width:1.48px;}.cls-1,.cls-10,.cls-11,.cls-12,.cls-13,.cls-14,.cls-15,.cls-16,.cls-17,.cls-18,.cls-19,.cls-2,.cls-20,.cls-21,.cls-3,.cls-4,.cls-5,.cls-6,.cls-7,.cls-8,.cls-9{stroke:#19448e;}.cls-10,.cls-11,.cls-12,.cls-13,.cls-14,.cls-15,.cls-16,.cls-17,.cls-18,.cls-19,.cls-2,.cls-20,.cls-21,.cls-3,.cls-4,.cls-5,.cls-6,.cls-7,.cls-8,.cls-9{fill:none;stroke-miterlimit:10;}.cls-2,.cls-6{stroke-width:0.8px;}.cls-4,.cls-6,.cls-8{stroke-linecap:round;}.cls-4{stroke-width:2.39px;}.cls-5{stroke-width:1.2px;}.cls-7,.cls-8{stroke-width:1.21px;}.cls-9{stroke-width:0.85px;}.cls-10{stroke-width:0.82px;}.cls-11{stroke-width:0.84px;}.cls-12{stroke-width:0.77px;}.cls-13{stroke-width:0.79px;}.cls-14{stroke-width:1.04px;}.cls-15{stroke-width:0.81px;}.cls-16{stroke-width:0.89px;}.cls-17{stroke-width:1.66px;}.cls-18{stroke-width:1.67px;}.cls-19{stroke-width:1.34px;}.cls-20{stroke-width:1.4px;}.cls-21{stroke-width:1.24px;}</style></defs><title>アートボード 1</title><g id="レイヤー_1-2" data-name="レイヤー 1"><path class="cls-1" d="M166.7,78.69V47.21c0-1.33,1.54-2.4,3.42-2.4,1.65,0,3.07.87,3.36,1.94h3.6c.29-1.07,1.65-1.94,3.36-1.94,1.89,0,3.42,1.07,3.42,2.4v11.4c0,.37-.41.62-.89.62H178.2l-4.66,3.14V75.26H177V63.94c0-1.32,1.53-2.4,3.42-2.4s3.42,1.08,3.42,2.4V75.88c0,.37-.41.62-.89.62h-9.43v2.19c0,.38-.41.62-.88.62h-5.07C167.12,79.31,166.7,79.11,166.7,78.69Zm6.84-18L177,58.33V48h-3.48Zm12.32-13.31c0-.33.42-.62.89-.62h27.59c.47,0,.89.29.89.62s-.42.62-.89.62h-2.06V78.7c0,.38-.41.62-.89.62H194.53c-.53,0-.88-.33-.88-.66s.35-.62.88-.62h10.91V48H186.75c-.47,0-.89-.3-.89-.66Zm15.92,23.18H187.1c-.47,0-.88-.29-.88-.62V56c0-1.28,1.47-2.32,3.3-2.32a3.39,3.39,0,0,1,3.18,1.7h3.48a3.41,3.41,0,0,1,3.19-1.7c1.82,0,3.3,1,3.3,2.32V69.93c0,.33-.42.62-.89.63Zm-5.72-13.92h-3.24V69.31h3.24Z"/><path class="cls-1" d="M166.05,120.43l5.19-5.33v-7.73c0-1.36,1.59-2.48,3.54-2.48s3.54,1.12,3.54,2.48v7.89c0,.38-.36.62-.89.62h-4.77l-5.13,5.23a1.21,1.21,0,0,1-1.24.13.5.5,0,0,1-.33-.64A.56.56,0,0,1,166.05,120.43ZM173.72,90v.45H178c.48,0,.89.25.89.62s-.41.62-.89.62H167.1c-.48,0-.89-.29-.89-.62V90c0-1.45,1.71-2.65,3.78-2.65S173.72,88.57,173.72,90Zm-7.55,8.3c0-1.44,1.71-2.64,3.78-2.64s3.77,1.2,3.77,2.64v.46H178c.48,0,.89.29.89.62s-.41.62-.89.62H167.1c-.48,0-.89-.29-.89-.62Zm12.15,21,3.24-3.3V90.93c0-1.37,1.59-2.48,3.54-2.48,1.71,0,3.12.82,3.48,1.94h6.84V88.11c0-1.36,1.59-2.47,3.53-2.47s3.54,1.11,3.54,2.47v2.32h4.89c.18-1.24,1.66-2.23,3.48-2.23s3.54,1.11,3.54,2.48v6c0,.33-.35.62-.88.62h-5.31c-.47,0-.88-.29-.88-.62v-5h-4.84v8.84h4.89c.3-1.16,1.71-2,3.48-2,1.95,0,3.54,1.11,3.54,2.48v7.89c0,.33-.41.62-.88.62h-5.07L202.2,113l12.61,7.09c.36.25.42.62.12.87a1.12,1.12,0,0,1-1.24.12l-12.85-7.31L188,121.11a1.11,1.11,0,0,1-1.24-.12c-.36-.25-.3-.62.12-.87L199.43,113l-8.67-4.86c-.36-.24-.42-.62-.12-.86a1.13,1.13,0,0,1,1.24-.13l9,5.08,6.49-3.67v-6.82h-18.7v14.55c0,.33-.41.62-.88.62H182.9L179.83,120a1.21,1.21,0,0,1-1.24.12c-.45-.17-.59-.58-.27-.82Zm10.31-18.84h6.79V91.64h-6.79Z"/><path class="cls-1" d="M183.45,144.93c0,.33-.36.62-.89.62h-5.42c-.47,0-.89-.29-.89-.62V134.6c0-1.4,1.65-2.52,3.6-2.52s3.6,1.12,3.6,2.52Zm30.24-10.53v16.28c0,.33-.35.62-.88.62H207.5l-22.93,8.39a1.1,1.1,0,0,1-1.18-.25c-.24-.29-.06-.66.35-.83l22.76-8.35V134.4c0-1.41,1.65-2.52,3.6-2.52S213.69,133,213.69,134.4Zm-22.23,11.15c-.53,0-.88-.29-.88-.62V134.6c0-1.4,1.59-2.52,3.6-2.52s3.59,1.12,3.59,2.52v10.33c0,.33-.41.62-.88.62Z"/><path class="cls-1" d="M170.06,173c0-.33.42-.62.89-.62h18.69c.47,0,.88.29.88.62s-.41.62-.88.62H171C170.48,173.57,170.06,173.32,170.06,173Zm0,10.21c0-.33.42-.62.89-.62h18.69c.47,0,.88.29.88.62s-.41.62-.88.62H171C170.48,183.78,170.06,183.49,170.06,183.16Zm1.18,19.58,31.37-7.23V179.23c0-1.49,1.71-2.68,3.83-2.68s3.83,1.19,3.83,2.68v16.88c0,.33-.41.62-.88.62h-5.9a.45.45,0,0,1-.23,0L171.83,204a1,1,0,0,1-1.12-.37c-.18-.39.06-.76.53-.85Z"/><path class="cls-1" d="M214.34,239.93c0,.33-.41.62-.88.62H175.61c-.48,0-.89-.29-.89-.62s.41-.62.89-.62h27.53v-21.4H177.2c-.47,0-.89-.29-.89-.62s.42-.62.89-.62h26.06a3.47,3.47,0,0,1,3.48-2c2,0,3.59,1.11,3.59,2.52v22.1h3.13C213.93,239.31,214.34,239.56,214.34,239.93Z"/><path class="cls-2" d="M334.84,198c-20.84.1-42.84-.9-63.84.1-5,1-10,3-11,8,0,2,0,5,2,6,13,5,27,0,41,2,4,1,7,5,4,9a7.64,7.64,0,0,1-5,2c-19,0-39,0-57.79.09"/><path class="cls-2" d="M284.28,198.23c-16.66-.58-14.53,13.88-8,15.46,2.46.59,4.48.28,6.39.35"/><path class="cls-3" d="M282.76,214c-1.91-.06-3.93.25-6.39-.35-6.49-1.57-8.05-15.87,8.05-15.45h0c-32.49-3.65-25.79,15.87-17,15.74,2.53,0,10.61.13,15.06.13Z"/><path class="cls-4" d="M49.18,314.12a168.23,168.23,0,0,1-28.79-55.38A172.22,172.22,0,0,1,32.57,131.1a163.56,163.56,0,0,1,95.69-80.33q4-1.27,8-2.34"/><path class="cls-4" d="M319.34,321c-5.26,5-17.26,16-18.26,17-46,44-112,57-171,37-29-10-55-29-75.33-52.25"/><path class="cls-4" d="M245.82,54.06c12.18,6,24.18,9,36.18,17,10,7,18,12,26,21,13,15,25,28,33,45,7,14,13,28,15,44a181.06,181.06,0,0,1,3,46,157.94,157.94,0,0,1-9,42c-7,17-14.48,32.32-26.1,46.42"/><path class="cls-5" d="M42.12,274.36C44,275.5,77.56,356,170,361.71"/><path class="cls-2" d="M79.81,323.09a121.21,121.21,0,0,0-44.37,0c10.08-11,27.81-13,45.18.6"/><path class="cls-5" d="M323.11,274.25s-25.49,66-111.29,85.62"/><path class="cls-2" d="M326.27,260.92c-1.56-3.85-4.16-5.85-6.62-5.24-2.91.72-4.26,5.43-3,10.52s4.63,8.65,7.54,7.93c1.5-.37,2.58-1.81,3.11-3.81"/><path class="cls-2" d="M337.05,254.75a11.42,11.42,0,0,0-9.94,4.57c-3.13,4.21-3.55,9.14-1.11,10.89s6.89-.3,9.94-4.57S340,255,337.05,254.75Z"/><path class="cls-2" d="M338.43,240c.52-3.1-.89-8.22-4.93-7.48-3.45.63-5.61,5.05-6.45,8"/><path class="cls-2" d="M325.35,259.23c.23,0,.08,0,.32,0,3-.05,5.35-4.35,5.26-9.6s-2.6-9.45-5.6-9.4-5.35,4.35-5.26,9.6a11.7,11.7,0,0,0,1.44,6c-.13-.23,0-.05.16-.05"/><path class="cls-2" d="M329.69,255.14c2.42.94,6.31-.56,9.4-3.84,3.6-3.81,4.76-8.57,2.58-10.63s-6.87-.64-10.47,3.18a8.73,8.73,0,0,0-1.1,1.3"/><path class="cls-2" d="M50.37,259.26c-2.91-.72-6.3,2.83-7.54,7.93-1.38,5.68,0,10.26,3,10.52s6.29-2.83,7.54-7.93S53.28,260,50.37,259.26Z"/><path class="cls-2" d="M43.82,264.28a7.52,7.52,0,0,0-.93-1.42c-3-4.27-7.5-6.32-9.94-4.57s-2,6.62,1.11,10.89c2.88,4,6,6.24,8.54,5"/><path class="cls-2" d="M43.09,244.34a8.3,8.3,0,0,0-.27-.94c-1.61-5-5.23-8.3-8.08-7.38-2.29.74-3.45,3.39-3,7.22,0,0,.67.18.71.18"/><path class="cls-6" d="M48.63,259.28c1-1.69,1.25-3.37,1.3-5.95.1-5.25-2.26-9.54-5.26-9.6s-5.51,4.15-5.6,9.4,2.26,9.54,5.26,9.6c.46,0,0,.09.42-.1"/><path class="cls-2" d="M39.78,248.71a10.1,10.1,0,0,0-1-1.33c-3.6-3.81-8.29-5.23-10.47-3.18s-1.46,7.28,2.58,10.63c3.21,2.66,7.13,4,9.4,3.84"/><path class="cls-2" d="M285.81,323.58s32.76-8.59,44.37,0c-7.5-17.05-34-7.75-45.18.59"/><path class="cls-2" d="M262,341.26s19.44-35.76-3-44.87c5.27,9.73,8,19.92,2.71,45.1"/><path class="cls-7" d="M202.81,301.93a50,50,0,0,1-26.39-.48l.73,13.93s-2.38,9.16-6.23,8.79c-3.66,2.39-15,21.26,5.5,47.29h26.39"/><path class="cls-7" d="M178,301.93a50,50,0,0,0,26.39-.48l-.73,13.93s2.38,9.16,6.23,8.79c3.67,2.39,15,21.26-5.5,47.29H178"/><path class="cls-8" d="M204.49,300.42s-15.69-4.94-28.17.22"/><path class="cls-9" d="M73.37,207c-.32-.67.92-25.11,37.08-25.2,13.36,0,21.14,3.15,26.39,7.61"/><path class="cls-9" d="M78,207.3s1.07-21.21,32.36-22c15.36-.38,22.52,3.94,26.45,9.38"/><path class="cls-9" d="M83.32,207.73s.44-19,27-19,26.37,19,26.37,19"/><path class="cls-9" d="M88.62,207.73s.36-15.26,21.65-15.26,21.13,15.26,21.13,15.26"/><path class="cls-3" d="M93.72,207.3s.27-10.09,16.49-10.09S126.3,207.3,126.3,207.3"/><path class="cls-9" d="M37.54,205.39s4.51-23.52,33.77-26.12C88.89,177.7,94.39,184,94.39,184"/><path class="cls-9" d="M100.59,182.61s-8.59-9.36-29.81-7.5c-33.6,2.93-37.6,30.29-37.6,30.29"/><path class="cls-9" d="M42.53,205.64s4-19.86,28.78-22.6c14.71-1.63,18.06,2.89,18.06,2.89"/><path class="cls-9" d="M48.58,205.39s2.74-14.82,22.73-17.57C79.47,186.7,84.14,189,84.14,189"/><path class="cls-3" d="M78,194.17s-15.67-4-22.29,12.67c1,0,17.39.33,17.39.33S72.88,201.45,78,194.17Z"/><path class="cls-3" d="M92.08,177.32s6.58,2.11,8.22,4.8c2.26-.33,13.88-.76,16.44-.26C113.25,174.34,98.85,172.24,92.08,177.32Z"/><path class="cls-10" d="M82.31,174.86s8-10,26.58-7.63C125.77,169.37,128,184.51,128,184.5"/><path class="cls-11" d="M75.71,174.86s9.51-14.68,34.3-11.7c24.21,2.9,24.28,24.36,24.28,24.36"/><path class="cls-2" d="M283.49,281.81s.27-24.82-31.42-25a36.1,36.1,0,0,0-8.23.83"/><path class="cls-2" d="M278.79,282.68s.74-22.41-26.69-22.41a35.89,35.89,0,0,0-8.52.87"/><path class="cls-2" d="M274.63,282.68s.86-19-22.43-19a29,29,0,0,0-8.59,1"/><path class="cls-2" d="M270,282.68s.58-15-18.09-15a22.84,22.84,0,0,0-8.31,1.37"/><path class="cls-2" d="M266.05,282.61s-.78-10.45-15-10.45c-5.14,0-6,.38-6.89,2a4.25,4.25,0,0,0-.23,1.46,11.08,11.08,0,0,0,.22,3.63c.17.41.45,3,0,3-1.16,0,21.41-.19,21.81,0"/><path class="cls-2" d="M315.39,281.3s-4.57-24.6-30.24-27.06c-14.26-1.37-20,4.44-20,4.44"/><path class="cls-2" d="M259.48,257.57s7.52-9.35,26.14-7.5c29.45,2.93,33.61,30.53,33.61,30.53"/><path class="cls-2" d="M310.38,281.3s-3.53-20.7-25.23-23.3c-10.83-1.31-15.15,2.61-15.15,2.61"/><path class="cls-2" d="M305.73,281.3a24.58,24.58,0,0,0-20.58-18.52c-7.15-1.12-10.55.87-10.55.87"/><path class="cls-2" d="M279.37,268.58s16.46-4,21.59,12.63c-.95,0-17.47.6-17.47.6C283,282,284.09,275.75,279.37,268.58Z"/><path class="cls-2" d="M266.53,252.49s-5.1,2.28-6.53,5c-2-.34-11-1.13-13.2-.63C251.84,251,260.1,250,266.53,252.49Z"/><path class="cls-12" d="M277.88,249.82s-7.45-10.2-24.56-6.59c-4.35.92-6.73,2.06-9.37,4.36"/><path class="cls-13" d="M282.83,249.82s-7-13.91-29.26-10.45a23.12,23.12,0,0,0-9.9,3.52"/><path class="cls-9" d="M87.2,176a26.36,26.36,0,0,1,23.5-4c3.25.81,8.43,3.45,11.07,10.79"/><path class="cls-2" d="M243.67,254a18.47,18.47,0,0,1,13-6.87c11.61-1.32,15.31,3.73,15.31,3.73"/><path class="cls-14" d="M45.77,244l50.36-.85s10.91-1.64,10.7,5.47c0,4.64-4.2,6.55-6.57,7.26a8.36,8.36,0,0,1-2.63.36l-47.79-.58"/><path class="cls-15" d="M63.06,243.68l32.69-.77s10.83-1.41,11.09,6.27c-1,7.62-11,6.65-12.45,6.65H63.68s17.47-.07,27.21-2.06c3.32-.68,5.42-6,.27-8.41C87,243.44,82.49,242.7,63.06,243.68Z"/><path class="cls-3" d="M63.06,243.68l17.34-.41,15.35-.36s10.83-1.41,11.09,6.27c-1,7.62-11,6.65-12.45,6.65H63.68s17.47-.07,27.21-2.06c3.32-.68,5.42-6,.27-8.41C87,243.44,82.49,242.7,63.06,243.68Z"/><path class="cls-16" d="M136.67,212.41H99.77s-9.5-.45-9.5,6.64S99,225.69,99,225.69H136.7"/><line class="cls-12" x1="285.17" y1="96.25" x2="285.17" y2="133.15"/><line class="cls-12" x1="82.31" y1="93.9" x2="83.62" y2="134.09"/><line class="cls-12" x1="51.24" y1="134.09" x2="136.31" y2="134.09"/><polygon class="cls-12" points="270.49 134.09 244.15 134.09 244.15 134.09 244.15 113.83 244.15 102 270.49 102 270.49 134.09"/><polygon class="cls-12" points="136.31 134.09 101.81 134.09 101.81 102 136.7 102 136.31 134.09"/><polyline class="cls-2" points="244.15 76.8 244.16 92.39 281.45 92.28"/><line class="cls-6" x1="136.7" y1="92.34" x2="85.45" y2="92.34"/><line class="cls-17" x1="244.17" y1="274.15" x2="244.06" y2="288.96"/><polyline class="cls-18" points="244.15 52.57 244.15 273.32 244.15 274.15"/><line class="cls-17" x1="136.31" y1="274.15" x2="136.31" y2="288.97"/><polyline class="cls-2" points="129.53 65.73 129.53 113.83 136.31 113.83"/><polyline class="cls-2" points="250.93 72.91 250.93 113.83 244.15 113.83"/><line class="cls-12" x1="244.16" y1="134.09" x2="316.96" y2="134.09"/><polyline class="cls-18" points="244.15 274.15 244.15 277.17 242.29 277.17 136.31 277.17 136.31 16.36 244.15 16.36 244.15 52.57"/><rect class="cls-19" x="147.26" y="27.04" width="85.94" height="239.46"/><path class="cls-20" d="M139.71,313.79c5.22,20.09,3.4,31.48,3.4,31.48l-10.21.38-1.22-6.44s.61,3.22-4.57,7.72c-1.07-20.64,5.38-33.65,5.38-33.65"/><path class="cls-3" d="M129.47,301.45a15.85,15.85,0,0,1,5.61-12.19c-6.3.13-11.36,5.53-11.36,12.19s5.06,12.06,11.36,12.19A15.85,15.85,0,0,1,129.47,301.45Z"/><path class="cls-3" d="M148.9,301.45c0-6.71-5.15-12.16-11.51-12.2a16.07,16.07,0,0,1,1.74,22.66,15.88,15.88,0,0,1-1.74,1.74C143.75,313.6,148.9,308.16,148.9,301.45Z"/><ellipse class="cls-3" cx="136.24" cy="301.45" rx="5.12" ry="10.95"/><path class="cls-20" d="M248.25,312.75c5.32,20.06,3.71,32.84,3.71,32.84l-10.21.45-1.25-6.43s.63,3.22-4.53,7.75c-1.17-20.64,5.44-34.17,5.44-34.17"/><path class="cls-3" d="M237.17,301.45a15.85,15.85,0,0,1,5.61-12.19c-6.3.13-11.36,5.53-11.36,12.19s5.06,12.06,11.36,12.19A15.85,15.85,0,0,1,237.17,301.45Z"/><path class="cls-3" d="M256.6,301.45c0-6.71-5.15-12.16-11.51-12.2a16.07,16.07,0,0,1,1.74,22.66,15.88,15.88,0,0,1-1.74,1.74C251.45,313.6,256.6,308.16,256.6,301.45Z"/><ellipse class="cls-3" cx="243.94" cy="301.45" rx="5.12" ry="10.95"/><path class="cls-21" d="M44.07,277.73c9,19.9,24.2,34.74,39.12,48.12s32.55,24.22,51.8,30.26a115.07,115.07,0,0,0,33.6,5.35"/><path class="cls-21" d="M136,63.57A149,149,0,0,0,67.43,109,152.92,152.92,0,0,0,33,237.38"/><path class="cls-21" d="M335.75,232.64c4.82-32-.21-67.06-16.72-95.19-10.31-17.58-25-33-39.21-47.49-9.8-10-23-15.47-35.49-21.3"/><path class="cls-21" d="M211.82,359.87c47.18-9.76,90.18-41.76,111-85.38"/></g></svg>