<?xml version="1.0" encoding="utf-8"?>
<!-- Generator: Adobe Illustrator 24.1.0, SVG Export Plug-In . SVG Version: 6.00 Build 0)  -->
<svg version="1.1" id="レイヤー_1" xmlns="http://www.w3.org/2000/svg" xmlns:xlink="http://www.w3.org/1999/xlink" x="0px"
	 y="0px" viewBox="0 0 500 500" style="enable-background:new 0 0 500 500;" xml:space="preserve">
<style type="text/css">
	.st0{display:none;fill:#FFFFFF;}
	.st1{display:none;fill:#006293;}
	.st2{fill:#FFFFFF;}
	.st3{fill:#BD1B21;}
	.st4{fill:none;stroke:#FFFFFF;stroke-width:17.6829;stroke-miterlimit:10;}
</style>
<rect class="st0" width="500" height="500"/>
<rect x="-35" y="-45" class="st1" width="620" height="564"/>
<circle class="st2" cx="250" cy="250" r="148.18"/>
<g>
	<g>
		<path class="st3" d="M195.62,259.91c13.5-3.6,25.8-7.5,37.5-11.4c12.3-3.3,15.6,4.5,3.9,10.2c-12.6,6.6-26.4,12.9-41.1,18.6
			c0.3,36,0.9,92.7,0.9,102.3c0,6.9-4.2,10.5-14.1,10.5c-6,0-9.3-3.3-9.3-9c0-10.2,1.8-62.1,2.4-96.6c-11.4,4.2-23.4,7.8-35.4,11.4
			c-1.5,7.5-4.2,14.7-9.3,14.7c-6.3-0.3-11.4-14.1-13.8-30c0-2.7,1.2-3.9,3.6-4.5c20.4-3.6,38.7-7.5,55.5-11.4v-6
			c0-6,0.3-27.3,0-51.9h-26.4c-4.5,15-11.1,30.9-21.3,46.2c-4.8,7.2-12.3,4.2-9.9-4.5c13.2-36.3,18.3-72.3,14.1-99.6
			c-0.6-3,1.2-4.8,4.2-5.1c11.4-0.3,33.6,5.4,34.5,12c0.9,4.5-3.6,6.9-12.6,7.8c-1.2,8.4-2.7,19.2-5.7,31.2h23.1
			c-0.6-26.4-1.5-53.7-4.2-68.1c-0.6-2.7,1.2-4.2,3.9-4.2c20.1,0,35.7,1.8,35.7,9.3c0,5.1-6.3,8.4-15.6,10.5
			c-0.3,9.6-0.3,30.9-0.6,52.5h4.5c5.4-9,12.3-18.6,16.2-18.6c6,0,22.2,17.7,22.2,24c0,4.5-6.3,6.6-12,6.6h-30.9v45L195.62,259.91
			L195.62,259.91z M236.72,182.21c-3.9,0-6.6-1.2-6.6-6c0-4.5,2.7-6,6.6-6h51.3c-0.3-18-0.9-34.5-1.8-43.5c-0.3-2.7,1.5-4.2,4.2-4.2
			c5.1,0,34.2,0.9,34.2,8.7c0,6.3-6.6,8.7-15.9,10.8v28.2h30c6.3-9.3,14.4-20.4,19.2-20.4c6,0,26.7,18.3,26.7,25.5
			c0,4.2-6,6.9-15.6,6.9h-60.3v39.3h41.4c6.3-9.3,14.1-20.1,18.9-20.1c6,0,26.7,18,26.7,25.2c0,4.5-5.4,6.9-15.9,6.9h-160.8
			c-3.9,0-6.6-1.2-6.6-6c0-4.5,2.7-6,6.6-6h69c0.3-11.4,0.3-25.5,0.3-39.3L236.72,182.21L236.72,182.21z M355.22,274.91
			c5.7-8.7,12.6-18,16.5-18c5.7,0,23.7,17.1,23.7,23.7c0,4.2-5.1,6.3-13.5,6.3h-35.4c0,24.9,0,54.6,0,79.2
			c0.3,13.8-9.6,22.2-22.2,22.2c-9.3,0-7.8-8.7-26.7-15.6c-7.2-2.4-5.7-10.2,0.3-9.9c6,0.6,15.3,1.5,18.9,1.5c6,0,9.3-2.4,9.6-9
			c0.6-12,0.6-26.7,0.6-42.9c0-5.1-0.3-15-0.6-25.5h-105.9c-3.9,0-6.6-1.2-6.6-6c0-4.5,2.7-6,6.6-6h105.6c-0.6-12.3-1.2-24-1.8-29.4
			c-0.6-3.6,0.3-5.4,3.9-5.4c15.3,0,31.2,2.1,31.2,7.8c0,4.8-7.5,6.9-12.6,7.8c0,5.7-0.3,12-0.3,19.2L355.22,274.91L355.22,274.91z
			 M289.82,330.71c0.3,8.7-4.8,15-13.8,15.3c-8.4,0.3-11.7-7.8-16.8-17.1c-3.6-6.6-8.1-12.9-12.3-18.9c-4.5-6-1.5-12.3,7.2-9.9
			C271.82,304.91,289.52,315.71,289.82,330.71z"/>
	</g>
</g>
<circle class="st4" cx="250" cy="250.92" r="167.14"/>
</svg>
