<?xml version="1.0" encoding="utf-8"?>
<!-- Generator: Adobe Illustrator 24.1.0, SVG Export Plug-In . SVG Version: 6.00 Build 0)  -->
<svg version="1.1" id="レイヤー_1" xmlns="http://www.w3.org/2000/svg" xmlns:xlink="http://www.w3.org/1999/xlink" x="0px"
	 y="0px" viewBox="0 0 500 500" style="enable-background:new 0 0 500 500;" xml:space="preserve">
<style type="text/css">
	.st0{fill:#FFFFFF;}
	.st1{fill:#BD1B21;}
	.st2{fill:none;stroke:#BD1B21;stroke-width:9.2167;stroke-miterlimit:10;}
	.st3{fill:none;stroke:#BD1B21;stroke-width:9.1747;stroke-miterlimit:10;}
	.st4{fill:none;stroke:#BD1B21;stroke-width:9.2295;stroke-miterlimit:10;}
	.st5{fill:none;stroke:#BD1B21;stroke-width:9;stroke-miterlimit:10;}
</style>
<rect x="3" y="-8.24" class="st0" width="500" height="500"/>
<rect x="108.36" y="113.34" transform="matrix(0.7071 -0.7071 0.7071 0.7071 -107.0733 251.4551)" class="st1" width="283.26" height="283.26"/>
<g>
	<g>
		<path class="st0" d="M227.32,244.95c6-9,13.5-18.9,17.7-18.9c6,0,25.2,17.4,25.2,24.3c0,4.2-5.7,6.6-14.4,6.6h-48.9
			c-2.1,25.2-6.3,46.5-16.8,65.1c-14.7,26.4-36,44.7-65.4,59.4c-9,4.5-14.4-3.9-6-9.6c26.1-18.3,41.7-34.5,53.1-57
			c8.7-16.8,12.3-35.7,13.8-57.9h-64.2c-3.9,0-6.6-1.2-6.6-6c0-4.5,2.7-6,6.6-6h64.8c0.6-18,0.3-38.1,0.3-61.5h-22.5
			c-9.9,15.9-22.2,33-37.8,46.5c-6,5.4-12.9,0.9-8.1-6.3c11.4-15.9,21.3-32.7,28.8-48.6c0.3-0.6,0.3-0.9,0.6-1.2
			c9-19.5,15.3-38.1,18.3-54.9c0.6-3.3,2.1-4.2,5.7-3.6c9.3,2.1,30.3,11.4,30.3,17.7c0,5.1-6.3,6.6-15,5.1
			c-3.3,8.1-8.7,20.1-15.9,33.3h53.4c6-8.7,13.2-18.3,17.4-18.3c5.7,0,25.2,17.1,25.2,24c0,4.2-5.4,6.3-14.7,6.3h-34.8
			c0.3,0.3,0.3,0.9,0.3,1.2c-0.3,3.6-2.7,5.7-9.6,7.5c0,19.5,0,36.9-0.6,52.8L227.32,244.95L227.32,244.95z M257.92,333.15
			c0.9,8.4-3.9,14.7-12,15.6c-8.4,0.6-12.6-7.2-19.2-18.6c-4.8-7.8-10.5-15.6-15.9-22.5c-4.2-5.1-1.5-11.4,6.3-9.3
			C236.32,303.75,256.42,317.55,257.92,333.15z M347.92,157.65c4.5-6.3,10.5-12.9,14.1-12.9c6.6,0,25.5,14.1,25.5,21
			c0,4.8-6.3,7.8-12.6,10.2c-1.8,39.3,0.9,158.4,0.9,178.2c0,9.3-5.4,11.7-13.8,11.7c-7.2,0-9.3-5.4-9.3-10.2v-18h-54.6v24
			c0,6.9-4.5,10.2-13.8,10.2c-5.7,0-8.4-3-8.4-8.7c0-33,3.3-172.5-1.2-213.3c-0.3-2.1,1.8-4.2,4.2-4.2c4.5,0.3,21,6,28.5,12H347.92z
			 M353.02,325.65c0.3-46.5,0.9-131.7,0.6-156h-52.8l-2.1,0.3c-1.2,17.7-1.2,75.6-1.2,86.4l0.3,69.3L353.02,325.65L353.02,325.65z"
			/>
	</g>
</g>
<line class="st2" x1="227.14" y1="0" x2="506.36" y2="283.35"/>
<line class="st3" x1="-6.36" y1="224.76" x2="274.69" y2="503.7"/>
<line class="st4" x1="226.62" y1="503.7" x2="506.36" y2="220.09"/>
<line class="st5" x1="-2.85" y1="275.58" x2="271.83" y2="0.91"/>
</svg>
