<?xml version="1.0" encoding="utf-8"?>
<!-- Generator: Adobe Illustrator 24.1.0, SVG Export Plug-In . SVG Version: 6.00 Build 0)  -->
<svg version="1.1" id="レイヤー_1" focusable="false"
	 xmlns="http://www.w3.org/2000/svg" xmlns:xlink="http://www.w3.org/1999/xlink" x="0px" y="0px" viewBox="0 0 512 512"
	 style="enable-background:new 0 0 512 512;" xml:space="preserve">
<style type="text/css">
	.st0{fill:#19448E;}
</style>
<g>
	<path class="st0" d="M256,32c141.4,0,256,93.1,256,208c0,49.6-21.4,95-57,130.7c12.5,50.4,54.3,95.3,54.8,95.8
		c2.2,2.3,2.8,5.7,1.5,8.7s-4.1,4.8-7.3,4.8c-66.3,0-116-31.8-140.6-51.4c-32.7,12.3-69,19.4-107.4,19.4C114.6,448,0,354.9,0,240
		S114.6,32,256,32z M384,272c17.7,0,32-14.3,32-32s-14.3-32-32-32s-32,14.3-32,32S366.3,272,384,272z M256,272c17.7,0,32-14.3,32-32
		s-14.3-32-32-32s-32,14.3-32,32S238.3,272,256,272z M128,272c17.7,0,32-14.3,32-32s-14.3-32-32-32s-32,14.3-32,32
		S110.3,272,128,272z"/>
</g>
</svg>
