<svg id="レイヤー_1" data-name="レイヤー 1" xmlns="http://www.w3.org/2000/svg" viewBox="0 0 500 500"><defs><style>.cls-1{fill:#6e96e8;}.cls-1,.cls-2{stroke:#19448e;stroke-miterlimit:10;stroke-width:10px;}.cls-2{fill:#fff;}.cls-3{fill:#19448e;}</style></defs><title>s_sands_img01</title><g id="中"><g id="星"><path class="cls-1" d="M318.2,63.68l-41.12-6-14.4-29.19-4-8.08c-5.73-11.6-15.1-11.6-20.83,0L219.47,57.71l-41.12,6c-12.81,1.86-15.71,10.78-6.44,19.81l6.45,6.29,6.45,6.29h0l16.85,16.43-5.5,32.08-1.52,8.87c-2.19,12.76,5.4,18.27,16.85,12.25l36.78-19.34,36.78,19.34c11.46,6,19.05.51,16.86-12.25l-1.52-8.87-1.53-8.88h0l-4-23.2,16.85-16.43h0l6.45-6.29,6.45-6.28C333.91,74.46,331,65.54,318.2,63.68Z"/><path class="cls-1" d="M161.92,196l-41.12-6-14.41-29.19-4-8.07c-5.73-11.61-15.11-11.61-20.84,0L63.18,190.07l-41.12,6c-12.81,1.86-15.7,10.78-6.43,19.82l6.45,6.28,6.45,6.29h0l16.85,16.43-5.5,32.08-1.52,8.87c-2.19,12.76,5.39,18.27,16.85,12.25L92,278.72l36.78,19.34c11.46,6,19,.51,16.86-12.25l-1.53-8.87-1.52-8.88h0l-4-23.2,16.86-16.43h0l6.45-6.29,6.45-6.28C177.63,206.82,174.73,197.9,161.92,196Z"/><path class="cls-1" d="M216.9,385.33l-41.12-6-14.4-29.19-4-8.07c-5.73-11.61-15.1-11.61-20.83,0l-18.39,37.26-41.12,6c-12.81,1.87-15.71,10.78-6.44,19.82l6.45,6.29,6.45,6.28h0l16.86,16.43-5.51,32.08-1.52,8.88c-2.19,12.76,5.4,18.27,16.86,12.24L147,468l36.78,19.33c11.45,6,19,.52,16.85-12.24l-1.52-8.88-1.52-8.88h0l-4-23.2,16.85-16.43h0l6.45-6.28,6.45-6.29C232.61,396.11,229.71,387.2,216.9,385.33Z"/><path class="cls-2" d="M418.55,385.33l-41.12-6L363,350.17l-4-8.07c-5.73-11.61-15.11-11.61-20.83,0l-18.39,37.26-41.13,6c-12.81,1.87-15.7,10.78-6.43,19.82l6.45,6.29,6.45,6.28h0L302,434.15l-5.5,32.08L295,475.11c-2.19,12.76,5.39,18.27,16.85,12.24L348.62,468l36.78,19.33c11.46,6,19,.52,16.86-12.24l-1.53-8.88-1.52-8.88h0l-4-23.2,16.86-16.43h0l6.45-6.28,6.45-6.29C434.26,396.11,431.36,387.2,418.55,385.33Z"/><path class="cls-2" d="M474.32,196l-41.12-6-14.41-29.19-4-8.07c-5.73-11.61-15.11-11.61-20.84,0l-18.39,37.27-41.12,6c-12.81,1.86-15.7,10.78-6.43,19.82l6.45,6.28,6.45,6.29h0l16.85,16.43-5.5,32.08-1.52,8.87c-2.19,12.76,5.39,18.27,16.85,12.25l36.78-19.34,36.78,19.34c11.46,6,19,.51,16.86-12.25l-1.53-8.87L455,268.06h0l-4-23.2,16.86-16.43h0l6.45-6.29,6.45-6.28C490,206.82,487.13,197.9,474.32,196Z"/></g><path class="cls-3" d="M298.06,238.19a81.09,81.09,0,0,0,11.25-.45,58.32,58.32,0,0,0-.75,11.25v35.7a58.32,58.32,0,0,0,.75,11.25,85.24,85.24,0,0,0-8.85-.45h-41.1v36a59.29,59.29,0,0,0,.75,9h-24l.15-1.5a47,47,0,0,0,.6-7.5v-36h-38.1a84.49,84.49,0,0,0-11.25.45,57.38,57.38,0,0,0,.75-11.25V249a60.23,60.23,0,0,0-.75-11.25,102.27,102.27,0,0,0,11.25.45h38.1v-23.7a48.49,48.49,0,0,0-.75-9h24a59.29,59.29,0,0,0-.75,9v23.7Zm-87.6,6v45.3h26.4v-45.3Zm48.9,0v45.3h27v-45.3Z"/></g></svg>