<svg id="レイヤー_1" data-name="レイヤー 1" xmlns="http://www.w3.org/2000/svg" viewBox="0 0 500 500"><defs><style>.cls-1{fill:#6e96e8;}.cls-1,.cls-2{stroke:#19448e;stroke-miterlimit:10;stroke-width:10px;}.cls-2{fill:#fff;}.cls-3{fill:#19448e;}</style></defs><title>s_spycy_img01</title><g id="辛"><g id="星"><path class="cls-1" d="M319.2,64.68l-41.12-6-14.4-29.19-4-8.08c-5.73-11.6-15.1-11.6-20.83,0L220.47,58.71l-41.12,6c-12.81,1.86-15.71,10.78-6.44,19.81l6.45,6.29,6.45,6.29h0l16.85,16.43-5.5,32.08-1.52,8.87c-2.19,12.76,5.4,18.27,16.85,12.25l36.78-19.34,36.78,19.34c11.46,6,19.05.51,16.86-12.25l-1.52-8.87-1.53-8.88h0l-4-23.2,16.85-16.43h0l6.45-6.29,6.45-6.28C334.91,75.46,332,66.54,319.2,64.68Z"/><path class="cls-1" d="M162.92,197l-41.12-6-14.41-29.19-4-8.07c-5.73-11.61-15.11-11.61-20.84,0L64.18,191.07l-41.12,6c-12.81,1.86-15.7,10.78-6.43,19.82l6.45,6.28,6.45,6.29h0l16.85,16.43-5.5,32.08-1.52,8.87c-2.19,12.76,5.39,18.27,16.85,12.25L93,279.72l36.78,19.34c11.46,6,19,.51,16.86-12.25l-1.53-8.87-1.52-8.88h0l-4-23.2,16.86-16.43h0l6.45-6.29,6.45-6.28C178.63,207.82,175.73,198.9,162.92,197Z"/><path class="cls-1" d="M217.9,386.33l-41.12-6-14.4-29.19-4-8.07c-5.73-11.61-15.1-11.61-20.83,0l-18.39,37.26-41.12,6c-12.81,1.87-15.71,10.78-6.44,19.82l6.45,6.29,6.45,6.28h0l16.86,16.43-5.51,32.08-1.52,8.88c-2.19,12.76,5.4,18.27,16.86,12.24L148,469l36.78,19.33c11.45,6,19,.52,16.85-12.24l-1.52-8.88-1.52-8.88h0l-4-23.2,16.85-16.43h0l6.45-6.28,6.45-6.29C233.61,397.11,230.71,388.2,217.9,386.33Z"/><path class="cls-2" d="M419.55,386.33l-41.12-6L364,351.17l-4-8.07c-5.73-11.61-15.11-11.61-20.83,0l-18.39,37.26-41.13,6c-12.81,1.87-15.7,10.78-6.43,19.82l6.45,6.29,6.45,6.28h0L303,435.15l-5.5,32.08L296,476.11c-2.19,12.76,5.39,18.27,16.85,12.24L349.62,469l36.78,19.33c11.46,6,19,.52,16.86-12.24l-1.53-8.88-1.52-8.88h0l-4-23.2,16.86-16.43h0l6.45-6.28,6.45-6.29C435.26,397.11,432.36,388.2,419.55,386.33Z"/><path class="cls-1" d="M475.32,197l-41.12-6-14.41-29.19-4-8.07c-5.73-11.61-15.11-11.61-20.84,0l-18.39,37.27-41.12,6c-12.81,1.86-15.7,10.78-6.43,19.82l6.45,6.28,6.45,6.29h0l16.85,16.43-5.5,32.08-1.52,8.87c-2.19,12.76,5.39,18.27,16.85,12.25l36.78-19.34,36.78,19.34c11.46,6,19,.51,16.86-12.25l-1.53-8.87L456,269.06h0l-4-23.2,16.86-16.43h0l6.45-6.29,6.45-6.28C491,207.82,488.13,198.9,475.32,197Z"/></g><path class="cls-3" d="M260.06,297.54h44.4a63.24,63.24,0,0,0,9-.6v7.2a63.24,63.24,0,0,0-9-.6h-44.4v28.94a59.29,59.29,0,0,0,.75,9h-23.7l.15-1.5a47,47,0,0,0,.6-7.5V303.54h-43.5a66.19,66.19,0,0,0-9,.6v-7.2a64.69,64.69,0,0,0,9,.6h43.5V273.39H189.41a66.19,66.19,0,0,0-9,.6v-7.2a64.69,64.69,0,0,0,9,.6h25.2a194.85,194.85,0,0,0-6.75-25.95l-1.8-2.25,5.85-3.6,1.2,1.95c9.45,7.5,14.85,12.15,20.55,17.4l4.35,3-17.25,9.45H261a156.44,156.44,0,0,0,8.85-26.85l1.2-5.7,25.5,8.85-4.95,4.2a172.59,172.59,0,0,1-21.6,19.5h39.45a63.24,63.24,0,0,0,9-.6V274a63.24,63.24,0,0,0-9-.6H260.06Zm-22.2-82.05a48.49,48.49,0,0,0-.75-9h23.7a59.29,59.29,0,0,0-.75,9v12.6h40.65a63.24,63.24,0,0,0,9-.6v7.2a63.24,63.24,0,0,0-9-.6H198.11a66.19,66.19,0,0,0-9,.6v-7.2a64.69,64.69,0,0,0,9,.6h39.75Z"/></g></svg>