<svg id="レイヤー_1" data-name="レイヤー 1" xmlns="http://www.w3.org/2000/svg" viewBox="0 0 960 760"><defs><style>.cls-1{fill:#7ac943;}.cls-2{fill:#1d4201;}.cls-3{fill:none;stroke:#fff;stroke-linecap:round;stroke-linejoin:round;stroke-width:5px;}.cls-4{fill:#ff7bac;}.cls-5{fill:#57112b;}.cls-6{fill:#3fa9f5;}.cls-7{fill:#072a42;}</style></defs><title>k_map_img04</title><g id="西グループ"><g id="西"><path class="cls-1" d="M247.91,469a2.51,2.51,0,0,1-.89-.17l-11.75-4.52-5.9,4.22a2.49,2.49,0,0,1-1.46.47,2.34,2.34,0,0,1-.86-.16l-18.78-6.92-23.77-4a2.5,2.5,0,0,1-1.81-1.32l-15.6-30.23-8.38-3.81-7.8,10.4a2.49,2.49,0,0,1-2,1h-17a2.47,2.47,0,0,1-1.76-.74l-9.53-9.53-14.29,9.83a2.51,2.51,0,0,1-1.42.44,2.35,2.35,0,0,1-.64-.09l-15-4a2.49,2.49,0,0,1-1.86-2.41V414.84L46.8,413a2.48,2.48,0,0,1-1.86-1l-21-27a2.49,2.49,0,0,1,0-3.09l16-20a2.35,2.35,0,0,1,.91-.71l10.5-4.85L46,347.22l-8.51-5.68a2.5,2.5,0,0,1-.38-3.85l11.36-11.37,1.67-16.62-7.52-.76a2.49,2.49,0,0,1-1.88-1.17,2.53,2.53,0,0,1-.2-2.21l4.13-10.73L35,290.76A2.47,2.47,0,0,1,33.48,289a2.53,2.53,0,0,1,.54-2.21l11.91-13.74-5.25-10.51a2.45,2.45,0,0,1,0-2.19A2.48,2.48,0,0,1,42.37,259l18-4a2.48,2.48,0,0,1,.54-.06,2.55,2.55,0,0,1,1.29.35l8.07,4.84L77.13,251l-4.59-13.75a2.52,2.52,0,0,1,.51-2.47l18-20a2.86,2.86,0,0,1,.5-.42l20-13a2.54,2.54,0,0,1,1.36-.4h23a2.52,2.52,0,0,1,1.62.59l12.11,10.25,7.27-1.21-11.15-18.86a2.49,2.49,0,0,1,.56-3.2l17-14a2.5,2.5,0,0,1,1.59-.57h25.94l18.93-1h.13a2.61,2.61,0,0,1,.79.12l7.75,2.59,20-15.2a2.44,2.44,0,0,1,1.51-.51,2.51,2.51,0,0,1,1.89.85l27,31,.16.21,6.25,8.94h16.67l7.27-7.27a2.52,2.52,0,0,1,.79-.54l18.21-7.66,13.58-24.26a2.49,2.49,0,0,1,1.74-1.23,2.25,2.25,0,0,1,.44,0,2.49,2.49,0,0,1,1.62.59l11.32,9.58,10.37-9.52a2.53,2.53,0,0,1,1.69-.65h33.93l5.62-30a2.45,2.45,0,0,1,.86-1.47l23-19a2.5,2.5,0,0,1,1.59-.57h40a2.5,2.5,0,0,1,2.5,2.5v35a2.44,2.44,0,0,1-.42,1.38l-30.92,46.39,15.71,17.56a2.5,2.5,0,0,1,.63,1.67v33a2.46,2.46,0,0,1-.16.89l-4.6,12L461.44,288h31.47a2.5,2.5,0,0,1,2.07,3.91l-25.46,37.2,3.67,26.57,14.6,5.48a2.5,2.5,0,0,1-.88,4.84h-8.5v7.5a2.49,2.49,0,0,1-1.42,2.25l-21,10a2.52,2.52,0,0,1-1.08.25H445l-11.26,12.19a2.48,2.48,0,0,1-1.84.81H399l-8.26,9.17a2.49,2.49,0,0,1-1.86.83h-25.5v10.5a2.49,2.49,0,0,1-1.42,2.25l-42,20a2.46,2.46,0,0,1-.68.22l-25,4a2.69,2.69,0,0,1-.4,0,2.5,2.5,0,0,1-2.06-1.09l-10-14.54-22.67,6.11-2.79,21.34a2.41,2.41,0,0,1-.4,1.06l-6,9A2.48,2.48,0,0,1,247.91,469Z"/><path class="cls-2" d="M463.91,111.46v35l-32,48,17,19v33l-5,13,16,31h33l-26,38,4,29,16,6h-11v10l-21,10h-11l-12,13h-34l-9,10h-28v13l-42,20-25,4-11-16-26,7-3,23-6,9-13-5-7,5-19-7-24-4-16-31-11-5-9,12h-17l-11-11-16,11-15-4v-15l-43-2-21-27,16-20,13-6-7-12-9-6,12-12,2-20-10-1,5-13-12-5,13-15-6-12,18-4,10,6,9-12-5-15,18-20,20-13h23l13,11,12-2-13-22,17-14h26l19-1,9,3,21-16,27,31,7,10h19l8-8,19-8,14-25,13,11,12-11h36l6-32,23-19h40m29,179h0m-29-184h-40a5,5,0,0,0-3.18,1.14l-23,19a5,5,0,0,0-1.73,2.94l-5.24,27.92H358.91a5,5,0,0,0-3.38,1.31l-8.75,8-9.64-8.15a5,5,0,0,0-3.23-1.18,4.53,4.53,0,0,0-.89.08,5,5,0,0,0-3.47,2.47l-13.16,23.5L299,190.85a4.9,4.9,0,0,0-1.59,1.07l-6.54,6.54H276.52L271,190.59a4.35,4.35,0,0,0-.33-.42l-27-31a5,5,0,0,0-6.8-.69L218,172.88l-6.5-2.17a5,5,0,0,0-1.58-.25h-.26l-18.87,1H164.91a5,5,0,0,0-3.18,1.14l-17,14a5,5,0,0,0-1.12,6.4l9.29,15.72-2.53.42-11.23-9.5a5,5,0,0,0-3.23-1.18h-23a5.05,5.05,0,0,0-2.72.8l-20,13a5.05,5.05,0,0,0-1,.85l-18,20a5,5,0,0,0-1,4.93l4.17,12.51-4.72,6.3-6.13-3.68a5,5,0,0,0-2.58-.71,5,5,0,0,0-1.08.12l-18,4a5,5,0,0,0-3.39,7.11l4.51,9L32.13,285.18A5,5,0,0,0,34,293.07l7.51,3.13-3.25,8.46a5,5,0,0,0,4.17,6.77l5,.5-1.32,13.25L35.38,335.92a5,5,0,0,0,.76,7.7l8,5.36,3.64,6.24-8,3.7A4.91,4.91,0,0,0,38,360.33l-16,20a5,5,0,0,0,0,6.2l21,27a5,5,0,0,0,3.71,1.92l38.23,1.78v10.23a5,5,0,0,0,3.71,4.83l15,4a5.19,5.19,0,0,0,1.29.17,5,5,0,0,0,2.84-.88l12.57-8.65,8.06,8.06a5,5,0,0,0,3.53,1.47h17a5,5,0,0,0,4-2l6.59-8.79,5.77,2.62,15.2,29.46a5,5,0,0,0,3.62,2.64l23.54,3.92,18.55,6.84a5.22,5.22,0,0,0,1.73.31,5,5,0,0,0,2.91-.93l4.81-3.44,10.49,4a4.86,4.86,0,0,0,1.79.34,5,5,0,0,0,4.16-2.23l6-9a5,5,0,0,0,.8-2.13l2.57-19.68,19.36-5.22,9,13.09a5,5,0,0,0,4.12,2.17,4.22,4.22,0,0,0,.79-.07l25-4a4.67,4.67,0,0,0,1.36-.42l42-20a5,5,0,0,0,2.85-4.51v-8h23a5,5,0,0,0,3.72-1.66l7.51-8.34h31.77a5,5,0,0,0,3.68-1.61l10.51-11.39h8.81a5,5,0,0,0,2.15-.49l21-10a5,5,0,0,0,2.85-4.51v-5h6a5,5,0,0,0,1.76-9.69l-13.21-4.95-3.33-24.13L497,293.39a5,5,0,0,0-4.05-7.93H463l-13.57-26.3,4.19-10.91a5,5,0,0,0,.33-1.79v-33a5,5,0,0,0-1.27-3.34L438.22,194l29.85-44.78a5,5,0,0,0,.84-2.77v-35a5,5,0,0,0-5-5Z"/></g><g id="西_白" data-name="西　白"><polyline class="cls-3" points="160.91 212.46 174.91 230.46 174.91 244.46 225.91 279.46 228.91 296.46 253.91 299.46 259.91 309.46 271.91 309.46 290.91 289.46 290.91 235.46 228.91 222.46 228.91 205.46 213.91 188.46 215.91 176.46"/><line class="cls-3" x1="290.91" y1="203.46" x2="290.91" y2="237.74"/><polyline class="cls-3" points="295.91 234.46 338.91 225.46 360.91 220.46 385.91 258.46 367.91 328.46 376.91 349.46 388.91 349.46 388.91 379.46 359.91 395.46 361.76 411.48"/><polyline class="cls-3" points="270.91 312.46 272.91 340.46 290.91 347.46 303.91 373.46 326.91 373.46 331.91 394.46 359.91 394.46"/></g><g id="西-2" data-name="西"><path class="cls-2" d="M463.91,111.46v35l-32,48,17,19v33l-5,13,16,31h33l-26,38,4,29,16,6h-11v10l-21,10h-11l-12,13h-34l-9,10h-28v13l-42,20-25,4-11-16-26,7-3,23-6,9-13-5-7,5-19-7-24-4-16-31-11-5-9,12h-17l-11-11-16,11-15-4v-15l-43-2-21-27,16-20,13-6-7-12-9-6,12-12,2-20-10-1,5-13-12-5,13-15-6-12,18-4,10,6,9-12-5-15,18-20,20-13h23l13,11,12-2-13-22,17-14h26l19-1,9,3,21-16,27,31,7,10h19l8-8,19-8,14-25,13,11,12-11h36l6-32,23-19h40m29,179h0m-29-184h-40a5,5,0,0,0-3.18,1.14l-23,19a5,5,0,0,0-1.73,2.94l-5.24,27.92H358.91a5,5,0,0,0-3.38,1.31l-8.75,8-9.64-8.15a5,5,0,0,0-3.23-1.18,4.53,4.53,0,0,0-.89.08,5,5,0,0,0-3.47,2.47l-13.16,23.5L299,190.85a4.9,4.9,0,0,0-1.59,1.07l-6.54,6.54H276.52L271,190.59a4.35,4.35,0,0,0-.33-.42l-27-31a5,5,0,0,0-6.8-.69L218,172.88l-6.5-2.17a5,5,0,0,0-1.58-.25h-.26l-18.87,1H164.91a5,5,0,0,0-3.18,1.14l-17,14a5,5,0,0,0-1.12,6.4l9.29,15.72-2.53.42-11.23-9.5a5,5,0,0,0-3.23-1.18h-23a5.05,5.05,0,0,0-2.72.8l-20,13a5.05,5.05,0,0,0-1,.85l-18,20a5,5,0,0,0-1,4.93l4.17,12.51-4.72,6.3-6.13-3.68a5,5,0,0,0-2.58-.71,5,5,0,0,0-1.08.12l-18,4a5,5,0,0,0-3.39,7.11l4.51,9L32.13,285.18A5,5,0,0,0,34,293.07l7.51,3.13-3.25,8.46a5,5,0,0,0,4.17,6.77l5,.5-1.32,13.25L35.38,335.92a5,5,0,0,0,.76,7.7l8,5.36,3.64,6.24-8,3.7A4.91,4.91,0,0,0,38,360.33l-16,20a5,5,0,0,0,0,6.2l21,27a5,5,0,0,0,3.71,1.92l38.23,1.78v10.23a5,5,0,0,0,3.71,4.83l15,4a5.19,5.19,0,0,0,1.29.17,5,5,0,0,0,2.84-.88l12.57-8.65,8.06,8.06a5,5,0,0,0,3.53,1.47h17a5,5,0,0,0,4-2l6.59-8.79,5.77,2.62,15.2,29.46a5,5,0,0,0,3.62,2.64l23.54,3.92,18.55,6.84a5.22,5.22,0,0,0,1.73.31,5,5,0,0,0,2.91-.93l4.81-3.44,10.49,4a4.86,4.86,0,0,0,1.79.34,5,5,0,0,0,4.16-2.23l6-9a5,5,0,0,0,.8-2.13l2.57-19.68,19.36-5.22,9,13.09a5,5,0,0,0,4.12,2.17,4.22,4.22,0,0,0,.79-.07l25-4a4.67,4.67,0,0,0,1.36-.42l42-20a5,5,0,0,0,2.85-4.51v-8h23a5,5,0,0,0,3.72-1.66l7.51-8.34h31.77a5,5,0,0,0,3.68-1.61l10.51-11.39h8.81a5,5,0,0,0,2.15-.49l21-10a5,5,0,0,0,2.85-4.51v-5h6a5,5,0,0,0,1.76-9.69l-13.21-4.95-3.33-24.13L497,293.39a5,5,0,0,0-4.05-7.93H463l-13.57-26.3,4.19-10.91a5,5,0,0,0,.33-1.79v-33a5,5,0,0,0-1.27-3.34L438.22,194l29.85-44.78a5,5,0,0,0,.84-2.77v-35a5,5,0,0,0-5-5Z"/></g></g><g id="東"><g id="東-2" data-name="東"><path class="cls-4" d="M624.91,404A2.53,2.53,0,0,1,623,403l-3.81-4.76L598.4,382.45a2.59,2.59,0,0,1-.64-.72l-16-27.09L575.42,343H544.67l-8.37,5.58a2.57,2.57,0,0,1-1.39.42,2.62,2.62,0,0,1-.87-.16l-16-6a2.52,2.52,0,0,1-1.62-2.1l-3-31a2.54,2.54,0,0,1,.44-1.67L536.13,276H507.91a2.51,2.51,0,0,1-2.22-1.36l-16-31a2.46,2.46,0,0,1-.11-2L494.41,229V197.41l-16.36-18.29a2.5,2.5,0,0,1-.25-3L489.85,157l19.56-28.36V94.46a2.5,2.5,0,0,1,2.42-2.5L539.24,91l2.38-5.54A2.48,2.48,0,0,1,543.91,84h22a2.5,2.5,0,0,1,2.36,1.66L572.67,98H579l5.3-4.42A2.42,2.42,0,0,1,585.5,93l23.4-3.9,7.51-5.63a2.5,2.5,0,0,1,1.5-.5,2.56,2.56,0,0,1,1.15.27l31,16c.08,0,.16.09.24.15l15.58,10.39,21.77-46.38A2.53,2.53,0,0,1,689.26,62l10.59-2.89,30.66-20.76a2.55,2.55,0,0,1,2.16-.32l36.87,11.65,15-9.72.87-7.82A2.49,2.49,0,0,1,787.91,30h16.35l15.43-8.68a2.42,2.42,0,0,1,1.22-.32,2.49,2.49,0,0,1,2.45,3L817,53.4l25.24-22.8a2.51,2.51,0,0,1,3-.23,2.51,2.51,0,0,1,1,2.9L829.42,82h13.49A2.51,2.51,0,0,1,845,83a2.54,2.54,0,0,1,.31,2.28l-11,31a2.5,2.5,0,0,1-1.45,1.5l-14.43,5.61,7.29,7.29a2.5,2.5,0,0,1,.47,2.88l-14.42,28.84,4.49.57a2.48,2.48,0,0,1,2.14,3l-3,15a2.49,2.49,0,0,1-2.44,2l-.27,0-16.72-1.79,10.27,6.16.26.18,14,11a2.49,2.49,0,0,1,.29,3.66l-11.36,12.31-.95,35.17,6.37,8.2,12.88,13.67,6.81-24.71a2.5,2.5,0,0,1,2.09-1.81,1.77,1.77,0,0,1,.32,0,2.5,2.5,0,0,1,2.16,1.23l17,29a2.51,2.51,0,0,1-.56,3.19l-12,10a2.23,2.23,0,0,1-.51.33l-31,15-8,4-15.06,7-23.06,10-27.54,11.8-21,21.91v26a2.49,2.49,0,0,1-2.13,2.47l-73.74,11-15.75,5.91A2.68,2.68,0,0,1,624.91,404Z"/><path class="cls-5" d="M820.91,23.46l-8,37,31-28-18,52h17l-11,31-18,7,10,10-16,32,8,1-3,15-28-3,20,12,14,11-12,13-1,37,7,9,16,17,8-29,17,29-12,10-31,15-8,4-15,7-23,10-28,12-22,23v27l-74,11-16,6-4-5-21-16-16-27-7-13h-33l-9,6-16-6-3-31,25-36h-33l-16-31,5-13v-33l-17-19,12-19,20-29v-35l29-1,3-7h22l5,14h9l6-5,24-4,8-6,31,16,18,12,23-49,11-3,31-21,38,12,17-11,1-9h17l16-9m0-5a5,5,0,0,0-2.45.64L803.6,27.46H787.91a5,5,0,0,0-5,4.44l-.73,6.65-13,8.43L733.42,35.69a4.85,4.85,0,0,0-1.51-.23,5,5,0,0,0-2.8.86L698.8,56.85l-10.2,2.78a5,5,0,0,0-3.21,2.7l-20.54,43.74L651.69,97.3c-.16-.11-.32-.2-.48-.29l-31-16a5.06,5.06,0,0,0-2.3-.55,5,5,0,0,0-3,1l-7,5.26-22.8,3.8a5.06,5.06,0,0,0-2.38,1.1l-4.61,3.84h-3.66l-3.82-10.69a5,5,0,0,0-4.71-3.31h-22a5,5,0,0,0-4.59,3l-1.75,4.08-25.83.89a5,5,0,0,0-4.83,5V127.9L487.8,155.62a1,1,0,0,0-.11.17l-12,19a5,5,0,0,0,.5,6l15.72,17.58v30.16l-4.66,12.13a5,5,0,0,0,.22,4.09l16,31a5,5,0,0,0,4.44,2.71h23.44L511.81,306.6a5,5,0,0,0-.87,3.34l3,31a5,5,0,0,0,3.22,4.2l16,6a5,5,0,0,0,4.53-.52l7.74-5.16h28.5l5.58,10.37.1.18,16,27a5.07,5.07,0,0,0,1.27,1.42l20.51,15.63,3.62,4.52a5,5,0,0,0,3.9,1.88,5.11,5.11,0,0,0,1.76-.32l15.5-5.82,73.48-10.92a5,5,0,0,0,4.26-4.94v-25l19.91-20.81,27.06-11.6,23-10L790,317l15-7,.12-.06,8-4,31-15a5,5,0,0,0,1-.66l12-10a5,5,0,0,0,1.12-6.37l-17-29a5,5,0,0,0-4.32-2.47,4.82,4.82,0,0,0-.65,0,5,5,0,0,0-4.17,3.63l-5.63,20.42-9.74-10.35L811,248.8l.9-33.33,10.73-11.62a5,5,0,0,0-.59-7.33l-14-11c-.16-.12-.34-.24-.51-.35l-.54-.32,5.43.58.54,0a5,5,0,0,0,4.9-4l3-15a5,5,0,0,0-4.29-5.94l-1-.13,12.84-25.68a5,5,0,0,0-.94-5.77l-4.58-4.58,10.86-4.22a5,5,0,0,0,2.9-3l11-31a5,5,0,0,0-4.72-6.67h-10l15.71-45.37a5,5,0,0,0-8.08-5.34L821.08,46.34l4.72-21.83a5,5,0,0,0-4.89-6.05Zm0,10h0Z"/></g><polyline class="cls-3" points="632.91 89.46 632.91 111.46 642.91 120.46 642.91 139.46 658.91 143.46 652.91 162.46 658.91 199.46 681.91 204.46 681.91 232.46 694.91 232.46 698.91 240.46 706.91 245.46 730.91 235.46 739.91 254.46 726.91 271.46 726.91 281.46 749.91 292.46 793.91 292.46 793.91 301.46 783.88 314.21"/><polyline class="cls-3" points="692.29 63.81 710.91 83.46 726.91 83.46 731.91 115.46 752.91 128.46 801.91 108.46 831.91 115.46"/><polyline class="cls-3" points="818.47 143.35 804.91 128.46 796.91 128.46 789.91 120.46 783.75 115.87"/><polyline class="cls-3" points="793.91 129.46 793.91 148.46 754.91 129.46 745.91 143.46 742.91 151.46 730.91 151.46 715.91 143.46 731.91 115.46"/><polyline class="cls-3" points="675.04 96.13 678.91 129.46 697.91 147.46 704.91 170.46 709.91 170.46 709.91 195.46 681.91 204.46"/><polyline class="cls-3" points="658.91 199.46 605.91 235.46 597.91 247.46 578.91 247.46 557.91 263.46 540.91 268.46 535.91 276.46"/><polyline class="cls-3" points="698.91 240.46 678.91 258.46 656.91 295.46 647.91 308.46 608.91 328.46 594.91 323.46 576.91 341.46"/><polyline class="cls-3" points="723.91 282.46 709.91 299.46 685.87 295.76 682.87 317.76 702.91 344.46 691.91 367.46 682.91 389.21"/><line class="cls-3" x1="658.91" y1="295.87" x2="688.39" y2="295.87"/><polyline class="cls-3" points="494.79 194.09 604.91 184.46 611.91 171.46 717.89 144.51"/><g id="東-3" data-name="東"><path class="cls-5" d="M820.91,23.46l-8,37,31-28-18,52h17l-11,31-18,7,10,10-16,32,8,1-3,15-28-3,20,12,14,11-12,13-1,37,7,9,16,17,8-29,17,29-12,10-31,15-8,4-15,7-23,10-28,12-22,23v27l-74,11-16,6-4-5-21-16-16-27-7-13h-33l-9,6-16-6-3-31,25-36h-33l-16-31,5-13v-33l-17-19,12-19,20-29v-35l29-1,3-7h22l5,14h9l6-5,24-4,8-6,31,16,18,12,23-49,11-3,31-21,38,12,17-11,1-9h17l16-9m0-5a5,5,0,0,0-2.45.64L803.6,27.46H787.91a5,5,0,0,0-5,4.44l-.73,6.65-13,8.43L733.42,35.69a4.85,4.85,0,0,0-1.51-.23,5,5,0,0,0-2.8.86L698.8,56.85l-10.2,2.78a5,5,0,0,0-3.21,2.7l-20.54,43.74L651.69,97.3c-.16-.11-.32-.2-.48-.29l-31-16a5.06,5.06,0,0,0-2.3-.55,5,5,0,0,0-3,1l-7,5.26-22.8,3.8a5.06,5.06,0,0,0-2.38,1.1l-4.61,3.84h-3.66l-3.82-10.69a5,5,0,0,0-4.71-3.31h-22a5,5,0,0,0-4.59,3l-1.75,4.08-25.83.89a5,5,0,0,0-4.83,5V127.9L487.8,155.62a1,1,0,0,0-.11.17l-12,19a5,5,0,0,0,.5,6l15.72,17.58v30.16l-4.66,12.13a5,5,0,0,0,.22,4.09l16,31a5,5,0,0,0,4.44,2.71h23.44L511.81,306.6a5,5,0,0,0-.87,3.34l3,31a5,5,0,0,0,3.22,4.2l16,6a5,5,0,0,0,4.53-.52l7.74-5.16h28.5l5.58,10.37.1.18,16,27a5.07,5.07,0,0,0,1.27,1.42l20.51,15.63,3.62,4.52a5,5,0,0,0,3.9,1.88,5.11,5.11,0,0,0,1.76-.32l15.5-5.82,73.48-10.92a5,5,0,0,0,4.26-4.94v-25l19.91-20.81,27.06-11.6,23-10L790,317l15-7,.12-.06,8-4,31-15a5,5,0,0,0,1-.66l12-10a5,5,0,0,0,1.12-6.37l-17-29a5,5,0,0,0-4.32-2.47,4.82,4.82,0,0,0-.65,0,5,5,0,0,0-4.17,3.63l-5.63,20.42-9.74-10.35L811,248.8l.9-33.33,10.73-11.62a5,5,0,0,0-.59-7.33l-14-11c-.16-.12-.34-.24-.51-.35l-.54-.32,5.43.58.54,0a5,5,0,0,0,4.9-4l3-15a5,5,0,0,0-4.29-5.94l-1-.13,12.84-25.68a5,5,0,0,0-.94-5.77l-4.58-4.58,10.86-4.22a5,5,0,0,0,2.9-3l11-31a5,5,0,0,0-4.72-6.67h-10l15.71-45.37a5,5,0,0,0-8.08-5.34L821.08,46.34l4.72-21.83a5,5,0,0,0-4.89-6.05Zm0,10h0Z"/></g></g><g id="南"><g id="南-2" data-name="南"><path class="cls-6" d="M594.91,743a2.5,2.5,0,0,1-1.26-.35l-33.16-19.5-26,5.79a2.57,2.57,0,0,1-.55.06,2.49,2.49,0,0,1-1-.23l-21-9.53-10,4.53a2.57,2.57,0,0,1-1,.23,2.51,2.51,0,0,1-2.12-1.18l-38-61a2.5,2.5,0,0,1,.2-2.92l19.42-23.31v-30L444.69,600l-55.82-1a2.5,2.5,0,0,1-1.72-4.27l10.05-10.06L388.46,541a2.48,2.48,0,0,1,0-.9l2.88-17.28-5.54-12.92L368.1,491.18a2.52,2.52,0,0,1-.69-1.72v-17a2.51,2.51,0,0,1,1.38-2.24l40.62-20.31V439.46a2.5,2.5,0,0,1,2.5-2.5H438.8l8.25-9.18a2.53,2.53,0,0,1,1.86-.82h32.91l11.26-12.2a2.5,2.5,0,0,1,1.83-.8h10.44l19.06-9.08v-8.42a2.5,2.5,0,0,1,2.5-2.5h9.78l8.89-5.62a2.51,2.51,0,0,1,1.33-.38h33a2.48,2.48,0,0,1,2.18,1.27l22.73,40.52,20.55,14.67a2.61,2.61,0,0,1,.31.27l3.84,3.83L643,443.14a2.31,2.31,0,0,1,.57-.16l71.86-10.68V407.46a2.47,2.47,0,0,1,.7-1.73l22-23a2.55,2.55,0,0,1,.76-.55l104.7-47.86,11.74-9.78a2.51,2.51,0,0,1,3.31.09l15,14a2.54,2.54,0,0,1,.51.66l9.68,18.4,12.41,7.64a2.49,2.49,0,0,1,1.19,2.13v32a2.49,2.49,0,0,1-.83,1.86l-19,17a3.92,3.92,0,0,1-.32.25l-11,7-.32.17L840,437.35l3.7,4.23,17.44-5.51a2.43,2.43,0,0,1,.75-.11,2.5,2.5,0,0,1,2.47,2.91l-1,6a2.52,2.52,0,0,1-1.28,1.79l-10,5.39c1.49,1.66,3,3.76,3.36,5.81,9.29-1.26,34.13-5.71,51-8.86a2.28,2.28,0,0,1,.45,0,2.49,2.49,0,0,1,1.77,4.26l-6,6a2.17,2.17,0,0,1-.44.36L894,464.72l12.17-3.66a2.58,2.58,0,0,1,2,.25l3.33,2,13.62-13.62a2.5,2.5,0,0,1,1.76-.73,2.6,2.6,0,0,1,.4,0,2.5,2.5,0,0,1,1.84,1.35l6,12a2.48,2.48,0,0,1-1,3.3l-76,42a2.35,2.35,0,0,1-.89.3l-29.71,3.83-10.39,19.85a2.51,2.51,0,0,1-2.22,1.34H795l-4.66,28.89a2.5,2.5,0,0,1-2.47,2.11,2.52,2.52,0,0,1-.93-.18l-13.46-5.39-4,4,.92,11.85a2.51,2.51,0,0,1-1.11,2.28l-72,48a2.52,2.52,0,0,1-1.39.42h-23.5v11.5a2.49,2.49,0,0,1-2.5,2.5,2.28,2.28,0,0,1-.63-.09l-17.39-4.57-18.53,24.42,18,3.28a2.49,2.49,0,0,1,1.58,3.91l-28,39a2.48,2.48,0,0,1-2,1.05H595.66l-6,16.41,7.59,17.07a2.51,2.51,0,0,1-2.29,3.52Z"/><path class="cls-7" d="M856.91,326.46l15,14,10,19,13,8v32l-19,17-11,7-29,13,7,8,19-6-1,6-13,7s8,7,4,9c-.33.16-.23.24.24.24,5.18,0,54.76-9.24,54.76-9.24l-6,6-24,15,30-9,5,3,15-15,6,12-76,42-31,4-11,21h-22l-5,31-15-6-6,6,1,13-72,48h-26v14l-19-5-22,29,22,4-28,39h-29l-7,19,8,18-34-20-27,6-22-10-11,5-38-61,20-24v-33l-38-6-56-1,11-11-9-45,3-18-6-14-18-19v-17l42-21v-12h28l9-10h34l12-13h11l21-10v-10h10.5l9.5-6h33l23,41,21,15,5,5,15-6,74-11v-27l22-23,105-48,12-10m5,112h0m45,13h0m-50-130a5,5,0,0,0-3.2,1.16l-11.48,9.57-104.4,47.72A5,5,0,0,0,736.3,381l-22,23a5,5,0,0,0-1.39,3.46v22.68l-69.73,10.37a5.29,5.29,0,0,0-1.12.3l-11.94,4.78-2.67-2.67a6.31,6.31,0,0,0-.63-.53L606.73,428l-22.46-40a5,5,0,0,0-4.36-2.55h-33a5,5,0,0,0-2.67.77L536,391.46h-9.06a5,5,0,0,0-5,5v6.84l-17.13,8.16h-9.87a5,5,0,0,0-3.67,1.61l-10.52,11.39H448.91a5,5,0,0,0-3.71,1.65l-7.51,8.35H411.91a5,5,0,0,0-5,5v8.91L367.68,468a5,5,0,0,0-2.77,4.48v17a5,5,0,0,0,1.37,3.44l17.39,18.35,5.07,11.83L386,539.63a5,5,0,0,0,0,1.81l8.48,42.37-9.11,9.11a5,5,0,0,0,3.44,8.54l55.66,1,33.43,5.28v26.92l-18.84,22.61a5,5,0,0,0-.4,5.84l38,61A5,5,0,0,0,503,726l8.93-4.06L531.84,731a5,5,0,0,0,3.16.33l25.08-5.58,32.3,19a5,5,0,0,0,7.1-6.34l-7.17-16.15,5.09-13.82h25.51a5,5,0,0,0,4.06-2.09l28-39a5,5,0,0,0-3.16-7.83l-14-2.55,15-19.85,15.77,4.15a5,5,0,0,0,6.27-4.83v-9h21a5.07,5.07,0,0,0,2.78-.84l72-48a5,5,0,0,0,2.21-4.55l-.83-10.7,2-2,11.94,4.78a4.91,4.91,0,0,0,1.85.36,5,5,0,0,0,4.94-4.21l4.32-26.79h17.74a5,5,0,0,0,4.43-2.68l9.79-18.7,28.42-3.66a5.05,5.05,0,0,0,1.78-.59l76-42a5,5,0,0,0,2.06-6.61l-6-12a5,5,0,0,0-3.68-2.7,5.29,5.29,0,0,0-.8-.06,5,5,0,0,0-3.53,1.46l-12.24,12.24-1.65-1a5,5,0,0,0-2.51-.71l3.4-3.4a5,5,0,0,0-3.2-8.6h-.62a3.74,3.74,0,0,0-.66.09c-18.64,3.47-39.25,7.13-48.75,8.54a15.31,15.31,0,0,0-1.27-2.26l7.4-4a5,5,0,0,0,2.56-3.58l1-5.82a5.56,5.56,0,0,0,.1-1,5,5,0,0,0-4.92-5h-.34a5.46,5.46,0,0,0-1.36.26l-15.78,5-.39-.45L867,428a5.71,5.71,0,0,0,.64-.35l11-7a5,5,0,0,0,.65-.49l19-17a5,5,0,0,0,1.66-3.72v-32a5,5,0,0,0-2.38-4.26l-11.83-7.28-9.36-17.79a4.91,4.91,0,0,0-1-1.33l-15-14a5,5,0,0,0-3.41-1.34Z"/></g><polyline class="cls-3" points="717.91 430.39 742.91 430.46 750.91 436.46 786.91 433.46 746.91 490.46 760.91 496.46 777.91 487.46 807.91 511.46 856.91 492.46 884.91 481.46 889.82 487.27"/><polyline class="cls-3" points="759.91 499.46 735.91 505.46 706.91 518.46 691.91 531.46 680.91 531.46 672.91 550.46 653.91 567.46 624.91 559.46 572.91 561.46 551.91 578.46 544.91 570.46 510.91 570.46 503.91 578.46 483.91 591.46 480.91 606.46"/><polyline class="cls-3" points="723.62 603.99 710.91 595.46 700.91 570.46 678.91 576.46 655.91 575.46 655.91 567.46"/><polyline class="cls-3" points="655.91 578.46 639.91 583.46 631.91 598.46 640.91 622.46 654.91 634.46"/><g id="南-3" data-name="南"><path class="cls-7" d="M856.91,326.46l15,14,10,19,13,8v32l-19,17-11,7-29,13,7,8,19-6-1,6-13,7s8,7,4,9c-.33.16-.23.24.24.24,5.18,0,54.76-9.24,54.76-9.24l-6,6-24,15,30-9,5,3,15-15,6,12-76,42-31,4-11,21h-22l-5,31-15-6-6,6,1,13-72,48h-26v14l-19-5-22,29,22,4-28,39h-29l-7,19,8,18-34-20-27,6-22-10-11,5-38-61,20-24v-33l-38-6-56-1,11-11-9-45,3-18-6-14-18-19v-17l42-21v-12h28l9-10h34l12-13h11l21-10v-10h10.5l9.5-6h33l23,41,21,15,5,5,15-6,74-11v-27l22-23,105-48,12-10m5,112h0m45,13h0m-50-130a5,5,0,0,0-3.2,1.16l-11.48,9.57-104.4,47.72A5,5,0,0,0,736.3,381l-22,23a5,5,0,0,0-1.39,3.46v22.68l-69.73,10.37a5.29,5.29,0,0,0-1.12.3l-11.94,4.78-2.67-2.67a6.31,6.31,0,0,0-.63-.53L606.73,428l-22.46-40a5,5,0,0,0-4.36-2.55h-33a5,5,0,0,0-2.67.77L536,391.46h-9.06a5,5,0,0,0-5,5v6.84l-17.13,8.16h-9.87a5,5,0,0,0-3.67,1.61l-10.52,11.39H448.91a5,5,0,0,0-3.71,1.65l-7.51,8.35H411.91a5,5,0,0,0-5,5v8.91L367.68,468a5,5,0,0,0-2.77,4.48v17a5,5,0,0,0,1.37,3.44l17.39,18.35,5.07,11.83L386,539.63a5,5,0,0,0,0,1.81l8.48,42.37-9.11,9.11a5,5,0,0,0,3.44,8.54l55.66,1,33.43,5.28v26.92l-18.84,22.61a5,5,0,0,0-.4,5.84l38,61A5,5,0,0,0,503,726l8.93-4.06L531.84,731a5,5,0,0,0,3.16.33l25.08-5.58,32.3,19a5,5,0,0,0,7.1-6.34l-7.17-16.15,5.09-13.82h25.51a5,5,0,0,0,4.06-2.09l28-39a5,5,0,0,0-3.16-7.83l-14-2.55,15-19.85,15.77,4.15a5,5,0,0,0,6.27-4.83v-9h21a5.07,5.07,0,0,0,2.78-.84l72-48a5,5,0,0,0,2.21-4.55l-.83-10.7,2-2,11.94,4.78a4.91,4.91,0,0,0,1.85.36,5,5,0,0,0,4.94-4.21l4.32-26.79h17.74a5,5,0,0,0,4.43-2.68l9.79-18.7,28.42-3.66a5.05,5.05,0,0,0,1.78-.59l76-42a5,5,0,0,0,2.06-6.61l-6-12a5,5,0,0,0-3.68-2.7,5.29,5.29,0,0,0-.8-.06,5,5,0,0,0-3.53,1.46l-12.24,12.24-1.65-1a5,5,0,0,0-2.51-.71l3.4-3.4a5,5,0,0,0-3.2-8.6h-.62a3.74,3.74,0,0,0-.66.09c-18.64,3.47-39.25,7.13-48.75,8.54a15.31,15.31,0,0,0-1.27-2.26l7.4-4a5,5,0,0,0,2.56-3.58l1-5.82a5.56,5.56,0,0,0,.1-1,5,5,0,0,0-4.92-5h-.34a5.46,5.46,0,0,0-1.36.26l-15.78,5-.39-.45L867,428a5.71,5.71,0,0,0,.64-.35l11-7a5,5,0,0,0,.65-.49l19-17a5,5,0,0,0,1.66-3.72v-32a5,5,0,0,0-2.38-4.26l-11.83-7.28-9.36-17.79a4.91,4.91,0,0,0-1-1.33l-15-14a5,5,0,0,0-3.41-1.34Z"/></g></g></svg>